<?xml version="1.0" encoding="UTF-8" standalone="no"?>
<svg
   version="1.0"
   width="590.000000pt"
   height="185.000000pt"
   viewBox="0 0 590.000000 185.000000"
   preserveAspectRatio="xMidYMid meet"
   id="svg108"
   sodipodi:docname="LogoPedralbesNegre.svg"
   inkscape:version="1.1.1 (3bf5ae0d25, 2021-09-20)"
   xmlns:inkscape="http://www.inkscape.org/namespaces/inkscape"
   xmlns:sodipodi="http://sodipodi.sourceforge.net/DTD/sodipodi-0.dtd"
   xmlns="http://www.w3.org/2000/svg"
   xmlns:svg="http://www.w3.org/2000/svg">
  <defs
     id="defs112" />
  <sodipodi:namedview
     id="namedview110"
     pagecolor="#ffffff"
     bordercolor="#666666"
     borderopacity="1.0"
     inkscape:pageshadow="2"
     inkscape:pageopacity="0.0"
     inkscape:pagecheckerboard="0"
     inkscape:document-units="pt"
     showgrid="false"
     inkscape:zoom="1.8279661"
     inkscape:cx="261.49281"
     inkscape:cy="123.36115"
     inkscape:window-width="1680"
     inkscape:window-height="973"
     inkscape:window-x="1920"
     inkscape:window-y="55"
     inkscape:window-maximized="1"
     inkscape:current-layer="svg108" />
  <g
     id="g236">
    <path
       d="m 211.3,0.7 c -2,0.7 -1.5,4.1 0.6,5.2 1.4,0.8 2.2,0.7 3.1,-0.4 2.4,-3 -0.1,-6.3 -3.7,-4.8 z"
       id="path2"
       style="fill:#ffffff;stroke:none;stroke-width:0.1" />
    <path
       d="M 8.3,2.2 C 8.1,2.7 8.7,3 9.7,3 13.5,3 14,4.9 14,20.5 14,36.1 13.5,38 9.8,38 8.8,38 8,38.4 8,38.8 c 0,0.4 4,0.8 9,0.8 5,0 9,-0.4 9,-0.8 C 26,38.4 25.2,38 24.2,38 21,38 20,35.8 20,28.8 20,22.9 20.2,22 21.8,22 c 2.3,0 3.8,1.6 9.2,10.5 l 4.3,7.1 h 5.3 c 6.1,0 6.8,-0.7 2.4,-2.3 C 41.1,36.6 38.6,33.9 35.5,29.2 33,25.3 31,21.8 31,21.3 31,20.9 32.6,19.2 34.5,17.7 37.3,15.5 38,14.2 38,11.5 38,3.5 34.6,1.7 19.7,1.6 13.7,1.5 8.6,1.8 8.3,2.2 Z M 30,5 c 1.4,1.4 2,3.3 2,6.5 0,5.9 -2.5,8.5 -8,8.5 H 20 V 12.1 C 20,6.7 20.4,4 21.3,3.7 24.1,2.5 28.1,3.1 30,5 Z"
       id="path4"
       style="fill:#ffffff;stroke:none;stroke-width:0.1" />
    <path
       d="m 51,2.2 c 0,0.5 0.6,0.8 1.4,0.8 0.8,0 2.2,0.7 3,1.6 2.3,2.3 2.3,29.5 0,31.8 -0.8,0.9 -2.2,1.6 -3,1.6 -0.8,0 -1.4,0.3 -1.4,0.7 0,0.5 6.6,0.8 14.7,0.7 L 80.4,39.3 82.2,35 c 2.2,-5.2 1.6,-6.3 -1.4,-2.5 -3.7,4.7 -12.2,7 -16.9,4.5 C 62.3,36.1 62,34.8 62,28.5 V 21 h 5.1 c 4.7,0 5.2,0.2 6.2,3 0.6,1.6 1.4,3 1.8,3 0.3,0 0.6,-3.2 0.6,-7 0,-3.9 -0.3,-7 -0.6,-7 -0.4,0 -1.2,1.3 -1.8,3 -1,2.8 -1.5,3 -6.3,3 h -5.1 l 0.3,-7.2 c 0.3,-6.8 0.5,-7.3 2.9,-8.2 5.1,-1.8 12.6,1.1 14.1,5.5 1,2.8 1.8,0.1 1.1,-3.5 L 79.5,1.9 65.2,1.7 C 57.4,1.6 51,1.8 51,2.2 Z"
       id="path6"
       style="fill:#ffffff;stroke:none;stroke-width:0.1" />
    <path
       d="M 90,2.2 C 90,2.6 90.8,3 91.8,3 95.5,3 96,4.9 96,20.5 96,36.1 95.5,38 91.8,38 c -1,0 -1.8,0.4 -1.8,0.8 0,0.4 4.1,0.8 9,0.8 5,0 9,-0.4 9,-0.8 C 108,38.4 107.2,38 106.2,38 102.5,38 102,36.1 102,20.5 102,4.8 102.4,3 106.4,3 107.4,3 108,2.7 107.7,2.3 106.7,1.4 90,1.3 90,2.2 Z"
       id="path8"
       style="fill:#ffffff;stroke:none;stroke-width:0.1" />
    <path
       d="m 132.1,3.2 c -3.1,8 -9.3,23.2 -11.4,28 -1.9,4.3 -3.2,5.9 -5.2,6.4 -4,1 -2.1,1.8 5,1.9 6.3,0.2 8.6,-0.7 4.5,-1.8 -2.4,-0.6 -2.5,-2.8 -0.4,-9 l 1.6,-4.7 h 5.4 c 5.4,0 5.5,0.1 7.1,3.7 2.5,6 2.3,9.5 -0.7,10.4 -1.4,0.4 -2.3,0.8 -2,0.9 1.5,0.6 17,0.4 17,-0.2 C 153,38.4 152.4,38 151.7,38 148.8,38 146,32.8 140.5,17.2 137.3,8.3 134.3,1 133.8,1 c -0.5,0 -1.2,1 -1.7,2.2 z m 2.3,12.5 c 1,3.2 1.8,6 1.7,6.2 0,0.2 -2,0.4 -4.3,0.4 -3.1,-0.1 -4.2,-0.5 -4,-1.4 0.7,-3.2 3.6,-10.9 4.2,-10.9 0.4,0 1.5,2.6 2.4,5.7 z"
       id="path10"
       style="fill:#ffffff;stroke:none;stroke-width:0.1" />
    <path
       d="m 157.4,2.1 c -0.2,0.4 1,0.9 2.6,1.3 l 3,0.5 V 20.5 37 l -2.5,0.6 c -5.4,1.4 -1.8,1.9 12.2,1.8 l 14.7,-0.1 0.9,-3.9 c 1.2,-6.1 0.5,-7.4 -2.1,-3.2 C 183.8,36 179.9,38 174.6,38 169.3,38 169,37 169,20.2 V 4.8 l 3,-1.1 c 1.7,-0.6 3,-1.4 3,-1.7 0,-0.7 -17.1,-0.6 -17.6,0.1 z"
       id="path12"
       style="fill:#ffffff;stroke:none;stroke-width:0.1" />
    <path
       d="m 237.4,2.1 c -0.2,0.4 1,0.9 2.6,1.3 2.8,0.5 3,0.8 3,5.3 -0.1,8.7 -2.6,26.1 -3.9,27.7 -0.7,0.9 -2.2,1.6 -3.2,1.6 -1.1,0 -1.9,0.3 -1.9,0.8 0,0.4 3.4,0.8 7.5,0.8 4.1,0 7.5,-0.3 7.5,-0.6 0,-0.3 -1.4,-1.1 -3,-1.7 l -3.1,-1.2 0.7,-7.8 c 0.3,-4.3 0.9,-10.5 1.3,-13.7 l 0.6,-5.9 5.9,15.4 c 3.2,8.5 6.2,15.8 6.6,16.2 0.4,0.5 3.6,-6.4 7.1,-15.2 3.5,-8.9 6.7,-16.1 7.1,-16.1 0.7,0 1.6,24.7 1,26.8 -0.2,0.7 -1.5,1.5 -2.8,1.8 -4.6,1.2 -2.3,1.9 6.1,1.9 8.5,0 10.7,-0.7 6,-1.9 -3.1,-0.8 -3.2,-1.6 -4,-18.9 l -0.7,-13.8 3.1,-1.2 c 4.6,-1.7 3.8,-2.4 -2.6,-2.2 l -5.8,0.2 -5.9,14.6 c -3.3,8.1 -6.3,14.4 -6.7,14 -0.3,-0.5 -2.8,-6.4 -5.4,-13.3 -2.6,-6.9 -5,-13.1 -5.5,-13.9 -0.8,-1.5 -10.8,-2.3 -11.6,-1 z"
       id="path14"
       style="fill:#ffffff;stroke:none;stroke-width:0.1" />
    <path
       d="m 302.4,2.4 c -9,3.9 -13.7,17.9 -9.1,27.1 1.5,3.1 5.9,7.5 9.2,9.3 4.5,2.3 14,2 19.2,-0.6 8,-4.1 12.2,-14.9 9.3,-23.6 C 329.4,9.8 324.4,4.1 320.3,2.4 316.2,0.6 306.4,0.7 302.4,2.4 Z M 319,4.8 c 8.4,6.3 9.2,22.2 1.6,29.8 -4.3,4.3 -9.3,5.2 -14.2,2.8 -6.2,-3.1 -7.9,-6.3 -8.2,-15.7 -0.2,-7 0.1,-8.8 2,-12.2 4.2,-7.2 12.6,-9.3 18.8,-4.7 z"
       id="path16"
       style="fill:#ffffff;stroke:none;stroke-width:0.1" />
    <path
       d="m 338.3,2.2 c -0.2,0.5 0.5,0.8 1.6,0.8 4.3,0 4.8,2 4.4,16.2 -0.5,17.1 -0.6,17.7 -4.4,18.5 -4.7,0.9 -2.5,1.6 5.6,1.8 7.7,0.1 9.9,-0.8 4.5,-1.8 -3.8,-0.8 -4.1,-2.4 -3.2,-17 L 347.5,8.8 361,24.4 c 7.4,8.5 14.1,15.5 14.8,15.5 C 376.7,40 377,36 377,23.1 377,5 377.5,3 382.1,3 c 1.1,0 1.8,-0.3 1.6,-0.8 -0.6,-0.9 -14.4,-0.8 -15.3,0.1 -0.4,0.4 0.2,0.7 1.4,0.7 4.4,0 5.2,2.3 5.2,15.1 0,6.5 -0.3,11.9 -0.7,11.8 -0.5,0 -6.5,-6.4 -13.4,-14.2 L 348.3,1.5 h -4.7 c -2.7,0 -5,0.3 -5.3,0.7 z"
       id="path18"
       style="fill:#ffffff;stroke:none;stroke-width:0.1" />
    <path
       d="m 388,2.2 c 0,0.5 0.6,0.8 1.4,0.8 0.8,0 2.2,0.7 3,1.6 1.3,1.3 1.6,4.2 1.6,15.9 0,11.7 -0.3,14.6 -1.6,15.9 -0.8,0.9 -2.2,1.6 -3,1.6 -0.8,0 -1.4,0.3 -1.4,0.7 0,0.5 6.6,0.8 14.7,0.7 l 14.7,-0.1 1.8,-4.3 c 2.2,-5.2 1.6,-6.3 -1.4,-2.5 -3.7,4.7 -12.2,7 -16.9,4.5 -1.6,-0.9 -1.9,-2.2 -1.9,-8.5 V 21 h 4.8 c 5.1,0 7.2,1.2 7.2,4.2 0,1 0.5,1.8 1,1.8 0.6,0 1,-3 1,-7 0,-4 -0.4,-7 -1,-7 -0.5,0 -1,0.8 -1,1.8 0,3 -2.1,4.2 -7.2,4.2 H 399 v -7 c 0,-5.8 0.3,-7.1 1.9,-8 4.4,-2.3 13.8,0.3 14.8,4 1,3.6 2.4,2.1 1.7,-1.8 -0.4,-2 -0.8,-3.8 -0.9,-4 C 415.9,1.5 388,1.5 388,2.2 Z"
       id="path20"
       style="fill:#ffffff;stroke:none;stroke-width:0.1" />
    <path
       d="m 432.1,2.4 c -3,1.7 -5,5.2 -5.1,9 0,3.1 4,7.5 12,13.1 2.4,1.6 4.8,3.7 5.3,4.6 1.5,2.4 0,6.6 -2.9,8.5 -2.1,1.4 -3.1,1.5 -6.6,0.5 -3.3,-1 -4.3,-2 -5.7,-5.2 -1.9,-4.7 -3.6,-5.1 -2.7,-0.8 0.3,1.7 0.6,3.9 0.6,4.9 0,2.7 10.7,4.6 15.2,2.7 4.6,-2 6.9,-4.9 7.5,-9.4 0.6,-4.9 -1.4,-7.5 -10.7,-13.6 -3.6,-2.3 -6.7,-5 -6.8,-6 -1.6,-8.5 10.1,-11.7 13.1,-3.7 0.6,1.7 1.5,3 2,3 0.9,0 0.1,-6.6 -0.9,-8.2 C 445.6,0.5 434.7,1 432.1,2.4 Z"
       id="path22"
       style="fill:#ffffff;stroke:none;stroke-width:0.1" />
    <path
       d="m 456.3,3 c -0.3,0.8 -0.9,2.5 -1.4,3.8 -1.6,4.1 -1,4.3 2.5,0.9 2.1,-2.1 4.7,-3.6 7,-4 6.6,-1.1 6.6,-1.2 6.6,16.2 0,16.2 -0.4,18.1 -4.2,18.1 -1,0 -1.8,0.4 -1.8,0.8 0,0.9 16.6,0.9 17.5,0 0.3,-0.3 -0.8,-0.8 -2.5,-1.1 l -3,-0.7 0.2,-16.7 0.3,-16.8 4.5,0.2 c 3.8,0.2 5,0.7 7.8,4 l 3.3,3.7 L 492.4,7 C 492,4.5 491.6,2.3 491.4,2.1 491.2,1.9 483.3,1.7 473.9,1.6 459.5,1.5 456.7,1.7 456.3,3 Z"
       id="path24"
       style="fill:#ffffff;stroke:none;stroke-width:0.1" />
    <path
       d="m 498.3,2.2 c -0.2,0.5 0.5,0.8 1.6,0.8 4.4,0 5.1,2.3 5.1,16.3 0,16.1 -0.4,17.6 -4.2,18.4 -1.6,0.3 -2.6,0.8 -2.3,1.1 0.8,0.8 17.5,1 17.5,0.2 0,-0.3 -1.3,-1.1 -3,-1.7 l -3,-1.1 V 20.5 4.8 l 3,-1.1 c 1.7,-0.6 3,-1.4 3,-1.7 0,-0.8 -17.1,-0.6 -17.7,0.2 z"
       id="path26"
       style="fill:#ffffff;stroke:none;stroke-width:0.1" />
    <path
       d="m 523.3,2.2 c -0.2,0.5 0.4,0.8 1.4,0.8 3.9,0 4.3,1.8 4.3,18.2 V 37 l -3,0.7 c -1.7,0.3 -2.8,0.8 -2.5,1.1 0.9,0.9 17.5,0.9 17.5,0 0,-0.4 -0.8,-0.8 -1.8,-0.8 -3.2,0 -4.2,-2.2 -4.2,-9.3 0,-6.5 0.1,-6.8 2.3,-6.5 1.5,0.2 3.9,2.9 7.7,8.7 l 5.6,8.4 5.2,0.2 c 2.9,0.1 5.2,-0.1 5.2,-0.4 0,-0.3 -1.5,-1.3 -3.3,-2.1 -2.2,-1 -4.6,-3.8 -7.6,-8.7 l -4.3,-7.2 3.6,-3.1 c 3,-2.7 3.6,-3.9 3.6,-7.2 0,-4.6 -3.6,-8.7 -7.9,-8.9 -8.4,-0.5 -21.4,-0.3 -21.8,0.3 z M 545,5 c 1.4,1.4 2,3.3 2,6.5 0,5.9 -2.5,8.5 -8,8.5 h -4 v -7.3 c 0,-4.3 0.5,-7.8 1.2,-8.5 1.9,-1.9 6.6,-1.4 8.8,0.8 z"
       id="path28"
       style="fill:#ffffff;stroke:none;stroke-width:0.1" />
    <path
       d="m 211.6,12.3 c -2.6,1.9 -1.7,5.2 1.4,5.2 1.8,0 2.6,-0.6 2.8,-2.1 0.4,-3 -2,-4.7 -4.2,-3.1 z"
       id="path30"
       style="fill:#ffffff;stroke:none;stroke-width:0.1" />
    <path
       d="m 210.4,24.4 c -1,2.6 0.4,4.8 2.8,4.4 1.7,-0.2 2.3,-1 2.3,-2.8 0,-1.8 -0.6,-2.6 -2.3,-2.8 -1.3,-0.2 -2.5,0.3 -2.8,1.2 z"
       id="path32"
       style="fill:#ffffff;stroke:none;stroke-width:0.1" />
    <path
       d="m 211.2,35.2 c -2.7,2.7 0.5,7.3 3.8,5.3 2,-1.2 0.4,-6.5 -2,-6.5 -0.3,0 -1.1,0.5 -1.8,1.2 z"
       id="path34"
       style="fill:#ffffff;stroke:none;stroke-width:0.1" />
    <path
       d="m 110.2,67.2 c -3,3 0.9,6.9 4.4,4.3 1.5,-1.1 1.7,-1.7 0.8,-3.2 -1.4,-2.3 -3.6,-2.7 -5.2,-1.1 z"
       id="path36"
       style="fill:#ffffff;stroke:none;stroke-width:0.1" />
    <path
       d="m 352,67.9 c -1.4,2.8 1.3,5.5 4.1,4.1 2.2,-1.2 2.5,-3 0.7,-4.8 -1.8,-1.8 -3.6,-1.5 -4.8,0.7 z"
       id="path38"
       style="fill:#ffffff;stroke:none;stroke-width:0.1" />
    <path
       d="m 56,68 c 0,0.3 1.4,1.1 3,1.7 l 3,1.1 v 15.7 15.7 l -3,1.1 c -1.6,0.6 -3,1.4 -3,1.7 0,0.3 6.6,0.5 14.7,0.4 l 14.7,-0.1 1.7,-3.9 c 2.5,-5.7 2.3,-6.2 -1.3,-2.7 -5.2,5 -12.2,6.7 -16.9,4.3 C 67.3,102.1 67,100.8 67,94.5 V 87 h 4.8 c 5.1,0 7.2,1.2 7.2,4.2 0,1 0.5,1.8 1,1.8 0.6,0 1,-3 1,-7 0,-4 -0.4,-7 -1,-7 -0.5,0 -1,0.8 -1,1.8 0,3 -2.1,4.2 -7.2,4.2 H 67 v -6.3 c 0,-8.5 0.7,-9.2 7.7,-9.1 5.2,0.2 6,0.5 8.6,3.5 l 2.8,3.4 -0.7,-4 C 85.1,70.3 84.6,68.4 84.5,68.2 84,67.7 56,67.5 56,68 Z"
       id="path40"
       style="fill:#ffffff;stroke:none;stroke-width:0.1" />
    <path
       d="m 139.9,69.9 c -2.1,2.2 -2.9,3.9 -2.9,6.6 0,5.2 1.2,6.8 8.3,11.3 7.6,4.8 9,6.4 9,10.4 0,4.3 -3.6,7.2 -8.1,6.4 -4.2,-0.6 -6.1,-2.2 -8.1,-6.6 l -1.6,-3.5 -0.3,3.9 c -0.5,5.5 0,6.2 6.1,7.4 10.1,2 16.7,-1.9 16.7,-10 0,-5.5 -1.1,-7 -8.5,-11.7 -7.9,-5 -10,-7.8 -8.5,-11.5 2.1,-5.7 10.6,-5.4 13,0.5 0.7,1.6 1.5,2.9 1.9,2.9 1.1,0 -0.1,-7.4 -1.3,-8.2 -0.6,-0.4 -3.7,-0.8 -6.9,-0.8 -5.1,0 -6.2,0.4 -8.8,2.9 z"
       id="path42"
       style="fill:#ffffff;stroke:none;stroke-width:0.1" />
    <path
       d="m 177.1,82.2 c -6.8,17 -9.3,21.8 -11.6,21.8 -0.8,0 -1.5,0.3 -1.5,0.7 0,0.5 2.9,0.8 6.5,0.9 6.4,0 8.5,-0.8 4.5,-1.9 -2.5,-0.7 -2.5,-3.3 0,-9.1 l 1.9,-4.6 h 5.1 c 4.9,0 5.2,0.1 6.6,3.6 0.8,1.9 1.7,4.9 2.1,6.5 0.5,2.5 0.2,3.1 -1.6,3.6 -4.4,1.1 -1.8,1.9 6.2,1.7 10.1,-0.2 9.9,-0.2 6,-1.9 -3.9,-1.7 -4.2,-2.3 -10.2,-19.2 C 184.9,67 184.9,67 184,67 c -0.4,0 -3.5,6.9 -6.9,15.2 z m 7.7,-0.3 c 1.1,3.3 1.8,6.2 1.4,6.5 -0.7,0.8 -7.7,0.8 -8.4,0 -0.8,-0.7 3.6,-12.4 4.7,-12.4 0.2,0 1.2,2.7 2.3,5.9 z"
       id="path44"
       style="fill:#ffffff;stroke:none;stroke-width:0.1" />
    <path
       d="m 208,68 c 0,0.3 1.4,1.1 3,1.7 2.9,1.1 3,1.3 3,7.6 0,3.5 -0.3,10.6 -0.7,15.7 -0.6,9 -0.7,9.3 -3.5,10.4 -1.5,0.6 -2.8,1.3 -2.8,1.6 0,0.3 3.4,0.6 7.5,0.6 4.1,0 7.5,-0.4 7.5,-0.8 0,-0.5 -0.8,-0.8 -1.8,-0.8 -3.7,0 -4.2,-2 -4.2,-15.7 0,-7.3 0.3,-13.3 0.8,-13.2 0.4,0 6.7,7 14.1,15.5 7.3,8.5 13.7,15.4 14.2,15.4 0.5,0 0.9,-4.4 0.9,-9.8 0,-5.5 0.3,-13.4 0.7,-17.7 0.6,-7.4 0.8,-7.8 3.5,-8.9 1.5,-0.6 2.8,-1.3 2.8,-1.6 0,-0.3 -3.4,-0.5 -7.5,-0.5 -4.1,0 -7.5,0.2 -7.5,0.5 0,0.3 1.4,1.1 3,1.7 l 3,1.1 V 83.6 96.5 L 241.6,94 c -1.3,-1.4 -7.2,-7.9 -13,-14.4 L 218,67.6 h -5 c -2.8,-0.1 -5,0.1 -5,0.4 z"
       id="path46"
       style="fill:#ffffff;stroke:none;stroke-width:0.1" />
    <path
       d="m 256.7,72.2 c -0.8,2.7 -1.3,4.8 -1.1,4.8 0.2,0 1.7,-1.4 3.2,-3.1 1.6,-1.8 4.3,-3.4 6.6,-3.9 6.8,-1.5 7,-1.1 6.8,15.6 -0.1,8.2 -0.2,15.5 -0.2,16.1 0,0.7 -1.1,1.5 -2.5,1.9 -4.7,1.2 -2.5,1.9 6,2 4.7,0 8.5,-0.2 8.5,-0.6 0,-0.3 -1.3,-1.1 -3,-1.7 l -3,-1.1 v -16 c 0,-17.6 0,-17.7 6.3,-16.5 4.7,0.9 6.7,2.1 7.8,5 1.4,3.7 2.2,2.1 1.5,-2.9 L 293,67.5 h -17.4 -17.4 z"
       id="path48"
       style="fill:#ffffff;stroke:none;stroke-width:0.1" />
    <path
       d="m 306.6,83.9 c -6.5,16.1 -8.7,20.1 -11.4,20.1 -0.7,0 -1.2,0.3 -1.2,0.7 0,0.5 2.9,0.8 6.5,0.8 6.5,0 8.4,-0.8 4.4,-1.8 -1.8,-0.5 -2.1,-1.1 -1.6,-3.6 0.4,-1.6 1.3,-4.6 2.1,-6.5 1.5,-3.5 1.6,-3.6 7,-3.6 h 5.4 l 2,5.9 c 2,6 1.6,8.1 -1.5,8.1 -0.7,0 -1.3,0.3 -1.3,0.7 0,0.5 3.8,0.8 8.5,0.9 4.7,0 8.5,-0.2 8.5,-0.5 0,-0.3 -1.5,-1.3 -3.3,-2.1 -3,-1.4 -3.7,-2.8 -9.3,-18.5 -3.4,-9.3 -6.6,-17.1 -7.1,-17.2 -0.5,-0.2 -4,7.3 -7.7,16.6 z m 10.4,4.2 c 0,0.5 -2,0.9 -4.5,0.9 -5.3,0 -5.4,-0.4 -2.3,-8.5 l 2.1,-5.7 2.4,6.2 c 1.3,3.5 2.3,6.6 2.3,7.1 z"
       id="path50"
       style="fill:#ffffff;stroke:none;stroke-width:0.1" />
    <path
       d="m 379,68.2 c 0,0.5 0.6,0.8 1.3,0.8 0.7,0 2.1,0.6 3.1,1.3 1.8,1.3 1.8,1.9 0.2,16.3 -1.8,15.5 -2.5,17.4 -7,17.4 -1,0 -1.6,0.3 -1.3,0.7 0.9,0.9 15.7,1.1 15.7,0.2 0,-0.3 -1.4,-0.9 -3.1,-1.3 l -3.1,-0.6 0.7,-13.2 c 0.7,-12.5 1,-14.7 1.8,-13.7 0.2,0.2 3,7 6.1,15.1 3.2,8.2 6.1,14.8 6.6,14.8 0.5,0 3.7,-7.2 7.2,-16.1 l 6.3,-16.1 0.9,13.3 c 0.9,14.1 0.5,16.2 -3.3,16.7 -1.1,0.2 -2.1,0.7 -2.1,1.1 0,0.3 4.1,0.7 9,0.7 5,0 9,-0.4 9,-0.8 0,-0.4 -0.8,-0.8 -1.9,-0.8 -3.5,0 -4.2,-2.4 -4.8,-18.4 l -0.6,-15.5 2.6,-0.7 c 4.4,-1 3.1,-1.9 -2.8,-1.9 H 414 l -5.6,14 c -3,7.7 -5.9,14.4 -6.4,14.9 -0.4,0.4 -1.1,-0.3 -1.5,-1.5 -0.4,-1.3 -3,-8 -5.6,-14.9 L 390,67.5 h -5.5 c -3,0 -5.5,0.3 -5.5,0.7 z"
       id="path52"
       style="fill:#ffffff;stroke:none;stroke-width:0.1" />
    <path
       d="m 443.6,83.4 c -7.2,17.5 -8.9,20.6 -11.2,20.6 -0.8,0 -1.4,0.3 -1.4,0.7 0,0.5 2.9,0.8 6.5,0.9 6.4,0 8.5,-0.8 4.5,-1.9 -2.6,-0.7 -2.6,-3.9 0,-9.5 1.9,-4.1 2,-4.2 7,-4.2 4.9,0 5.2,0.1 6.6,3.6 0.8,1.9 1.7,4.9 2.1,6.5 0.5,2.5 0.2,3.1 -1.6,3.6 -4.3,1.1 -1.9,1.9 5.8,1.8 4.4,0 8.3,-0.4 8.7,-0.8 0.4,-0.4 -0.2,-0.7 -1.3,-0.7 -3.9,0 -4.9,-1.8 -14.7,-29.3 -1.5,-4.2 -3.1,-7.7 -3.6,-7.7 -0.4,0 -3.7,7.4 -7.4,16.4 z m 8.2,-1.5 c 1.1,3.3 1.8,6.2 1.4,6.5 -0.7,0.7 -7.7,0.8 -8.4,0.1 -0.6,-0.7 3.5,-12.5 4.4,-12.5 0.3,0 1.5,2.7 2.6,5.9 z"
       id="path54"
       style="fill:#ffffff;stroke:none;stroke-width:0.1" />
    <path
       d="m 475,68.2 c 0,0.5 0.6,0.8 1.4,0.8 0.8,0 2.2,0.7 3,1.6 1.3,1.3 1.6,4.2 1.6,15.9 0,11.7 -0.3,14.6 -1.6,15.9 -0.8,0.9 -2.2,1.6 -3,1.6 -0.8,0 -1.4,0.3 -1.4,0.7 0,0.5 3.8,0.8 8.5,0.8 4.7,0 8.5,-0.3 8.5,-0.8 0,-0.4 -0.6,-0.7 -1.4,-0.7 -3.2,0 -4.6,-3 -4.6,-9.6 0,-6.1 0.1,-6.4 2.4,-6.4 2,0 3.5,1.6 7.8,8.7 l 5.4,8.6 5.2,0.2 c 5.9,0.2 7.8,-0.9 3.2,-1.9 -2.3,-0.4 -4,-2.1 -7.6,-7.7 -5.9,-9.3 -5.9,-9.3 -2.9,-10.7 3.5,-1.6 6.2,-7.4 4.9,-10.9 -1.9,-5.4 -5.1,-6.6 -17.8,-6.7 -6.4,0 -11.6,0.2 -11.6,0.6 z m 21.1,2.7 c 1.9,1.5 2.4,2.9 2.4,6.6 0,5.8 -2.7,8.5 -8.6,8.5 H 486 v -7.5 c 0,-6 0.3,-7.6 1.8,-8.4 2.7,-1.6 5.7,-1.3 8.3,0.8 z"
       id="path56"
       style="fill:#ffffff;stroke:none;stroke-width:0.1" />
    <path
       d="m 519,68.2 c 0,0.5 0.6,0.8 1.4,0.8 0.8,0 2.2,0.7 3,1.6 1.3,1.3 1.6,4.2 1.6,15.9 0,11.7 -0.3,14.6 -1.6,15.9 -0.8,0.9 -2.2,1.6 -3,1.6 -0.8,0 -1.4,0.3 -1.4,0.7 0,0.5 3.8,0.8 8.5,0.8 4.7,0 8.5,-0.3 8.5,-0.8 0,-0.4 -0.6,-0.7 -1.4,-0.7 -0.8,0 -2.2,-0.7 -3,-1.6 -1.3,-1.3 -1.6,-4.2 -1.6,-15.9 0,-11.7 0.3,-14.6 1.6,-15.9 0.8,-0.9 2.2,-1.6 3,-1.6 0.8,0 1.4,-0.3 1.4,-0.8 0,-0.4 -3.8,-0.7 -8.5,-0.7 -4.7,0 -8.5,0.3 -8.5,0.7 z"
       id="path58"
       style="fill:#ffffff;stroke:none;stroke-width:0.1" />
    <path
       d="m 555,83.2 c -6.6,16.5 -9,20.8 -11.6,20.8 -0.8,0 -1.4,0.3 -1.4,0.7 0,0.5 3.2,0.8 7,0.9 6.6,0 9.6,-1.1 4.8,-1.8 -1.9,-0.2 -2.3,-0.9 -2.1,-3.3 0,-1.7 0.8,-4.7 1.7,-6.8 1.6,-3.6 1.7,-3.7 7,-3.7 h 5.4 l 2,5.9 c 2,6 1.6,8.1 -1.5,8.1 -0.7,0 -1.3,0.4 -1.3,0.8 0,0.5 3.6,0.8 8,0.8 4.4,-0.1 8,-0.3 8,-0.6 0,-0.3 -1.2,-1.2 -2.7,-2 -2.2,-1.2 -3.7,-4.3 -8.8,-18.4 -3.4,-9.4 -6.5,-17.1 -7.1,-17.3 -0.5,-0.1 -3.8,7 -7.4,15.9 z m 7.9,-2 c 1.2,3.4 2.1,6.6 2.1,7 0,0.4 -2,0.8 -4.5,0.8 -2.5,0 -4.5,-0.4 -4.5,-0.8 0,-1.1 4.1,-13.2 4.5,-13.2 0.2,0 1.3,2.8 2.4,6.2 z"
       id="path60"
       style="fill:#ffffff;stroke:none;stroke-width:0.1" />
    <path
       d="m 10.8,69.5 3.2,1.4 v 15.4 c 0,15.8 -0.4,17.7 -4.2,17.7 -1,0 -1.8,0.4 -1.8,0.8 0,0.5 6.2,0.8 13.8,0.7 15.4,-0.1 20,-1.6 24.3,-7.6 C 50.3,92 49.9,80.4 45.3,75 40.3,69.1 36.7,68 21.3,68 8.5,68.1 7.7,68.2 10.8,69.5 Z m 25.1,2.3 c 4.9,3.6 6.5,6.9 6.9,14 0.3,5.8 0,7.2 -2,10.2 -3.5,5.1 -8.3,8 -13.4,8 C 19.7,104 20,104.7 20,86.9 20,72.9 20.2,71 21.8,70 24.2,68.5 33,69.6 35.9,71.8 Z"
       id="path62"
       style="fill:#ffffff;stroke:none;stroke-width:0.1" />
    <path
       d="m 110.5,78.7 c -1.8,1.8 -1.6,3.2 0.8,4.7 2.1,1.3 5.1,-1.3 4.2,-3.6 -1,-2.4 -3.2,-2.9 -5,-1.1 z"
       id="path64"
       style="fill:#ffffff;stroke:none;stroke-width:0.1" />
    <path
       d="m 352.6,78.6 c -1.2,1.2 -1.3,2 -0.6,3.5 1.2,2.2 3,2.5 4.8,0.7 1.8,-1.8 1.5,-3.6 -0.7,-4.8 -1.5,-0.7 -2.3,-0.6 -3.5,0.6 z"
       id="path66"
       style="fill:#ffffff;stroke:none;stroke-width:0.1" />
    <path
       d="m 110.1,90.4 c -1.6,2 -0.3,4.6 2.4,4.6 1.3,0 2.6,-0.7 2.9,-1.6 0.7,-1.9 -1,-4.4 -2.9,-4.4 -0.7,0 -1.8,0.6 -2.4,1.4 z"
       id="path68"
       style="fill:#ffffff;stroke:none;stroke-width:0.1" />
    <path
       d="m 352.2,90.7 c -1.3,2.6 -0.4,4.3 2.4,4.3 2.9,0 4.1,-2.4 2.4,-4.5 -1.7,-2 -3.7,-1.9 -4.8,0.2 z"
       id="path70"
       style="fill:#ffffff;stroke:none;stroke-width:0.1" />
    <path
       d="m 110.5,101.4 c -2,1.5 -1.5,4.3 1,5.2 1.8,0.7 4.5,-1.2 4.5,-3.2 0,-2.2 -3.5,-3.5 -5.5,-2 z"
       id="path72"
       style="fill:#ffffff;stroke:none;stroke-width:0.1" />
    <path
       d="m 352.6,101.6 c -1.2,1.2 -1.3,2 -0.6,3.5 1.2,2.2 3,2.5 4.8,0.7 1.8,-1.8 1.5,-3.6 -0.7,-4.8 -1.5,-0.7 -2.3,-0.6 -3.5,0.6 z"
       id="path74"
       style="fill:#ffffff;stroke:none;stroke-width:0.1" />
    <path
       d="m 110.2,133.2 c -3,3 0.9,6.9 4.4,4.3 1.5,-1.1 1.7,-1.7 0.8,-3.2 -1.4,-2.3 -3.6,-2.7 -5.2,-1.1 z"
       id="path76"
       style="fill:#ffffff;stroke:none;stroke-width:0.1" />
    <path
       d="m 56,134 c 0,0.3 1.4,1.1 3,1.7 l 3,1.1 v 15.7 15.7 l -3,1.1 c -1.6,0.6 -3,1.4 -3,1.7 0,0.3 6.6,0.5 14.6,0.4 14.5,0 14.7,0 15.9,-2.5 0.7,-1.3 1.6,-3.5 2,-4.9 0.7,-2.4 0.6,-2.4 -2.6,0.7 -5.3,5 -12.3,6.7 -17,4.3 -1.6,-0.9 -1.9,-2.2 -1.9,-8.5 V 153 h 4.8 c 5.1,0 7.2,1.2 7.2,4.2 0,1 0.5,1.8 1,1.8 0.6,0 1,-3 1,-7 0,-4 -0.4,-7 -1,-7 -0.5,0 -1,0.8 -1,1.8 0,3 -2.1,4.2 -7.2,4.2 H 67 v -5.9 c 0,-8.8 0.2,-9.1 7.2,-9.1 5.5,0 6.3,0.3 9,3.2 l 3,3.2 -0.8,-4 c -0.3,-2.1 -0.8,-4 -0.9,-4.2 C 84,133.7 56,133.5 56,134 Z"
       id="path78"
       style="fill:#ffffff;stroke:none;stroke-width:0.1" />
    <path
       d="m 135.4,133.9 c -0.2,0.3 0.9,1 2.6,1.7 l 3,1.3 v 15.4 c 0,15.8 -0.4,17.7 -4.2,17.7 -1,0 -1.8,0.4 -1.8,0.8 0,0.4 4.1,0.8 9,0.8 5,0 9,-0.4 9,-0.8 0,-0.4 -0.8,-0.8 -1.8,-0.8 -3.1,0 -4.2,-2.2 -4.2,-8.2 V 156 h 5 c 8.8,0 14,-4.4 14,-11.7 0,-4.5 -2.2,-8 -5.9,-9.5 -2.5,-1 -23.8,-1.8 -24.7,-0.9 z m 19.9,2.2 c 5.1,2.3 6.4,11.3 2.2,15.4 -1.8,1.8 -3.5,2.5 -6.5,2.5 h -4 v -8.9 c 0,-6.2 0.4,-9.1 1.3,-9.4 2.1,-0.9 4.5,-0.7 7,0.4 z"
       id="path80"
       style="fill:#ffffff;stroke:none;stroke-width:0.1" />
    <path
       d="m 172,134.2 c 0,0.5 0.6,0.8 1.4,0.8 0.8,0 2.2,0.7 3,1.6 1.3,1.3 1.6,4.2 1.6,16.6 v 15 l -3,1.1 c -1.6,0.6 -3,1.4 -3,1.7 0,0.3 6.6,0.5 14.7,0.4 h 14.7 l 1.7,-4 c 2.5,-5.7 2.3,-6.2 -1.3,-2.7 -3.9,3.8 -7.6,5.3 -12.8,5.3 -5,0 -6,-1.8 -6,-10.4 V 153 h 4.8 c 5.1,0 7.2,1.2 7.2,4.2 0,1 0.5,1.8 1,1.8 0.6,0 1,-3 1,-7 0,-4 -0.4,-7 -1,-7 -0.5,0 -1,0.8 -1,1.8 0,3 -2.1,4.2 -7.2,4.2 H 183 v -5.9 c 0,-8.8 0.2,-9.1 7.2,-9.1 5.5,0 6.3,0.3 9,3.2 l 3,3.2 -0.8,-4 c -0.3,-2.1 -0.8,-4 -0.9,-4.2 -0.6,-0.7 -28.5,-0.6 -28.5,0 z"
       id="path82"
       style="fill:#ffffff;stroke:none;stroke-width:0.1" />
    <path
       d="m 210,134.2 c 0,0.4 1,1 2.3,1.4 1.2,0.4 2.5,1.2 2.9,1.8 0.4,0.6 0.8,7.5 0.8,15.3 0,11.5 -0.3,14.4 -1.6,15.7 -0.8,0.9 -2.2,1.6 -3,1.6 -0.8,0 -1.4,0.4 -1.4,0.8 0,1.2 19.7,1.3 25.8,0.1 16.5,-3.2 20.6,-25.3 6.4,-34.1 -3.3,-2 -5.3,-2.4 -18,-2.8 -7.8,-0.3 -14.2,-0.2 -14.2,0.2 z m 25.6,2.7 c 5.9,2.7 8.9,7.9 8.9,15.6 0,10.4 -5.3,16.5 -15,17.3 -8.4,0.7 -8.5,0.6 -8.5,-17.5 0,-15 0.1,-15.4 2.3,-16.3 3.5,-1.4 7.9,-1.1 12.3,0.9 z"
       id="path84"
       style="fill:#ffffff;stroke:none;stroke-width:0.1" />
    <path
       d="m 257.4,133.9 c -0.2,0.3 0.9,1 2.6,1.7 l 3,1.3 v 15.4 c 0,15.8 -0.4,17.7 -4.2,17.7 -1,0 -1.8,0.4 -1.8,0.8 0,0.4 4.1,0.8 9,0.8 5,0 9,-0.4 9,-0.8 0,-0.4 -0.8,-0.8 -1.8,-0.8 -3.2,0 -4.2,-2.2 -4.2,-9.2 0,-5.9 0.2,-6.8 1.8,-6.8 2.3,0 3.8,1.6 9.2,10.5 l 4.3,7.1 h 5.3 c 3,0 5.4,-0.3 5.4,-0.6 0,-0.3 -1.5,-1.2 -3.3,-2 -3,-1.4 -6.4,-5.6 -10.2,-12.6 l -1.7,-3.3 3.6,-3.1 c 2.8,-2.5 3.6,-4 3.6,-6.5 0,-8 -3.4,-9.8 -18.3,-9.9 -6,-0.1 -11.1,0.1 -11.3,0.3 z m 22.3,3.8 c 0.7,0.9 1.3,3.6 1.3,6 0,5.7 -2.5,8.3 -8,8.3 h -4 v -7.3 c 0,-4.5 0.5,-7.8 1.3,-8.6 1.6,-1.7 7.8,-0.7 9.4,1.6 z"
       id="path86"
       style="fill:#ffffff;stroke:none;stroke-width:0.1" />
    <path
       d="m 311.2,149 c -6.4,16.1 -9.2,21 -11.8,21 -0.8,0 -1.4,0.4 -1.4,0.8 0,0.4 3.2,0.8 7,0.8 3.9,0 7,-0.4 7,-0.8 0,-0.4 -0.9,-0.8 -2,-0.8 -3.1,0 -3.4,-2.3 -1.2,-8.2 l 2,-5.3 5.4,-0.3 5.5,-0.3 2.3,6 c 2.3,6.3 2.1,8.1 -1.1,8.1 -1,0 -1.9,0.4 -1.9,0.8 0,0.4 3.8,0.8 8.5,0.8 4.7,0 8.5,-0.2 8.5,-0.6 0,-0.3 -1.5,-1.2 -3.2,-2 -2.9,-1.4 -3.7,-2.9 -9.2,-18.4 -3.4,-9.3 -6.5,-17.1 -7.1,-17.3 -0.5,-0.1 -3.8,6.9 -7.3,15.7 z m 8.2,-0.6 c 0.9,2.7 1.6,5.3 1.6,5.8 0,0.4 -2,0.8 -4.5,0.8 -2.5,0 -4.5,-0.4 -4.5,-1 0,-2.3 4.3,-12.1 5,-11.3 0.4,0.4 1.5,3 2.4,5.7 z"
       id="path88"
       style="fill:#ffffff;stroke:none;stroke-width:0.1" />
    <path
       d="m 342,134 c 0,0.3 1.4,1.1 3,1.7 l 3,1.1 v 15.4 c 0,15.9 -0.4,17.8 -4.2,17.8 -1,0 -1.8,0.3 -1.8,0.8 0,0.4 6.7,0.7 15,0.7 h 14.9 l 1.1,-4.9 c 1,-4.5 0.4,-8 -0.8,-4.7 -1.9,5.5 -9.5,9.2 -15.6,7.7 L 354,169 v -15.8 c 0,-16.5 0.4,-18.2 4.4,-18.2 1,0 1.6,-0.3 1.3,-0.7 -0.8,-0.8 -17.7,-1 -17.7,-0.3 z"
       id="path90"
       style="fill:#ffffff;stroke:none;stroke-width:0.1" />
    <path
       d="m 378.3,134.2 c -0.2,0.5 0.4,0.8 1.4,0.8 3.8,0 4.3,1.9 4.3,17.5 0,15.6 -0.5,17.5 -4.2,17.5 -1,0 -1.8,0.4 -1.8,0.9 0,1.3 24.2,0.7 26.7,-0.7 7.8,-4.3 7,-15.1 -1.5,-18.3 l -2.7,-1 2.7,-1.7 c 3.7,-2.2 5.4,-6.5 4,-9.7 -2.2,-4.7 -5.4,-5.8 -17.4,-5.9 -6,-0.1 -11.2,0.2 -11.5,0.6 z m 21.2,3.3 c 2.7,2.6 3.1,5.4 1.4,8.8 -1.6,3.1 -2.8,3.7 -7.1,3.7 H 390 v -6.9 c 0,-4.6 0.4,-7.1 1.3,-7.4 2.9,-1.2 5.9,-0.5 8.2,1.8 z m 1.9,16.6 c 2.1,1.7 2.6,2.9 2.6,6.5 0,5.7 -3.3,9.4 -8.3,9.4 -4.9,0 -5.7,-1.4 -5.7,-10.2 V 152 h 4.4 c 2.9,0 5.2,0.7 7,2.1 z"
       id="path92"
       style="fill:#ffffff;stroke:none;stroke-width:0.1" />
    <path
       d="m 416.4,133.9 c -0.2,0.3 0.9,1 2.6,1.7 l 3,1.3 v 15.4 c 0,15.8 -0.4,17.7 -4.2,17.7 -1,0 -1.8,0.3 -1.8,0.7 0,0.5 6.7,0.8 15,0.8 h 14.9 l 1.7,-4.3 c 1.7,-4.6 1.3,-6.8 -0.6,-3.2 -1.4,2.7 -8.4,5.9 -12.7,6 -6,0 -6.3,-0.5 -6.3,-9.2 v -7.9 l 4.7,0.3 c 4.2,0.3 5,0.7 6.3,3.3 l 1.5,3 0.3,-3.8 c 0.2,-2 0.2,-5.4 0,-7.5 l -0.3,-3.7 -1.5,3 c -1.3,2.6 -2.1,3 -6.3,3.3 l -4.7,0.3 v -7.5 -7.6 h 6.5 c 6,0 6.6,0.2 8.7,3 3,4.1 3.8,3.8 2.4,-1 l -1.2,-4.1 -13.8,-0.2 c -7.6,-0.1 -14,0 -14.2,0.2 z"
       id="path94"
       style="fill:#ffffff;stroke:none;stroke-width:0.1" />
    <path
       d="m 459.2,135.5 c -3.7,3.1 -4.8,7.4 -3,11.2 0.7,1.5 4.7,5 8.8,7.8 6.8,4.6 7.5,5.3 7.8,8.7 0.4,4.5 -2.4,7.8 -6.6,7.8 -3.7,0 -6.8,-2.3 -9.2,-6.8 l -1.9,-3.7 -0.1,5.1 v 5 l 6,1.2 c 10.7,1.9 17,-2.1 17,-10.9 0,-3.8 -3.3,-7.7 -10,-11.7 -2,-1.1 -4.6,-3.2 -6,-4.7 -2,-2.1 -2.2,-3 -1.4,-5.3 0.5,-1.5 2.2,-3.3 3.7,-4 3.7,-1.8 7.6,0.1 9.9,4.8 l 1.7,3.5 0.1,-4.6 c 0,-5.4 -0.6,-5.9 -8.5,-5.9 -4.3,0 -6,0.5 -8.3,2.5 z"
       id="path96"
       style="fill:#ffffff;stroke:none;stroke-width:0.1" />
    <path
       d="m 10.8,135.5 3.2,1.4 v 15.4 c 0,15.8 -0.4,17.7 -4.2,17.7 -1,0 -1.8,0.4 -1.8,0.9 0,0.5 6.2,0.8 13.8,0.7 15.4,-0.2 20,-1.7 24.3,-7.7 4.2,-5.9 3.8,-17.5 -0.8,-22.9 -5,-5.9 -8.6,-7 -24,-7 -12.8,0.1 -13.6,0.2 -10.5,1.5 z m 25.1,2.3 c 4.9,3.6 6.5,6.9 6.9,14 0.3,5.8 0,7.2 -2,10.2 -3.5,5.1 -8.3,8 -13.4,8 -7.7,0 -7.4,0.7 -7.4,-17.1 0,-15.6 0.1,-16 2.3,-16.9 3.1,-1.4 10.7,-0.3 13.6,1.8 z"
       id="path98"
       style="fill:#ffffff;stroke:none;stroke-width:0.1" />
    <path
       d="m 109.6,145.6 c -0.7,1.9 1,4.4 2.9,4.4 1.9,0 3.6,-2.5 2.9,-4.4 -0.3,-0.9 -1.6,-1.6 -2.9,-1.6 -1.3,0 -2.6,0.7 -2.9,1.6 z"
       id="path100"
       style="fill:#ffffff;stroke:none;stroke-width:0.1" />
    <path
       d="m 110.2,156.2 c -1.6,1.6 -1.5,2.3 0.3,4.2 2.8,2.7 6.9,-1 4.4,-4 -1.4,-1.7 -3.1,-1.8 -4.7,-0.2 z"
       id="path102"
       style="fill:#ffffff;stroke:none;stroke-width:0.1" />
    <path
       d="m 110.5,167.7 c -1.8,1.8 -1.6,3.2 0.8,4.7 2.1,1.3 5.1,-1.3 4.2,-3.6 -1,-2.4 -3.2,-2.9 -5,-1.1 z"
       id="path104"
       style="fill:#ffffff;stroke:none;stroke-width:0.1" />
  </g>
</svg>
