<?xml version="1.0" encoding="UTF-8" standalone="no"?>
<svg
   version="1.0"
   width="512.000000pt"
   height="512.000000pt"
   viewBox="0 0 512.000000 512.000000"
   preserveAspectRatio="xMidYMid meet"
   id="svg22"
   sodipodi:docname="tvgirona.svg"
   inkscape:version="1.1.1 (3bf5ae0d25, 2021-09-20)"
   xmlns:inkscape="http://www.inkscape.org/namespaces/inkscape"
   xmlns:sodipodi="http://sodipodi.sourceforge.net/DTD/sodipodi-0.dtd"
   xmlns="http://www.w3.org/2000/svg"
   xmlns:svg="http://www.w3.org/2000/svg">
  <defs
     id="defs26" />
  <sodipodi:namedview
     id="namedview24"
     pagecolor="#ffffff"
     bordercolor="#666666"
     borderopacity="1.0"
     inkscape:pageshadow="2"
     inkscape:pageopacity="0.0"
     inkscape:pagecheckerboard="0"
     inkscape:document-units="pt"
     showgrid="false"
     inkscape:zoom="0.93457031"
     inkscape:cx="340.79833"
     inkscape:cy="341.33333"
     inkscape:window-width="1680"
     inkscape:window-height="973"
     inkscape:window-x="1920"
     inkscape:window-y="55"
     inkscape:window-maximized="1"
     inkscape:current-layer="svg22" />
  <g
     id="g969">
    <path
       d="M 0,256 V 512 H 256 512 V 256 0 H 256 0 Z M 218.1,66.1 c 36.8,3.7 71.6,19.4 96.4,43.5 7.9,7.7 10.9,12.8 9.9,16.8 -0.3,1.3 -9.4,11.1 -20.3,22 -16,15.9 -20.2,19.6 -22.5,19.6 -2.1,0 -4.6,-1.9 -10.7,-8 -19.6,-19.5 -37.7,-27.5 -65.5,-28.7 -15,-0.7 -25.8,0.6 -37.2,4.3 -15.3,5 -26.4,11.5 -36.5,21.3 -11,10.5 -17.7,21.7 -22.4,36.8 -2.5,8.1 -2.7,10.1 -2.7,25.3 0,15.1 0.3,17.3 2.8,25.4 3.8,12.6 10.6,25.2 17.7,33 24.9,27.1 64.4,39 99.2,30 17.5,-4.5 32.5,-14.6 37.5,-25.1 1.6,-3.4 1.6,-3.5 -0.7,-5.4 -2.2,-1.8 -4.4,-1.9 -35,-1.9 -24,-0.1 -33,-0.4 -34.2,-1.3 -3.6,-2.7 -3.9,-5.2 -3.9,-30.2 0,-25.7 0.5,-29.3 4.5,-30.9 0.9,-0.3 34,-0.6 73.6,-0.6 h 72 l 2.6,2.6 2.6,2.6 -0.6,18.1 c -0.7,25.7 -4.4,39.9 -16.3,62.7 -7.3,14.1 -15.8,25.3 -28.6,37.6 -30.3,29.1 -68.8,42.8 -111.1,39.4 -42.5,-3.4 -76.2,-18.5 -104.3,-46.5 -22.1,-22 -34.7,-44.8 -42,-76 -2.6,-11.2 -2.8,-13.5 -2.8,-33 0,-23.1 1.4,-32.7 7.5,-51 12.3,-36.8 39.5,-68.2 73.8,-85.5 28.5,-14.2 63.6,-20.4 97.2,-16.9 z m 214.4,15.4 c 19.4,5 34.3,19.1 39,37 6.4,24.7 -9.8,50.2 -36.8,58 -7.4,2.1 -22.2,2.1 -30.1,0 -38.5,-10.3 -51.7,-56.5 -23.4,-82 7.7,-6.9 18.4,-12.2 27.8,-13.8 6,-1 18,-0.6 23.5,0.8 z m 35,133 2.5,2.4 v 74.5 74.4 l -3.1,2.6 -3.1,2.6 h -44.9 -45 l -2.4,-2.5 -2.5,-2.4 v -74.6 -74.6 l 2.5,-2.4 2.4,-2.5 h 45.6 45.6 z M 124,427.5 V 446 H 121.5 119 V 427.5 409 h 2.5 2.5 z m 164,0 c 0,17.8 -0.1,18.5 -2,18.5 -1.1,0 -2,-0.7 -2,-1.5 0,-1.2 -0.6,-1.1 -3.2,0.5 -4,2.4 -6,2.5 -9.8,0.5 -8.8,-4.5 -7.7,-20.2 1.6,-24.1 3.3,-1.4 3.9,-1.4 7.5,0.4 l 3.9,1.9 v -7.3 c 0,-6.7 0.2,-7.4 2,-7.4 1.9,0 2,0.7 2,18.5 z m -44.9,-15.8 c -1.5,2.9 -5.9,6.6 -7,5.9 -0.6,-0.4 -0.2,-1.9 1,-4.1 1.5,-2.5 2.8,-3.5 4.5,-3.5 2,0 2.3,0.3 1.5,1.7 z M 93,413 c 0,1.7 -0.7,2 -5,2 H 83 V 430.5 446 H 80.5 78 V 430.5 415 h -5.5 c -4.8,0 -5.5,-0.2 -5.5,-2 0,-1.9 0.7,-2 13,-2 12.3,0 13,0.1 13,2 z m 94,-0.5 c 1,1.2 1,1.8 0,3 -2.5,3 -6.1,0.7 -4.6,-3 0.3,-0.8 1.2,-1.5 1.9,-1.5 0.8,0 2,0.7 2.7,1.5 z m 32.8,1.1 c 0.4,2.7 -2.6,4 -4.6,2 -1.3,-1.3 -1.3,-1.8 -0.2,-3.1 1.8,-2.1 4.4,-1.5 4.8,1.1 z m 136.6,-2 c 0.9,0.3 1.6,1.5 1.6,2.5 0,1.6 -0.5,1.8 -2.7,1.2 -4.4,-1.1 -9.6,-0.7 -13.1,1.1 -4.7,2.4 -6.5,6.7 -6,13.9 0.4,5.2 0.9,6.4 3.6,8.8 3.4,3 8.7,4.5 12.7,3.5 2.2,-0.6 2.5,-1.1 2.5,-5.6 0,-4.8 -0.1,-4.9 -3.2,-5.2 -2.2,-0.2 -3.4,-0.9 -3.6,-2.1 -0.3,-1.5 0.5,-1.7 5.7,-1.7 h 6.1 v 8.4 8.5 l -5.6,1.1 c -10.3,2.2 -18.9,-1.6 -22,-9.5 -3.5,-9.2 0,-19.5 8.1,-23.5 3.9,-2 12.5,-2.7 15.9,-1.4 z m 14.6,1 c 1.1,1.2 1.1,1.8 -0.2,3 -1.8,1.8 -4.8,0.8 -4.8,-1.5 0,-3.3 2.8,-4.2 5,-1.5 z m -261.2,10.7 c 1.8,1.7 4.2,7.2 4.2,9.9 0,0.5 -4,0.8 -9,0.8 -8.4,0 -9,0.1 -9,2 0,1.2 1.1,3.2 2.5,4.6 2.2,2.2 3.3,2.5 7.7,2.2 5.8,-0.3 7.7,1.5 3.3,3.2 -12.9,4.9 -22.9,-8.6 -15.4,-20.8 3.1,-5.3 10.9,-6.2 15.7,-1.9 z m 38.3,-0.8 c 1.4,1 3.9,6.9 3.9,9.5 0,1.9 -0.6,2 -9,2 -8.4,0 -9,0.1 -9,2 0,1.2 1.2,3.3 2.6,4.7 2.3,2.3 3.1,2.5 8,2 4.8,-0.5 5.4,-0.3 5.4,1.3 0,1.5 -1,2 -4.4,2.5 -6,0.9 -11.3,-0.9 -13.7,-4.9 -2.8,-4.4 -2.2,-13.5 1.1,-17.1 3.8,-4 10.3,-4.9 15.1,-2 z m 59.3,-0.5 c 1.4,1.4 -0.4,3.1 -2.6,2.5 -1,-0.4 -3.1,-0.4 -4.4,-0.1 -3.6,0.9 -2.8,4.6 1.4,6.8 5.1,2.5 7.2,4.8 7.2,8 0,5.3 -6.1,8.9 -12.3,7.1 -5.1,-1.4 -4.1,-3.8 1.7,-3.8 3.6,0 5.1,-0.5 6,-1.8 1.2,-2 0.9,-2.4 -6.4,-7 -3,-2 -3.5,-2.8 -3.5,-6.2 0,-3.6 0.4,-4.2 3.4,-5.7 3.3,-1.7 7.5,-1.6 9.5,0.2 z m 38.2,1.1 c 4.7,3.8 5.6,12.9 1.9,18.5 -2.2,3.4 -7.9,5.7 -12.1,5 -12.9,-2.5 -13.5,-22 -0.8,-25.5 3.3,-0.9 8.7,0.1 11,2 z m 66.2,-0.4 c 2.5,1.6 4.2,5.1 4.2,8.9 0,2.4 -0.2,2.4 -8.3,2.4 -4.6,0 -8.6,0.3 -9,0.6 -0.3,0.3 -0.1,1.8 0.4,3.4 1.3,3.5 5.6,5.4 10.9,4.7 4.8,-0.6 6.5,1.8 2.2,3.4 -4.7,1.8 -11.1,0.5 -14.6,-3 -2.8,-2.8 -3.1,-3.8 -3.1,-9 0,-7 2.3,-11 7.6,-12.8 3.7,-1.3 6.1,-0.9 9.7,1.4 z m 79.2,0.2 c 0,1.2 -1,2 -2.8,2.4 -3.8,0.8 -5.2,4.2 -5.2,13.2 0,7.3 -0.1,7.5 -2.5,7.5 H 378 v -12.5 c 0,-11.9 0.1,-12.5 2,-12.5 1.1,0 2.3,0.7 2.7,1.5 0.5,1.4 0.8,1.4 2.2,0.2 3.4,-3 6.1,-2.9 6.1,0.2 z m 22.9,1.2 c 5.1,5.1 5.1,13.8 -0.1,18.9 -10.2,10.3 -25.6,-2.2 -19.2,-15.5 3.6,-7.6 13.4,-9.3 19.3,-3.4 z m 24.8,-3.1 c 4.8,1.7 6.3,5.5 6.3,15.9 0,9 0,9.1 -2.5,9.1 -2.5,0 -2.5,0 -2.5,-9.4 0,-8.7 -0.2,-9.6 -2.2,-11 -3.1,-2.2 -4.5,-2 -7.3,0.9 -2.3,2.2 -2.5,3.2 -2.5,11 0,7.8 -0.2,8.5 -2,8.5 -1.9,0 -2,-0.7 -2,-10.3 0,-5.6 -0.3,-11.2 -0.6,-12.5 -0.5,-1.8 -0.2,-2.2 1.5,-2.2 1.5,0 2.1,0.6 2.1,2.2 0,2 0.1,2 1.8,0.5 0.9,-0.9 2.9,-2 4.2,-2.6 1.4,-0.5 2.5,-1 2.6,-1 0.1,-0.1 1.4,0.4 3.1,0.9 z m 26.1,0.5 c 3.7,1.1 5.2,5.4 5.2,15.5 0,8.3 -0.1,9 -2,9 -1.2,0 -2,-0.7 -2,-1.7 0,-1.4 -0.2,-1.4 -2.1,0.3 -3.1,2.8 -9.6,2.5 -12,-0.5 -4.4,-5.4 0,-12.4 8.4,-13.6 3.6,-0.6 4.7,-1.2 4.7,-2.5 0,-2.9 -2.6,-4.2 -7.6,-3.8 -5.9,0.4 -7,-1.6 -1.7,-3 3.8,-1 4.8,-0.9 9.1,0.3 z m -304.9,1.7 c 0.4,1.3 2,5.8 3.6,10.2 l 2.8,7.8 3.3,-9.8 c 1.9,-5.3 3.6,-9.9 3.8,-10.2 0.2,-0.2 1.3,-0.2 2.5,0 1.9,0.3 1.8,0.9 -2.7,12.3 -4.2,10.5 -5.1,12 -7.2,12.3 -2.3,0.3 -2.8,-0.4 -5.1,-7 -1.5,-4 -3.6,-9.7 -4.8,-12.6 L 154,421 h 2.5 c 1.7,0 2.8,0.7 3.4,2.2 z M 187,433.5 V 446 H 184.5 182 V 433.5 421 h 2.5 2.5 z m 32,0 c 0,11.8 -0.1,12.5 -2,12.5 -1.9,0 -2,-0.7 -2,-12.5 0,-11.8 0.1,-12.5 2,-12.5 1.9,0 2,0.7 2,12.5 z m 152,0 V 446 h -2.5 -2.5 v -11.8 c 0,-6.5 0.3,-12.2 0.7,-12.5 0.3,-0.4 1.5,-0.7 2.5,-0.7 1.6,0 1.8,1 1.8,12.5 z"
       id="path2"
       style="fill:#ffffff;stroke:none;stroke-width:0.1;fill-opacity:1" />
    <path
       d="m 387.7,228.8 c -1.9,2.1 -2.3,8.9 -0.6,12.5 1.8,4 3.5,4.6 31.3,11.7 8.1,2.2 15,4.1 15.3,4.4 0.3,0.3 -0.8,0.8 -2.3,1.1 -1.6,0.4 -11.4,2.9 -21.9,5.6 -15.6,4 -19.4,5.3 -21.2,7.5 -2.3,2.5 -2.3,2.5 -2.3,41 0,37.1 0.1,38.5 2,40.4 2,2 7.4,2.7 9.6,1.2 2.4,-1.6 3.4,-5.4 3.4,-13.1 0,-7.4 0.2,-8.1 2.6,-10 2.5,-2 3.9,-2.1 24,-2.1 h 21.3 l 2,-2.6 c 3.1,-4 2.4,-11.2 -1.3,-13.6 -0.6,-0.4 -10.6,-0.8 -22.2,-0.8 -19.8,0 -21.3,-0.1 -23.8,-2.1 -2.5,-1.9 -2.6,-2.5 -2.6,-11 0,-11.2 1.3,-14.1 7.2,-16.3 2.4,-0.8 12.2,-4 21.9,-7.1 12.6,-4 18.2,-6.2 19.9,-8 4.4,-4.7 3.6,-18.1 -1.3,-20.7 -2.1,-1.1 -57.6,-19.8 -58.8,-19.8 -0.3,0 -1.3,0.8 -2.2,1.8 z"
       id="path4"
       style="fill:#ffffff;stroke:none;stroke-width:0.1;fill-opacity:1" />
    <path
       d="m 272.8,426 c -3.1,2.4 -4,6.5 -2.7,11.4 1.1,3.8 3.3,5.6 7.2,5.6 4,0 6.2,-3.5 6.2,-9.7 0,-4.5 -0.4,-5.8 -2.4,-7.4 -3,-2.4 -5.2,-2.4 -8.3,0.1 z"
       id="path6"
       style="fill:#ffffff;stroke:none;stroke-width:0.1;fill-opacity:1" />
    <path
       d="m 99.4,424.8 c -1.1,0.7 -3.4,4.5 -3.4,5.6 0,0.3 2.9,0.6 6.5,0.6 5.1,0 6.5,-0.3 6.5,-1.5 0,-3.7 -6.4,-6.9 -9.6,-4.7 z"
       id="path8"
       style="fill:#ffffff;stroke:none;stroke-width:0.1;fill-opacity:1" />
    <path
       d="m 136.8,425.7 c -3.8,4.5 -3.2,5.3 3.7,5.3 5.7,0 6.5,-0.2 6.5,-1.8 0,-4.5 -7.2,-6.9 -10.2,-3.5 z"
       id="path10"
       style="fill:#ffffff;stroke:none;stroke-width:0.1;fill-opacity:1" />
    <path
       d="m 233,426 c -3.7,3.7 -3.9,11.3 -0.3,15.2 2.5,2.8 7.7,2.3 10.3,-1 1.8,-2.2 2.1,-3.6 1.7,-7.6 -0.7,-7.7 -7,-11.3 -11.7,-6.6 z"
       id="path12"
       style="fill:#ffffff;stroke:none;stroke-width:0.1;fill-opacity:1" />
    <path
       d="m 301,426 c -3.8,3.8 -2.7,5 4.5,5 h 6.5 l -1.1,-2.7 c -0.6,-1.5 -1.6,-3.1 -2.2,-3.5 -2.2,-1.4 -5.7,-0.8 -7.7,1.2 z"
       id="path14"
       style="fill:#ffffff;stroke:none;stroke-width:0.1;fill-opacity:1" />
    <path
       d="m 400.5,426.5 c -4.9,4.8 -2.1,16.5 4,16.5 3.7,0 5.5,-1 7,-4.1 5,-9.5 -3.9,-19.5 -11,-12.4 z"
       id="path16"
       style="fill:#ffffff;stroke:none;stroke-width:0.1;fill-opacity:1" />
    <path
       d="m 460.1,434 c -3.9,0.9 -5.2,2.5 -4.9,6 0.2,2 0.9,2.6 3.4,2.8 4.1,0.4 6.4,-2 6.4,-6.4 0,-1.9 -0.3,-3.4 -0.7,-3.3 -0.5,0.1 -2.3,0.5 -4.2,0.9 z"
       id="path18"
       style="fill:#ffffff;stroke:none;stroke-width:0.1;fill-opacity:1" />
  </g>
</svg>
