<?xml version="1.0" encoding="UTF-8" standalone="no"?>
<svg
   version="1.0"
   width="1200.000000pt"
   height="1200.000000pt"
   viewBox="0 0 1200.000000 1200.000000"
   preserveAspectRatio="xMidYMid meet"
   id="svg8"
   sodipodi:docname="logo-upc.svg"
   inkscape:version="1.1.1 (3bf5ae0d25, 2021-09-20)"
   xmlns:inkscape="http://www.inkscape.org/namespaces/inkscape"
   xmlns:sodipodi="http://sodipodi.sourceforge.net/DTD/sodipodi-0.dtd"
   xmlns="http://www.w3.org/2000/svg"
   xmlns:svg="http://www.w3.org/2000/svg">
  <defs
     id="defs12" />
  <sodipodi:namedview
     id="namedview10"
     pagecolor="#ffffff"
     bordercolor="#666666"
     borderopacity="1.0"
     inkscape:pageshadow="2"
     inkscape:pageopacity="0.0"
     inkscape:pagecheckerboard="0"
     inkscape:document-units="pt"
     showgrid="false"
     inkscape:zoom="0.39375"
     inkscape:cx="800"
     inkscape:cy="895.2381"
     inkscape:window-width="1680"
     inkscape:window-height="973"
     inkscape:window-x="1920"
     inkscape:window-y="55"
     inkscape:window-maximized="1"
     inkscape:current-layer="svg8" />
  <g
     id="g54">
    <path
       d="M 581.5,0.6 C 519.3,3.3 462.6,13.8 407,32.8 258.7,83.6 134.2,192.5 64.1,332.9 28.5,404.2 8.5,476.3 1.9,558 c -1.5,18.7 -1.5,70.3 0,89 10.8,132.9 59.6,249.9 146.5,351 11.6,13.5 45.1,47 58.6,58.6 89,76.5 191.6,123.9 305.5,141.4 12.1,1.8 18.1,2 90,2 85.2,0 82,0.2 118.5,-7.1 236.8,-46.9 425,-235.1 471.9,-471.9 7.3,-36.5 7.1,-33.3 7.1,-118.5 0,-71.9 -0.2,-77.9 -2,-90 -15.9,-103.9 -58.2,-201.4 -122.9,-283 C 970,96.7 815.8,14.6 648,2.1 632.8,0.9 593.7,0.1 581.5,0.6 Z M 412.2,171.4 c 17.5,3.4 33.2,12 46,25.4 17.1,17.9 24.8,38.9 23.5,64.5 -1.5,31.8 -20.5,59.6 -50.3,73.3 -22.6,10.5 -51.5,9.9 -74,-1.4 -46.6,-23.4 -62,-82.7 -32.6,-125.9 12.4,-18.3 33.2,-31.9 55.3,-36.2 7,-1.4 24.1,-1.2 32.1,0.3 z m 209,0 c 16.4,3.2 30.6,10.6 43,22.4 24.4,23.3 32.9,57.1 22.6,89.2 -9,28.1 -32.9,50 -62,57 -11.4,2.7 -28.3,2.7 -39.8,0 -24.9,-6 -46.3,-23.3 -57.5,-46.3 -6,-12.5 -7.6,-19 -8.2,-33.8 -1.2,-26.7 7.3,-47.7 26.6,-66.1 12,-11.6 27.4,-19.6 43.2,-22.7 7,-1.4 24.1,-1.2 32.1,0.3 z m 212.8,2.1 c 14.9,4.8 25.5,11.2 35.9,21.6 16.5,16.4 25.2,37.6 25.2,60.7 0,16.1 -2.2,25.3 -9.2,39.3 C 861,345 793.3,357.9 752,320.6 725.1,296.3 715.8,259 728.5,225.5 c 8.2,-21.9 27.3,-41.3 49,-49.6 12.3,-4.8 19.2,-5.9 34.5,-5.5 11.4,0.3 14.8,0.8 22,3.1 z m -420.5,202 c 38.1,7.9 66.4,40.8 68.2,79.2 1.3,25.6 -6.4,46.6 -23.5,64.5 -42.3,44.3 -115,32 -140.8,-23.7 -5.8,-12.5 -7.7,-22.8 -7.1,-38.5 0.5,-15.6 2,-21.8 8.1,-34.5 11.5,-23.9 33.6,-41.4 59.6,-46.9 8.8,-1.9 26.4,-1.9 35.5,-0.1 z m 209.3,0.1 c 39.7,8.1 68.2,43.5 68.2,84.5 0,23.9 -9.3,45.3 -26.8,62.1 -33.5,32 -84.9,32 -118.4,0 -19.2,-18.4 -27.7,-39.4 -26.5,-66.1 0.6,-14.8 2.2,-21.3 8.2,-33.8 11.5,-23.6 33.7,-41.2 59,-46.6 9.4,-2.1 26.7,-2.1 36.3,-0.1 z m 208.7,0.9 c 9.2,2.5 23.3,9.7 31.4,16.1 15.4,12 27.4,31.8 31.1,51.4 1.8,9.3 1.4,25.8 -0.9,35.5 -12.3,51.5 -66.3,79.6 -116.2,60.4 -20.6,-7.9 -39.9,-27.3 -48,-48.3 -10.7,-27.8 -6.8,-59 10.3,-82.1 13.4,-18 31.9,-29.9 53.9,-34.5 6.7,-1.4 31.4,-0.5 38.4,1.5 z M 412.8,584.6 c 17.9,3.7 32.7,11.9 45.4,25.2 17.1,17.9 24.8,38.9 23.5,64.5 -1.5,31.8 -20.5,59.6 -50.3,73.3 -22.6,10.5 -51.5,9.9 -74,-1.4 -17,-8.5 -30.8,-22.6 -39,-39.7 -6.1,-12.7 -7.6,-18.9 -8.1,-34.5 -0.4,-11.4 -0.2,-14.9 1.6,-22.3 7.8,-32.8 34.4,-58.7 67.1,-65.2 9.1,-1.8 24.7,-1.8 33.8,0.1 z m 208.9,0 c 16.9,3.5 30.1,10.4 42.5,22.2 44.4,42.4 32.1,115 -23.8,140.8 -23.1,10.7 -52.6,9.9 -75.1,-2.1 -17.3,-9.2 -29.5,-21.8 -37.8,-38.8 -6,-12.5 -7.6,-19 -8.2,-33.8 -1.1,-25.3 5.9,-44.3 23.1,-62.6 12.6,-13.4 28.5,-22.4 45.6,-25.8 9.1,-1.8 24.7,-1.8 33.7,0.1 z m 203.5,-0.2 c 40.5,7.8 70,43.3 69.9,84.4 0,16.1 -2.2,25.3 -9.2,39.3 -25.5,51.2 -95.2,63 -136.5,23.2 -41.6,-40.1 -32.8,-108.8 17.6,-137.5 16.7,-9.4 39,-13.1 58.2,-9.4 z m 26.7,242.5 c 4.1,1.2 10.8,3.7 14.8,5.6 l 7.3,3.4 v 26.1 26.1 l -6.2,-4.4 C 855.9,875.2 848.7,873 834.1,873 c -22,0.1 -39.3,10 -47.5,27.4 -4.8,10.1 -6.1,16.5 -6,29.1 0.1,9.2 0.5,12.3 2.7,18.8 3.2,9.1 6.4,14.6 12.1,20.5 11.2,11.7 26.6,16.5 45.6,14.2 9.4,-1.2 17.6,-4.5 27.2,-11 l 5.8,-4 -0.2,26.2 -0.3,26.3 -8.5,3.6 c -12,5.1 -19.8,6.9 -33,7.6 -23.6,1.2 -47.1,-4.7 -64.5,-16.2 -8,-5.3 -19.7,-16.6 -25.1,-24.1 -14.2,-19.8 -21.2,-47.8 -18.5,-73.9 4.7,-47 34.9,-81.9 79.1,-91.6 12.1,-2.7 38.2,-2.1 48.9,1 z M 381,893.3 c 0,75.7 -0.3,72.8 8.5,81.4 4.1,4 6.7,5.6 11.1,6.9 14.7,4.2 29.7,-2 35.5,-14.8 l 2.4,-5.3 0.3,-66.8 0.3,-66.7 h 29.5 29.6 l -0.5,70.2 c -0.5,79 -0.4,78.5 -7.9,93.7 -7.5,15.5 -22.9,28.1 -41.5,34.1 -13.3,4.3 -22.9,5.3 -43.6,4.7 -21.8,-0.6 -30.5,-2.5 -44.7,-9.4 -12.8,-6.3 -25,-18.1 -30.3,-29.3 -7.2,-15.1 -7,-12.4 -7.4,-92.3 L 321.9,828 h 29.5 29.6 z m 262.8,-63.8 c 16.9,3.4 31.8,13.8 39.5,27.6 9.3,16.9 11.9,42.4 6.1,61.9 -4.1,14.2 -14.7,28 -26.6,34.8 -10.5,6.1 -18.4,7.4 -45,8 l -23.8,0.4 v 32.4 32.4 H 568.5 543 V 927.5 828 h 46.5 c 37.8,0 48,0.3 54.3,1.5 z"
       id="path2"
       style="fill:#ffffff;stroke:none;stroke-width:0.1" />
    <path
       d="m 595,895 v 23 h 12.3 c 14.1,0 18.4,-1 23.2,-5.1 8.4,-7.4 9.4,-26.6 1.7,-35.3 -3.9,-4.4 -8.9,-5.6 -23.4,-5.6 H 595 Z"
       id="path4"
       style="fill:#ffffff;stroke:none;stroke-width:0.1" />
  </g>
</svg>
