<?xml version="1.0" encoding="UTF-8" standalone="no"?>
<svg
   version="1.0"
   width="489.17661pt"
   height="499.31918pt"
   viewBox="0 0 489.17661 499.31918"
   preserveAspectRatio="xMidYMid meet"
   id="svg140"
   sodipodi:docname="logo-jornades-violencia-dones.svg"
   inkscape:version="1.1.1 (3bf5ae0d25, 2021-09-20)"
   xmlns:inkscape="http://www.inkscape.org/namespaces/inkscape"
   xmlns:sodipodi="http://sodipodi.sourceforge.net/DTD/sodipodi-0.dtd"
   xmlns="http://www.w3.org/2000/svg"
   xmlns:svg="http://www.w3.org/2000/svg">
  <defs
     id="defs144" />
  <sodipodi:namedview
     id="namedview142"
     pagecolor="#ffffff"
     bordercolor="#666666"
     borderopacity="1.0"
     inkscape:pageshadow="2"
     inkscape:pageopacity="0.0"
     inkscape:pagecheckerboard="0"
     inkscape:document-units="pt"
     showgrid="false"
     fit-margin-top="0"
     fit-margin-left="0"
     fit-margin-right="0"
     fit-margin-bottom="0"
     inkscape:zoom="0.68478261"
     inkscape:cx="132.88889"
     inkscape:cy="497.23809"
     inkscape:window-width="1680"
     inkscape:window-height="973"
     inkscape:window-x="1920"
     inkscape:window-y="55"
     inkscape:window-maximized="1"
     inkscape:current-layer="svg140" />
  <g
     id="g525">
    <path
       d="m 230.17659,3.6 c 0,1.8 0.3,6.1 0.6,9.5 0.6,5.6 0.9,6.1 3,6.1 2.1,0 2.4,-0.5 2.4,-3.5 0,-1.9 0.4,-3.5 0.9,-3.5 0.6,0 2.2,1.6 3.7,3.5 2.4,3.2 5.2,4.4 6.7,2.9 0.3,-0.3 -0.3,-2 -1.4,-3.8 -1.9,-3.2 -1.9,-3.3 0.1,-5.1 2.4,-2.2 2.6,-5.8 0.4,-7.9 -1.1,-1.2 -3.6,-1.6 -9,-1.6 h -7.4 z m 12.5,2.1 c 0,1.5 -0.8,2.1 -2.9,2.3 -3.3,0.4 -5.1,-1 -4.2,-3.3 0.9,-2.5 7.1,-1.6 7.1,1 z"
       id="path4"
       style="fill:#ffffff;stroke:none;stroke-width:0.1" />
    <path
       d="m 260.97659,9.3 c -0.3,5.2 -0.5,9.5 -0.4,9.6 0.1,0.1 3.4,0.5 7.4,0.8 6.9,0.7 7.2,0.7 7.2,-1.4 0,-1.5 -0.6,-2.1 -2.2,-2.1 -3.9,0 -6.8,-1.2 -6.8,-2.6 0,-1 1.3,-1.4 4,-1.4 3.3,0 4,-0.3 4,-1.9 0,-1.6 -0.8,-2 -3.7,-2.3 -2.5,-0.2 -3.8,-0.8 -3.8,-1.8 0,-1.1 1.2,-1.3 5.3,-1.1 4.1,0.2 5.2,-0.1 5.2,-1.3 0,-2.1 -0.7,-2.3 -8.6,-3.1 l -7.1,-0.7 z"
       id="path6"
       style="fill:#ffffff;stroke:none;stroke-width:0.1" />
    <path
       d="m 202.37659,4.2 c -6.2,3.8 -6.6,11.6 -0.9,15.1 3.7,2.2 11,2.5 14.7,0.6 2.1,-1.1 2.4,-1.9 2.2,-4.7 -0.5,-4.5 -1.2,-5.2 -5,-4.4 -3.5,0.7 -4.2,2.7 -1.5,4.2 1.5,0.9 1.4,1 -0.4,1.6 -2.9,0.9 -7,-0.9 -7.8,-3.5 -1.1,-3.4 2.6,-6.4 7.8,-6.4 3.5,0 4.2,-0.3 4.2,-2 0,-3 -8.7,-3.3 -13.3,-0.5 z"
       id="path8"
       style="fill:#ffffff;stroke:none;stroke-width:0.1" />
    <path
       d="m 289.37659,5.4 c -2.4,2.4 -1.4,6.6 2.3,9.4 1.9,1.4 3.5,3.3 3.5,4 0,1.8 -0.4,1.7 -4.1,-0.1 -3.2,-1.7 -4.9,-1.3 -4.9,1.1 0,1.7 5.8,4.4 9.2,4.4 3.5,-0.1 5.8,-2.4 5.8,-5.9 0,-2.4 -0.7,-3.6 -3.5,-5.3 -1.9,-1.3 -3.5,-2.9 -3.5,-3.6 0,-1.5 1.5,-1.5 3.9,0 2.2,1.3 5.5,0.4 4.9,-1.5 -1.1,-3.2 -11.1,-5 -13.6,-2.5 z"
       id="path10"
       style="fill:#ffffff;stroke:none;stroke-width:0.1" />
    <path
       d="m 172.27659,18.1 c -1.2,4.9 -2.1,9.6 -2.1,10.5 0,2.4 2.3,2 4.8,-0.8 2.3,-2.7 8.7,-4.5 10.4,-2.8 1.1,1.1 4.8,0.4 4.8,-1 0,-1.5 -13.1,-14.8 -14.6,-14.8 -0.7,0 -2.1,3.5 -3.3,8.9 z m 6.7,3.2 c -2.9,0.7 -3.1,0.5 -2.3,-2.1 0.7,-2.1 0.7,-2.1 2.7,-0.3 2,1.8 2,1.8 -0.4,2.4 z"
       id="path12"
       style="fill:#ffffff;stroke:none;stroke-width:0.1" />
    <path
       d="m 315.97659,11.2 c -3,1.8 -2.2,6 1.9,10.2 3.1,3.2 3.4,3.8 1.9,4.4 -1,0.4 -2.5,-0.1 -3.6,-1.1 -2.1,-1.9 -5,-1.4 -5,0.9 0,3.8 11.3,6.1 14.4,3 2.4,-2.4 2,-4.1 -2.6,-9.1 l -4.3,-4.6 3,0.7 c 1.7,0.4 4,1 5.3,1.3 1.6,0.4 2.2,0.1 2.2,-1.1 0,-3.5 -9.6,-6.8 -13.2,-4.6 z"
       id="path14"
       style="fill:#ffffff;stroke:none;stroke-width:0.1" />
    <path
       d="m 339.37659,27.5 c -3,7.6 -3.1,8.3 -1.5,9.4 0.9,0.7 2,1.3 2.4,1.3 0.4,0 2.3,-3.9 4.4,-8.6 2.9,-6.9 3.4,-8.8 2.3,-9.5 -3.1,-2 -4.3,-0.8 -7.6,7.4 z"
       id="path16"
       style="fill:#ffffff;stroke:none;stroke-width:0.1" />
    <path
       d="m 135.67659,23.6 c -1.8,1.3 -1.8,1.5 0.5,7.1 2.6,6.4 2,9 -2.1,9 -1.9,0 -3,-1.2 -5.2,-5.3 -2.8,-5.2 -4,-6 -6.6,-4.3 -1.3,0.8 -1.2,1.6 0.5,5.2 3.3,7.4 6,9.9 10.6,9.9 3.2,0 4.7,-0.7 7.4,-3.4 1.9,-1.9 3.4,-4.2 3.4,-5.3 0,-2.1 -5.1,-14.3 -6,-14.3 -0.4,0 -1.5,0.6 -2.5,1.4 z"
       id="path18"
       style="fill:#ffffff;stroke:none;stroke-width:0.1" />
    <path
       d="m 235.37659,26.3 c -8.1,4.1 -12.2,11.3 -12.2,21.4 0,6.3 2.7,12.2 8.5,18.8 4.9,5.6 5.3,7.7 3,13.5 -3.3,7.7 -11.8,14.1 -23.4,17.6 -7,2.1 -13.1,5.7 -17,10.1 -7.2,8.2 -8.2,15.3 -7.9,53 0.2,28.2 0.1,30.4 -1.9,36.5 -1.1,3.6 -2.6,10.5 -3.2,15.5 -1.5,11.9 -3.1,42.6 -3.1,59 0,12.2 0.2,13.3 2.1,15.1 1.2,1 2.5,2.9 3,4.2 0.7,1.9 1.5,2.3 4.1,2 2.1,-0.2 3.6,-1 4.3,-2.4 0.6,-1.2 1.6,-2.8 2.2,-3.5 0.6,-0.8 1.6,-5.1 2.2,-9.7 0.9,-7.1 0.8,-8.7 -0.5,-10.7 -1.8,-2.7 -1.2,-7 3.7,-27 3.2,-13.2 4.9,-28.3 4.9,-44.5 0,-5.8 0.7,-15 1.5,-20.4 0.8,-5.5 1.5,-12.6 1.5,-15.8 0,-3.2 0.4,-5.8 0.9,-5.8 0.4,0 2.2,7.1 3.9,15.7 5.8,29.5 5.7,26.4 2.2,43.5 -1.8,8.4 -4.5,20.5 -6,26.8 -1.6,6.3 -4.5,20.3 -6.5,30.9 -2,10.7 -4.9,25.7 -6.5,33.3 -1.7,7.6 -3,14.8 -3,15.8 0,1.8 0.7,2 9.4,2 10.7,0 10.6,-0.1 10.6,9.8 0,2.9 1.4,10.8 3.1,17.5 3.8,14.7 4.6,25.9 2.9,36.4 -2.6,15.3 -1.2,44.4 2.9,62.7 1,4.5 2.6,12.7 3.6,18.2 1.7,9.6 1.7,10.5 0.1,14.3 -0.9,2.3 -3.4,6.5 -5.6,9.2 -2.2,2.8 -4,5.4 -4,5.8 0,1.2 8.4,4.5 10.5,4.2 3.1,-0.5 8.4,-4.9 9.1,-7.7 0.4,-1.4 2.3,-3.6 4.4,-4.9 l 3.7,-2.4 0.6,-13.8 c 0.3,-7.6 1.5,-19.4 2.7,-26.3 1.9,-11.2 2.1,-14.8 1.6,-33.5 -0.3,-11.6 -0.9,-24.6 -1.2,-29 -0.5,-6.5 0,-11.3 2.6,-25.4 1.7,-9.6 3.4,-21.4 3.7,-26.3 l 0.6,-8.9 5.6,0.3 5.5,0.3 0.8,4 c 0.3,2.2 1.4,8.7 2.3,14.5 0.9,5.8 2.3,12.9 3.1,15.9 0.7,3 1.9,10.2 2.4,16.1 0.9,8.9 0.8,12.2 -0.5,20.1 -1.8,10 -1.6,15.3 1.1,31.4 2.2,12.6 6.3,35.3 7,38 0.3,1.2 1.3,8.3 2.2,15.6 l 1.7,13.4 2.8,0.3 c 1.8,0.2 3.2,1.2 3.9,2.7 0.7,1.6 2.7,2.9 6,4 4.7,1.5 5.1,1.5 8.1,-0.3 1.8,-1 3.3,-2.5 3.5,-3.3 0.1,-0.7 -2,-4 -4.8,-7.2 -6.6,-7.8 -6.6,-8.5 -0.5,-40.7 4,-20.9 4.1,-32.5 0.5,-50.5 -1,-5 -2.4,-14 -3,-20 -1.1,-10 -1,-12.1 0.9,-23.3 1.2,-6.8 2.1,-16.6 2.1,-21.8 v -9.4 h 8.1 c 7.2,0 8,-0.2 7.5,-1.8 -0.3,-0.9 -2.8,-10.5 -5.5,-21.2 -2.8,-10.7 -7.8,-29.2 -11.1,-41 -3.2,-11.8 -8.5,-30.9 -11.6,-42.5 l -5.6,-21 1.1,-19 c 0.7,-10.4 1.5,-21 1.8,-23.5 l 0.6,-4.5 1.4,5.5 c 0.8,3 3.3,11.3 5.5,18.5 3.9,12 4.2,14.2 4.9,28.5 0.7,14.1 1.1,16.8 4.9,29.5 4,13.6 4.1,14.5 4.4,30.5 0.3,17.7 1.5,24.4 4.4,23.8 1.2,-0.2 1.8,-1.5 2,-4.1 0.3,-3.6 1.8,-5 2.7,-2.5 0.2,0.7 0.7,3.7 0.9,6.7 0.3,2.9 0.9,5.8 1.4,6.3 1.8,1.8 4.1,-0.5 5.2,-5.4 1.3,-5 1.1,-9 -1,-22.3 -0.7,-4.4 -0.9,-12.9 -0.5,-23 0.8,-19.2 -1,-36.3 -5.4,-53.5 -2.9,-11.4 -4.8,-22.3 -7.6,-43.5 -2,-15.8 -5,-28 -8.4,-33.9 -3.3,-5.9 -8.3,-9 -17.1,-10.6 -12.9,-2.4 -24.9,-8.9 -27.1,-14.7 -2.1,-5.6 -1.3,-10.7 3.1,-20.2 3.9,-8.7 4.2,-9.7 3.8,-16.5 -0.4,-8.5 -3.2,-13.6 -10.1,-18.2 -5.8,-3.9 -15.3,-4.5 -21.5,-1.3 z m 26.9,73.4 c 9.8,3.4 20.2,14.2 23.5,24.4 2.6,7.9 2.3,18.9 -0.6,26.6 -3.2,8.4 -13.2,18.3 -21.4,21.4 -12.4,4.6 -24.2,3.6 -35.3,-3.1 -6.6,-4 -11.3,-9.3 -15,-17.4 -2.4,-5.1 -2.8,-7.1 -2.8,-15.4 0,-8.8 0.3,-10.1 3.3,-16.2 5.6,-11.4 15.6,-19.3 27.2,-21.8 5.6,-1.1 15.4,-0.4 21.1,1.5 z"
       id="path20"
       style="fill:#ffffff;stroke:none;stroke-width:0.1" />
    <path
       d="m 239.47659,111.8 c -5.6,2 -12.6,8.4 -15.2,13.9 -3,6.4 -2.9,16.3 0.3,23.1 6.2,13.4 22.7,19 36.3,12.2 16.7,-8.3 19.4,-32 5.1,-44.2 -7.3,-6.2 -17.5,-8.1 -26.5,-5 z m 19.9,10.6 c 9.6,7.3 9.5,23 -0.3,29.5 -4.2,2.8 -10,3.9 -15.4,2.9 -4.3,-0.8 -10.3,-5.9 -12.1,-10.3 -3.4,-8.1 -0.3,-18.4 6.9,-22.8 3.6,-2.2 5.1,-2.5 10.8,-2.3 5.3,0.3 7.3,0.9 10.1,3 z"
       id="path22"
       style="fill:#ffffff;stroke:none;stroke-width:0.1" />
    <path
       d="m 242.87659,130.2 c -4.9,3.9 -4.2,11.6 1.4,14.5 4.2,2.2 6.7,1.8 10,-1.4 8.1,-8.1 -2.4,-20.2 -11.4,-13.1 z"
       id="path24"
       style="fill:#ffffff;stroke:none;stroke-width:0.1" />
    <path
       d="m 361.17659,29.9 c -3.4,1.3 -6,4.7 -6,8 0,7.6 5.2,12.3 13.5,12.3 11.6,0 13,-13.7 2,-19 -4.1,-2 -6.7,-2.3 -9.5,-1.3 z m 9.4,6.4 c 3,2.3 3.3,5.4 0.9,8.1 -3.5,3.9 -11.3,0.3 -11.3,-5.2 0,-5 5.7,-6.6 10.4,-2.9 z"
       id="path26"
       style="fill:#ffffff;stroke:none;stroke-width:0.1" />
    <path
       d="m 100.47659,43.1 c -4.7,2.2 -7.1,5.3 -8,10.4 -0.5,3.1 -0.1,4.1 2.5,6.7 3.3,3.2 6.9,3.8 11.9,1.9 9.8,-3.7 12.1,-16 3.7,-19.5 -4.3,-1.8 -5,-1.7 -10.1,0.5 z m 9.2,5.5 c 3,4.5 -0.9,9.6 -7.4,9.6 -5.7,0 -6.5,-6 -1.4,-10 3.4,-2.7 6.9,-2.6 8.8,0.4 z"
       id="path28"
       style="fill:#ffffff;stroke:none;stroke-width:0.1" />
    <path
       d="m 388.27659,52.3 c -5.4,7.6 -6,10.2 -2.6,10.7 1.4,0.2 2.8,-0.9 4.5,-3.4 l 2.5,-3.7 1.2,4.4 c 0.7,2.4 1.8,6.4 2.4,8.8 l 1,4.3 2.5,-2.3 c 1.4,-1.3 4.4,-4.8 6.7,-7.7 3.9,-5.2 4,-5.5 2.2,-6.8 -2.7,-2 -3.1,-1.8 -6.1,2.2 l -2.8,3.6 -2.3,-7.8 c -1.3,-4.3 -2.7,-8.2 -3.2,-8.7 -0.5,-0.5 -3,2.1 -6,6.4 z"
       id="path30"
       style="fill:#ffffff;stroke:none;stroke-width:0.1" />
    <path
       d="m 74.67659,63.4 c -2.9,1.6 -9.5,8 -9.5,9.3 0,0.6 2.8,3.9 6.3,7.3 6.3,6.3 6.3,6.3 8.2,4.2 1.8,-2 1.8,-2.1 -0.3,-4.3 -3.2,-3.4 -2.7,-4 2.8,-3.2 3.4,0.5 5.5,0.3 6.5,-0.5 2.3,-1.9 1.8,-2.9 -2,-3.6 -3.2,-0.6 -3.5,-0.9 -3.5,-4.3 0,-5.7 -3.5,-7.7 -8.5,-4.9 z m 4.5,5.1 c 0,0.8 -1.1,2.4 -2.5,3.7 -2,1.9 -2.7,2.1 -4,1 -1.4,-1.2 -1.3,-1.5 0.6,-3.7 2.4,-2.5 5.9,-3.1 5.9,-1 z"
       id="path32"
       style="fill:#ffffff;stroke:none;stroke-width:0.1" />
    <path
       d="m 417.97659,70.3 c -2.2,1.2 -2.3,4.5 -0.3,9.2 1.9,4.7 0.1,6.2 -3,2.4 -2.3,-3 -5.5,-3.6 -5.5,-1.1 0,2.6 7.4,9.4 10.2,9.4 4.8,0 6.3,-5.2 3.3,-11.1 -2,-3.7 -1,-5.7 1.6,-3.3 1,0.9 1.9,2.3 1.9,3 0,1.7 1.5,2.5 3.4,1.8 2.4,-0.9 1.9,-3.1 -1.6,-6.9 -3.6,-3.8 -7.3,-5.1 -10,-3.4 z"
       id="path34"
       style="fill:#ffffff;stroke:none;stroke-width:0.1" />
    <path
       d="m 48.27659,89.4 c -2.2,2.4 -4.1,5 -4,5.8 0,0.8 2.9,3.9 6.5,6.7 5.4,4.4 6.9,5.1 8.5,4.3 2.5,-1.4 2.4,-3.6 -0.1,-5 -1.1,-0.6 -2,-1.5 -2,-2.1 0,-0.6 0.9,-2.2 2,-3.6 2.2,-2.9 2.6,-7.3 0.8,-9.1 -0.7,-0.7 -2.7,-1.2 -4.4,-1.2 -2.5,0 -4.2,1 -7.3,4.2 z m 7.9,2.1 c 0,0.7 -0.6,2.2 -1.4,3.2 -1.2,1.6 -1.6,1.7 -3,0.6 -1.2,-1 -1.3,-1.8 -0.5,-3.2 1.1,-2.1 4.9,-2.6 4.9,-0.6 z"
       id="path36"
       style="fill:#ffffff;stroke:none;stroke-width:0.1" />
    <path
       d="m 437.27659,93.6 c -1.2,1.8 -2.1,3.8 -2.1,4.5 0,2.3 5.3,0.8 9.3,-2.7 1.6,-1.4 1.6,-1.6 0.1,-3.4 -2.5,-2.7 -5,-2.2 -7.3,1.6 z"
       id="path38"
       style="fill:#ffffff;stroke:none;stroke-width:0.1" />
    <path
       d="m 428.57659,100.7 c -0.4,0.8 -0.1,2.2 0.6,3 1.8,2.1 5,1.9 5,-0.3 0,-3.6 -4.5,-5.7 -5.6,-2.7 z"
       id="path40"
       style="fill:#ffffff;stroke:none;stroke-width:0.1" />
    <path
       d="m 23.87659,138.9 c -1.4,1.3 -0.6,4.2 1.2,4.8 1.6,0.5 1.8,1.3 1.4,4.3 -1.2,9 8.5,7.7 11.2,-1.5 0.5,-2 -0.2,-2.6 -6.1,-5.3 -7.6,-3.4 -6.9,-3.2 -7.7,-2.3 z m 9.1,9 c -0.5,2.5 -2.8,2.8 -2.8,0.4 0,-1.2 0.6,-2.1 1.6,-2.1 0.9,0 1.4,0.7 1.2,1.7 z"
       id="path42"
       style="fill:#ffffff;stroke:none;stroke-width:0.1" />
    <path
       d="m 461.47659,140.3 c -0.9,0.9 -0.8,1.8 0.4,3.6 1.8,2.7 0.8,4.7 -1.1,2 -0.7,-0.9 -2.1,-1.7 -3,-1.7 -1.4,0 -1.6,0.6 -1.1,3.2 l 0.7,3.3 -2.5,-3 c -2,-2.3 -2.8,-2.7 -3.7,-1.8 -1,0.9 -0.7,2.1 1.1,5.2 1.2,2.3 2.9,4.1 3.6,4.1 2.1,0 12.3,-5.3 12.3,-6.5 0,-1.3 -4.3,-9.5 -5,-9.5 -0.4,0 -1.1,0.5 -1.7,1.1 z"
       id="path44"
       style="fill:#ffffff;stroke:none;stroke-width:0.1" />
    <path
       d="m 17.37659,155.5 c -1,1.3 -3.2,7.4 -3.2,8.8 0,2.2 3.8,0.7 4.4,-1.6 0.7,-2.9 1.2,-3 5.9,-1 4.6,1.9 6.3,1.9 7.1,0 0.6,-1.6 -0.6,-2.4 -8.2,-5.4 -3.8,-1.5 -5.3,-1.7 -6,-0.8 z"
       id="path46"
       style="fill:#ffffff;stroke:none;stroke-width:0.1" />
    <path
       d="m 468.97659,156.2 c -0.9,1.4 -2.3,2 -5.1,2 -4.5,0 -6,2.6 -4.4,7.5 1.9,5.7 2.9,6.1 9.7,3.5 6.7,-2.5 7.7,-3.4 6,-5.5 -0.9,-1.1 -1.7,-1.2 -3,-0.5 -2.9,1.6 -3.4,1.2 -1.6,-1.5 1.8,-2.7 2.1,-6.1 0.6,-7 -0.5,-0.3 -1.5,0.3 -2.2,1.5 z m -3,8.3 c 0.2,1 -0.3,1.7 -1.2,1.7 -0.9,0 -1.6,-0.2 -1.6,-0.4 0,-0.2 -0.3,-1.2 -0.6,-2.1 -0.5,-1.3 -0.2,-1.6 1.2,-1.3 1,0.2 2,1.1 2.2,2.1 z"
       id="path48"
       style="fill:#ffffff;stroke:none;stroke-width:0.1" />
    <path
       d="m 12.97659,168.9 c 0,0.5 -0.2,2.7 -0.3,5 -0.1,3 -0.8,4.9 -2.3,6.3 -2.4,2.3 -2.9,4 -0.9,4 3.2,0 15.7,-3.5 15.7,-4.5 0,-1.2 -10.1,-11.5 -11.3,-11.5 -0.4,0 -0.8,0.3 -0.9,0.7 z m 4.6,9.4 c -0.3,0.5 -1,0.7 -1.5,0.3 -0.5,-0.3 -0.7,-1 -0.3,-1.5 0.3,-0.5 1,-0.7 1.5,-0.3 0.5,0.3 0.7,1 0.3,1.5 z"
       id="path50"
       style="fill:#ffffff;stroke:none;stroke-width:0.1" />
    <path
       d="m 475.87659,171.9 c -0.4,0.3 -0.4,2.2 -0.1,4 0.7,3.9 -1.1,4.6 -2,0.7 -0.8,-3.2 -3.1,-2.6 -3.1,0.9 -0.1,3.6 -1.3,4.5 -2,1.4 -0.8,-3 -3.3,-4.3 -4.1,-2.2 -0.6,1.5 1.3,8.2 2.5,9 1.5,0.8 13.6,-3.2 13.9,-4.6 0.4,-2 -2.2,-9.2 -3.4,-9.6 -0.6,-0.2 -1.3,0 -1.7,0.4 z"
       id="path52"
       style="fill:#ffffff;stroke:none;stroke-width:0.1" />
    <path
       d="m 19.27659,190.1 c -0.9,1.6 -1.6,1.7 -6.1,0.8 -3.8,-0.7 -5.4,-0.7 -6.3,0.2 -1.7,1.7 1.1,3.7 6.3,4.5 3.1,0.5 4,1.1 4,2.6 0,2.7 2.9,2.5 3.9,-0.3 1.8,-4.9 2,-8.5 0.6,-9.1 -0.8,-0.3 -1.9,0.3 -2.4,1.3 z"
       id="path54"
       style="fill:#ffffff;stroke:none;stroke-width:0.1" />
    <path
       d="m 474.77659,189.7 c -5.5,1.5 -7.2,2.8 -6.1,4.5 0.5,0.8 2,0.9 4.2,0.5 l 3.5,-0.6 -2.8,5 c -1.6,2.7 -2.6,5.2 -2.3,5.5 0.3,0.3 3.7,0 7.5,-0.7 5.8,-1 6.9,-1.5 6.9,-3.2 0,-1.7 -0.6,-2 -3.7,-1.7 l -3.8,0.4 2.5,-4.4 c 4.1,-7.2 3.4,-7.8 -5.9,-5.3 z"
       id="path56"
       style="fill:#ffffff;stroke:none;stroke-width:0.1" />
    <path
       d="m 5.67659,204.4 c 0.5,4.3 0.4,5.7 -0.9,6.7 -1.9,1.6 -2.2,5.5 -0.3,4.9 0.6,-0.3 4.2,-1.6 8,-2.9 3.7,-1.3 6.7,-2.8 6.6,-3.4 0,-0.9 -10.9,-9.5 -13.2,-10.4 -0.5,-0.2 -0.6,2 -0.2,5.1 z m 5.7,4.3 c 0,0.5 -0.5,1.1 -1.1,1.3 -0.6,0.2 -1.1,-0.4 -1.1,-1.3 0,-0.9 0.5,-1.5 1.1,-1.3 0.6,0.2 1.1,0.8 1.1,1.3 z"
       id="path58"
       style="fill:#ffffff;stroke:none;stroke-width:0.1" />
    <path
       d="m 484.47659,207.8 c -0.8,0.4 -1,1.6 -0.7,3.3 0.3,1.6 0.2,3.1 -0.4,3.5 -0.5,0.3 -1.2,-0.8 -1.6,-2.5 -0.7,-3.7 -3,-3.4 -3.4,0.4 -0.4,3.5 -2,3.5 -2.4,0 -0.2,-1.8 -1,-2.9 -2.2,-3.1 -1.7,-0.4 -1.8,0.1 -1.3,4.8 0.4,2.9 0.8,5.5 1.1,5.7 0.2,0.2 3.6,0.1 7.5,-0.3 l 7.1,-0.7 v -3.6 c 0,-4.2 -0.9,-8.1 -1.9,-8 -0.3,0 -1.1,0.3 -1.8,0.5 z"
       id="path60"
       style="fill:#ffffff;stroke:none;stroke-width:0.1" />
    <path
       d="m 469.47659,213.3 c -1.6,1.6 -1.7,4.9 -0.3,4.9 1.3,0 2.3,-2.4 1.8,-4.5 -0.2,-1.3 -0.5,-1.4 -1.5,-0.4 z"
       id="path62"
       style="fill:#ffffff;stroke:none;stroke-width:0.1" />
    <path
       d="m 0.77659,222.8 c -0.9,2.2 -0.9,2.2 2.4,2.9 2.5,0.5 3,1.1 3,3.6 0,3.9 2.6,3.8 3.5,-0.1 0.9,-4.1 2.5,-3.8 2.5,0.5 0,2.3 0.5,3.5 1.4,3.5 1.8,0 2.6,-2.2 2.6,-6.9 v -3.8 l -5.2,-0.7 c -7.9,-0.9 -9.5,-0.8 -10.2,1 z"
       id="path64"
       style="fill:#ffffff;stroke:none;stroke-width:0.1" />
    <path
       d="m 481.17659,227.3 c 0,2.6 0.3,3.1 2,2.6 2.1,-0.5 2.4,0.1 1.4,2.7 -0.7,1.9 -5,2.1 -6.1,0.4 -0.4,-0.7 -0.7,-2.6 -0.8,-4.2 0,-3.8 -2.2,-4.5 -3.5,-1 -3.1,8 7.1,15.2 12.8,9.1 1.4,-1.5 2.2,-3.6 2.2,-5.9 0,-5.6 -0.8,-6.8 -4.6,-6.8 -3.1,0 -3.4,0.2 -3.4,3.1 z"
       id="path66"
       style="fill:#ffffff;stroke:none;stroke-width:0.1" />
    <path
       d="m 2.77659,238.3 c -5.6,4.4 -2.1,15.9 4.9,15.9 6.8,0 10.2,-10.4 5,-15.5 -3,-3 -6.4,-3.2 -9.9,-0.4 z m 7.9,4.3 c 2.9,4.3 -1.8,9.4 -5.6,6 -2.3,-2.1 -2.4,-4.2 -0.2,-6.6 2.2,-2.4 3.9,-2.3 5.8,0.6 z"
       id="path68"
       style="fill:#ffffff;stroke:none;stroke-width:0.1" />
    <path
       d="m 474.17659,255.5 v 5.4 l 6.7,0.6 c 3.8,0.3 7.1,0.3 7.5,0 0.5,-0.2 0.8,-2.9 0.8,-5.9 0,-4.1 -0.4,-5.4 -1.5,-5.4 -0.8,0 -1.5,0.9 -1.5,1.9 0,2.8 -1.1,5.2 -2.1,4.5 -0.5,-0.3 -0.9,-1.6 -0.9,-3 0,-1.5 -0.6,-2.4 -1.5,-2.4 -0.9,0 -1.5,0.9 -1.5,2.4 0,3.8 -1.8,4.1 -2.2,0.4 -0.2,-2.2 -0.9,-3.4 -2,-3.6 -1.5,-0.3 -1.8,0.5 -1.8,5.1 z"
       id="path70"
       style="fill:#ffffff;stroke:none;stroke-width:0.1" />
    <path
       d="m 3.37659,258.9 c -4.2,0.5 -4.1,3.5 0.1,4.3 l 2.9,0.5 -2.6,2.4 c -2.7,2.5 -3.5,6.1 -1.4,6.1 0.6,0 2,-0.8 3,-1.7 1.4,-1.3 2.1,-1.4 3,-0.5 1.5,1.5 5.1,1.5 6.6,0 0.7,-0.7 1.2,-3.6 1.2,-6.5 v -5.3 l -4.7,0.2 c -2.7,0 -6.3,0.3 -8.1,0.5 z m 9.6,6.1 c 0.2,1.4 -0.2,2.2 -1.1,2.2 -1.5,0 -2.9,-3.4 -1.9,-4.5 1.1,-1.1 2.7,0.2 3,2.3 z"
       id="path72"
       style="fill:#ffffff;stroke:none;stroke-width:0.1" />
    <path
       d="m 476.07659,267.5 c -2.4,1.9 -3.9,5.2 -3.9,9 v 3.4 l 6.8,1 c 3.7,0.6 7.1,0.7 7.6,0.2 0.5,-0.5 1,-3.2 1,-6 0.1,-4.2 -0.3,-5.4 -2.3,-7 -2.6,-2.1 -6.8,-2.4 -9.2,-0.6 z m 6.9,3.9 c 0.7,0.7 1.2,2.2 1.2,3.5 0,1.8 -0.6,2.3 -2.4,2.3 -1.3,0 -3.1,-0.3 -4,-0.6 -3.1,-1.2 -1.2,-6.4 2.4,-6.4 0.9,0 2.1,0.5 2.8,1.2 z"
       id="path74"
       style="fill:#ffffff;stroke:none;stroke-width:0.1" />
    <path
       d="m 2.37659,278.9 c 0.2,1.1 1.4,1.9 3.2,2.1 l 2.8,0.4 -2.8,2.9 -2.8,2.9 3.2,1.1 c 3.7,1.3 4.1,2.4 1.2,3.2 -1.2,0.3 -2,1.4 -2,2.7 0,1.9 0.4,2.1 2.5,1.6 4,-1 11.9,-5 12,-6 0,-0.5 -1.9,-1.6 -4.2,-2.4 -2.4,-0.7 -4.3,-1.7 -4.3,-2 0,-0.4 1.6,-2 3.5,-3.5 2,-1.6 3.3,-3.2 3,-3.8 -0.4,-0.5 -4,-0.9 -8.1,-0.9 -6.6,0 -7.5,0.2 -7.2,1.7 z"
       id="path76"
       style="fill:#ffffff;stroke:none;stroke-width:0.1" />
    <path
       d="m 7.27659,301.4 c 0.7,1.3 1.7,2.6 2.2,3 0.6,0.3 1,2.9 0.9,5.7 0,2.8 0.2,5.1 0.6,5.1 0.4,0 3.4,-2.4 6.7,-5.4 4,-3.6 5.7,-5.8 5,-6.4 -0.9,-0.9 -13.1,-4.2 -15.6,-4.2 -0.6,0 -0.5,0.9 0.2,2.2 z m 8,4.1 c -0.1,1.2 -1.5,0.9 -1.9,-0.4 -0.3,-0.6 0.1,-1 0.8,-0.8 0.6,0.3 1.1,0.8 1.1,1.2 z"
       id="path78"
       style="fill:#ffffff;stroke:none;stroke-width:0.1" />
    <path
       d="m 467.67659,304.2 c -4,7.7 1.5,12.2 7.7,6.3 2.2,-2.1 2.8,-2.3 2.8,-1 0,0.8 -0.4,1.9 -1,2.2 -1.5,0.9 -1.2,2.5 0.5,3.2 2.1,0.8 4.4,-2.5 4.5,-6.2 0,-5.9 -4.3,-7.3 -8.4,-2.8 -2.6,2.7 -4.9,2.6 -2.6,-0.2 1.3,-1.6 0.7,-4.5 -0.9,-4.5 -0.6,0 -1.7,1.3 -2.6,3 z"
       id="path80"
       style="fill:#ffffff;stroke:none;stroke-width:0.1" />
    <path
       d="m 463.67659,317.1 c -0.3,0.6 -1.2,2.8 -2,5 -1.6,4.7 -1.4,4.9 6.8,8 l 5.8,2.1 1.9,-4.2 c 1.1,-2.4 2,-5.1 2,-6.1 0,-2.8 -3.1,-1.9 -4.3,1.3 -1.5,3.9 -2.8,3.8 -2.5,-0.1 0.4,-4 -1.8,-5 -3.2,-1.5 -0.5,1.4 -1.4,2.6 -2,2.6 -0.6,0 -0.6,-0.9 0.1,-2.7 1,-2.8 0.6,-5.3 -1,-5.3 -0.5,0 -1.2,0.4 -1.6,0.9 z"
       id="path82"
       style="fill:#ffffff;stroke:none;stroke-width:0.1" />
    <path
       d="m 22.67659,323.4 c -4.6,1.6 -6.5,3.8 -6.5,7.5 0,3.9 2.9,7.3 6.3,7.3 2.6,0 10.7,-3.6 10.7,-4.7 0,-0.4 -0.4,-1.4 -0.9,-2.1 -0.7,-1.1 -1.5,-1.1 -4.6,0.2 -5.1,2.2 -7.5,2.1 -7.5,-0.3 0,-1.4 1.3,-2.4 4.5,-3.7 3.1,-1.1 4.5,-2.2 4.5,-3.5 0,-2.1 -1.9,-2.3 -6.5,-0.7 z"
       id="path84"
       style="fill:#ffffff;stroke:none;stroke-width:0.1" />
    <path
       d="m 457.17659,334.9 c 0,2.6 11.6,7.9 13.7,6.2 2.2,-1.9 1.5,-2.9 -3.4,-5 -7.5,-3.2 -10.3,-3.5 -10.3,-1.2 z"
       id="path86"
       style="fill:#ffffff;stroke:none;stroke-width:0.1" />
    <path
       d="m 28.47659,342.3 c -3.6,1.6 -6.3,3.4 -6.3,4.3 0,2.2 1.6,2.8 4.4,1.5 1.4,-0.7 2.8,-1 3.1,-0.8 0.2,0.3 -0.2,2.7 -1,5.3 -0.8,2.7 -1.2,5.2 -0.9,5.7 0.2,0.5 3.4,-0.6 6.9,-2.3 4.6,-2.3 6.5,-3.8 6.5,-5.1 0,-2 -2,-2 -6.2,-0.3 -1.5,0.7 -1.5,0.4 -0.1,-4.4 0.8,-2.9 1.1,-5.5 0.7,-6 -0.5,-0.4 -3.7,0.5 -7.1,2.1 z"
       id="path88"
       style="fill:#ffffff;stroke:none;stroke-width:0.1" />
    <path
       d="m 453.37659,343.4 c -6.3,6.8 -1.3,16.6 7.3,14.4 2.9,-0.7 6.5,-5.9 6.5,-9.4 0,-3.5 -2.9,-2.7 -4.6,1.3 -1.1,2.7 -2,3.5 -3.9,3.5 -3.4,0 -4.8,-2.9 -2.9,-6.4 2.7,-5.4 1.4,-7.3 -2.4,-3.4 z"
       id="path90"
       style="fill:#ffffff;stroke:none;stroke-width:0.1" />
    <path
       d="m 37.87659,360.8 c -5,2.6 -6.7,4.8 -5,6.5 1.3,1.3 13.6,-5.8 13,-7.4 -0.6,-2 -3,-1.7 -8,0.9 z"
       id="path92"
       style="fill:#ffffff;stroke:none;stroke-width:0.1" />
    <path
       d="m 444.47659,359.8 c -0.4,1 0.4,2.4 2.2,3.8 l 2.7,2.2 -5.6,1.7 c -3.1,1 -5.6,2.1 -5.6,2.5 0,0.4 2.7,2.4 6,4.6 5.1,3.3 6.3,3.6 7.6,2.5 1.4,-1.2 1.2,-1.6 -1.6,-3.9 l -3.2,-2.6 5.7,-1.8 c 3.3,-1 5.5,-2.2 5.2,-2.9 -0.4,-1.2 -10.5,-7.7 -12,-7.7 -0.4,0 -1,0.7 -1.4,1.6 z"
       id="path94"
       style="fill:#ffffff;stroke:none;stroke-width:0.1" />
    <path
       d="m 46.57659,367.6 c 0.5,2.1 -0.1,2.8 -3.9,5 -4.7,2.8 -5,3.2 -3.6,5.5 0.7,1.1 1.7,0.8 5.4,-1.3 3.2,-1.9 5.3,-2.5 7.1,-2 3.4,0.8 3.4,-1 0.1,-5.9 -3,-4.3 -6.1,-5.1 -5.1,-1.3 z"
       id="path96"
       style="fill:#ffffff;stroke:none;stroke-width:0.1" />
    <path
       d="m 428.57659,376.6 c -2.2,1.7 -1.1,3.5 1.3,2 1.9,-1.2 2.9,-3.4 1.6,-3.4 -0.5,0 -1.8,0.6 -2.9,1.4 z"
       id="path98"
       style="fill:#ffffff;stroke:none;stroke-width:0.1" />
    <path
       d="m 432.27659,378.6 c -1.2,1.8 -2.1,4 -2.1,4.8 0,1.4 9.1,8.8 10.8,8.8 1.7,0 6.4,-8.1 5.7,-9.8 -0.6,-1.5 -1,-1.3 -3,1 -2.8,3.3 -5.1,3.8 -3.5,0.9 2.5,-4.7 0.3,-6.8 -3.1,-2.9 -2.2,2.8 -2.6,0.4 -0.4,-2.6 0.8,-1 1.2,-2.3 0.9,-2.7 -1.1,-1.8 -3.3,-0.8 -5.3,2.5 z"
       id="path100"
       style="fill:#ffffff;stroke:none;stroke-width:0.1" />
    <path
       d="m 61.37659,379.8 c 0.2,1.5 0.9,2.9 1.6,3.2 1,0.3 1.3,-0.4 1,-2.4 -0.2,-1.5 -0.9,-2.9 -1.6,-3.2 -1,-0.3 -1.3,0.4 -1,2.4 z"
       id="path102"
       style="fill:#ffffff;stroke:none;stroke-width:0.1" />
    <path
       d="m 49.87659,382.5 c -7,1 -8.1,2.2 -3.8,4.3 3.4,1.7 4.2,2.9 5,6.6 0.4,1.8 1.3,3.3 2,3.3 1.4,0 8.3,-14 7.3,-14.9 -0.6,-0.7 -1.5,-0.6 -10.5,0.7 z m 4.8,4.7 c -0.3,0.5 -1,1 -1.6,1 -0.5,0 -0.9,-0.5 -0.9,-1 0,-0.6 0.7,-1 1.6,-1 0.8,0 1.2,0.4 0.9,1 z"
       id="path104"
       style="fill:#ffffff;stroke:none;stroke-width:0.1" />
    <path
       d="m 60.67659,396.6 c -4,3.5 -4.7,4.7 -3.8,5.7 1,1 1.8,1 3.9,0.1 l 2.6,-1.2 -0.7,3.8 c -0.5,2.9 -0.2,4.2 0.9,5.2 1.4,1.1 1.8,0.8 2.7,-1.9 0.8,-2.2 1.7,-3.1 3.3,-3.1 2.7,0 4.6,-1.8 4.6,-4.4 0,-2.6 -4.7,-8.6 -6.8,-8.6 -0.9,0 -3.9,2 -6.7,4.4 z m 9.3,2.9 c 0.2,1 -0.3,1.7 -1.1,1.7 -1.8,0 -3.9,-2.4 -3,-3.4 1.2,-1.2 3.8,-0.2 4.1,1.7 z"
       id="path106"
       style="fill:#ffffff;stroke:none;stroke-width:0.1" />
    <path
       d="m 421.17659,394.1 c 0,1.1 2.2,3.8 5,6.1 l 5.1,4.3 2.5,-2.4 c 3.8,-3.5 4.9,-6 3.3,-7 -0.9,-0.5 -2.2,-0.1 -3.6,1.3 l -2.2,2.1 -3.9,-3.2 c -4.6,-3.6 -6.2,-3.9 -6.2,-1.2 z"
       id="path108"
       style="fill:#ffffff;stroke:none;stroke-width:0.1" />
    <path
       d="m 413.27659,402.6 c -5,2.8 -6.4,8.7 -3,13 2.9,3.7 8.1,3.6 12,-0.3 3.7,-3.8 3.9,-8.2 0.4,-11.6 -2.7,-2.8 -5.8,-3.1 -9.4,-1.1 z m 6.9,4.1 c 1.9,2.2 0.4,6.4 -2.5,7.1 -4.7,1.2 -7.1,-3.1 -3.8,-6.8 2,-2.2 4.6,-2.3 6.3,-0.3 z"
       id="path110"
       style="fill:#ffffff;stroke:none;stroke-width:0.1" />
    <path
       d="m 73.87659,410 c -5.2,5.3 -5.8,7.2 -2.4,7.2 2.3,0 10.7,-7.6 10.7,-9.7 0,-0.8 -2.1,-2.3 -3.4,-2.3 -0.1,0 -2.3,2.2 -4.9,4.8 z"
       id="path112"
       style="fill:#ffffff;stroke:none;stroke-width:0.1" />
    <path
       d="m 399.47659,415.8 c -0.4,1.1 1.1,3.3 4.5,6.7 4.6,4.5 5.4,5 6.6,3.7 1.3,-1.3 0.9,-2.1 -3.5,-6.8 -5.4,-5.5 -6.6,-6.1 -7.6,-3.6 z"
       id="path114"
       style="fill:#ffffff;stroke:none;stroke-width:0.1" />
    <path
       d="m 81.67659,418.5 c -5.8,2.1 -7.1,3.6 -4.3,4.8 4.4,2 5.4,2.9 6.7,5.7 3,6.5 5.1,4 6.7,-8.2 0.8,-5.5 0.2,-5.7 -9.1,-2.3 z m 4.9,4.2 c -0.4,0.8 -1,1.2 -1.5,0.9 -1.1,-0.6 -0.2,-2.4 1.1,-2.4 0.5,0 0.7,0.7 0.4,1.5 z"
       id="path116"
       style="fill:#ffffff;stroke:none;stroke-width:0.1" />
    <path
       d="m 394.17659,420.6 c -0.8,1 -1,2.8 -0.6,5.2 0.7,3.4 0.6,3.5 -1.6,2.8 -3.5,-1.2 -7.1,-1 -7.5,0.4 -0.5,1.2 11.4,7.2 14.3,7.2 1.7,0 1.7,0.4 -0.2,-8.3 -1.8,-8.2 -2.6,-9.4 -4.4,-7.3 z"
       id="path118"
       style="fill:#ffffff;stroke:none;stroke-width:0.1" />
    <path
       d="m 104.37659,432.9 c -0.7,0.3 -1.9,1.8 -2.7,3.4 -1.4,2.5 -1.4,3.3 -0.1,6.3 1.4,3.4 5.8,6.6 9.1,6.6 2.5,0 1.7,-2.9 -1.4,-4.4 -3.1,-1.7 -4.4,-3.8 -3.5,-6 1,-2.5 3.7,-2.8 6.6,-0.6 2.5,1.9 5.8,2.7 5.8,1.4 0,-4.5 -8.7,-8.8 -13.8,-6.7 z"
       id="path120"
       style="fill:#ffffff;stroke:none;stroke-width:0.1" />
    <path
       d="m 372.27659,437.5 c -1.3,0.7 -3,2.1 -3.7,3.2 -1.2,1.8 -1.1,2.4 0.2,4.4 1.4,1.9 2.3,2.2 5,1.8 4,-0.7 5.6,1 1.9,1.9 -3.4,0.8 -3,4 0.5,3.6 3.4,-0.4 6,-3.1 6,-6.2 0,-3.1 -1.4,-4 -6.8,-4.1 -3.4,0 -3.5,-0.1 -1.4,-1.1 2.2,-1.1 2.9,-3.2 1.4,-4.2 -0.4,-0.3 -1.9,0.1 -3.1,0.7 z"
       id="path122"
       style="fill:#ffffff;stroke:none;stroke-width:0.1" />
    <path
       d="m 121.47659,443.2 c -4.3,1.7 -5.6,7.8 -2.5,11.6 4.1,5.1 10.9,5.9 14.1,1.8 3.8,-4.8 1.8,-10.4 -4.5,-13 -3.8,-1.6 -4.1,-1.6 -7.1,-0.4 z m 6.7,4 c 0.5,0 1.4,0.9 2,2 1.4,2.7 -0.4,6 -3.2,6 -2.4,0 -5.8,-2.7 -5.8,-4.6 0,-2 3.1,-4.6 4.7,-4 0.8,0.3 1.9,0.6 2.3,0.6 z"
       id="path124"
       style="fill:#ffffff;stroke:none;stroke-width:0.1" />
    <path
       d="m 357.47659,446.3 c -1.8,1.2 -3.3,2.8 -3.3,3.6 0,1.7 4.9,10.5 6.4,11.5 0.6,0.4 2.6,-0.3 4.6,-1.4 5.1,-3.1 5.6,-3.6 4.2,-5 -1,-1 -1.9,-0.8 -4.2,0.5 -2.5,1.5 -3,1.6 -3,0.3 0,-0.8 0.9,-1.8 2,-2.1 2.1,-0.7 2.7,-3 1,-4 -0.5,-0.3 -1.9,-0.1 -3.1,0.5 -1.1,0.7 -2.4,0.8 -2.7,0.4 -0.4,-0.4 -0.1,-0.9 0.6,-1.1 2,-0.8 4.3,-3.4 3.7,-4.4 -0.9,-1.4 -2.7,-1.1 -6.2,1.2 z"
       id="path126"
       style="fill:#ffffff;stroke:none;stroke-width:0.1" />
    <path
       d="m 138.17659,457.3 c -2.5,4.8 -2.9,6.4 -1.9,7.5 1.7,2.1 2.7,1.7 4.5,-1.8 l 1.7,-3.2 2.9,5.8 c 1.6,3.2 3.3,5.5 3.8,5 0.4,-0.5 1.9,-3.7 3.3,-7.1 2.2,-5.5 2.3,-6.3 1,-7.5 -1.2,-1 -1.8,-0.9 -2.9,0.7 -0.8,1 -1.4,2.2 -1.4,2.7 0,2.1 -1.8,0.4 -3.8,-3.7 -1.2,-2.5 -2.6,-4.5 -3.2,-4.5 -0.5,0 -2.4,2.7 -4,6.1 z"
       id="path128"
       style="fill:#ffffff;stroke:none;stroke-width:0.1" />
    <path
       d="m 341.17659,455.7 c 0,2.5 5.3,12.5 6.7,12.5 2.4,0 8.3,-3.4 8.3,-4.8 0,-1.1 -0.8,-1.3 -3.5,-0.8 -3.4,0.7 -3.6,0.5 -5.7,-3.9 -2.1,-4.4 -5.8,-6.3 -5.8,-3 z"
       id="path130"
       style="fill:#ffffff;stroke:none;stroke-width:0.1" />
    <path
       d="m 157.57659,460.4 c -0.4,0.6 0.1,1.7 1.1,2.4 1.6,1.2 1.6,1.6 0.1,6 -2,6 -2,6.1 0.3,6.7 1.6,0.4 2.3,-0.5 3.8,-4.7 1.4,-3.8 2.3,-5.1 3.8,-5.1 1.1,0 2.1,-0.7 2.3,-1.6 0.2,-1.2 -1,-2.1 -4.4,-3.3 -5.7,-1.9 -6.1,-1.9 -7,-0.4 z"
       id="path132"
       style="fill:#ffffff;stroke:none;stroke-width:0.1" />
    <path
       d="m 171.37659,471 c -1.2,3.8 -2.2,7.1 -2.2,7.5 0,1.7 4,0.5 5.1,-1.5 1.1,-2.1 1.2,-2.1 2.8,1.2 0.9,1.9 2.5,3.6 3.5,3.8 1.6,0.3 1.8,0 1.3,-2.6 -0.5,-2.2 -0.1,-3.4 1.3,-4.7 4.4,-3.9 1.5,-8.2 -6.5,-9.9 -3.1,-0.7 -3.1,-0.6 -5.3,6.2 z m 9.8,0.2 c 0,0.6 -1.1,1 -2.5,1 -2.3,0 -3.4,-1.8 -1.9,-3.3 0.9,-0.8 4.4,1.1 4.4,2.3 z"
       id="path134"
       style="fill:#ffffff;stroke:none;stroke-width:0.1" />
    <path
       d="m 191.17659,475.7 c -4.9,5.9 -5.6,8.2 -2.5,7.7 3.9,-0.6 6.9,-0.2 8.5,1.3 1.6,1.5 5,2.1 5,0.9 0,-2.5 -4.5,-15.4 -5.4,-15.4 -0.6,0 -3.1,2.5 -5.6,5.5 z m 5,3 c 0,0.8 -0.4,1.5 -1,1.5 -0.5,0 -1,-0.7 -1,-1.5 0,-0.8 0.5,-1.5 1,-1.5 0.6,0 1,0.7 1,1.5 z"
       id="path136"
       style="fill:#ffffff;stroke:none;stroke-width:0.1" />
  </g>
</svg>
