<?xml version="1.0" encoding="UTF-8" standalone="no"?>
<svg
   version="1.1"
   id="brand-caritas"
   x="0px"
   y="0px"
   viewBox="0 0 375.10001 68.699999"
   xml:space="preserve"
   sodipodi:docname="caritas.svg"
   width="375.10001"
   height="68.699997"
   inkscape:version="1.1.1 (3bf5ae0d25, 2021-09-20)"
   xmlns:inkscape="http://www.inkscape.org/namespaces/inkscape"
   xmlns:sodipodi="http://sodipodi.sourceforge.net/DTD/sodipodi-0.dtd"
   xmlns="http://www.w3.org/2000/svg"
   xmlns:svg="http://www.w3.org/2000/svg"><defs
   id="defs75">
		
		
		
		
		
		
		
		
		
		
		
		
		
		
		
		
		
		
		
		
		
		
		
		
		
		
		
		
		
		
		
		
		
	</defs><sodipodi:namedview
   id="namedview73"
   pagecolor="#ffffff"
   bordercolor="#666666"
   borderopacity="1.0"
   inkscape:pageshadow="2"
   inkscape:pageopacity="0.0"
   inkscape:pagecheckerboard="0"
   showgrid="false"
   fit-margin-top="0"
   fit-margin-left="0"
   fit-margin-right="0"
   fit-margin-bottom="0"
   inkscape:zoom="1"
   inkscape:cx="173.5"
   inkscape:cy="33.5"
   inkscape:window-width="1680"
   inkscape:window-height="973"
   inkscape:window-x="1920"
   inkscape:window-y="55"
   inkscape:window-maximized="1"
   inkscape:current-layer="brand-caritas" />
	<style
   type="text/css"
   id="style2">
		.st0{fill-rule:evenodd;clip-rule:evenodd;fill:#CE0E2D;}
		.st1{fill:#CE0E2D;}
	</style>
	<g
   id="g161"
   transform="translate(-3.9,-12.8)"><path
     class="st0"
     d="m 20.5,20.7 c 0,2.7 2.2,1.7 2.2,5.5 0,3.1 -1.6,5.6 -5,5.6 -3.4,0 -3.1,-2.1 -5.6,-2.1 -1.4,0 -2.7,1.1 -2.7,2.8 0,1.7 1,2.6 2.7,2.6 h 14 V 20.8 c 0,-2.6 -2,-2.9 -2.8,-2.9 -0.9,0 -2.8,0.8 -2.8,2.8 z M 31.3,40.2 V 21.8 c 0,-5.7 -3.4,-9 -7.9,-9 -4.5,0 -8,3.6 -8,7 0,3.4 1.4,5.6 1.4,5.6 0,0 -2.9,-1.2 -4.9,-1.2 -2.7,0 -7.6,2.1 -7.6,7.8 0,5.7 3.4,8.3 8.1,8.3 h 18.9 z"
     id="path4"
     style="fill:#ffffff" /><path
     class="st0"
     d="m 53.2,29.4 c -2.7,0 -1.7,2.2 -5.4,2.2 -3.1,0 -5.6,-1.6 -5.6,-5.1 0,-3.5 2.1,-3.1 2.1,-5.7 0,-1.4 -1.1,-2.7 -2.8,-2.7 -1.7,0 -2.6,1 -2.6,2.7 V 34.9 H 53 c 2.6,0 2.9,-2 2.9,-2.8 0,-0.7 -0.7,-2.7 -2.7,-2.7 z M 33.7,40.2 H 52 c 5.7,0 9,-3.4 9,-7.9 0,-4.5 -3.6,-8.1 -7,-8.1 -3.4,0 -5.5,1.4 -5.5,1.4 0,0 1.2,-2.9 1.2,-4.9 0,-2.7 -2.1,-7.6 -7.8,-7.6 -5.7,0 -8.3,3.4 -8.3,8.1 v 19 z"
     id="path6"
     style="fill:#ffffff" /><path
     class="st0"
     d="m 49.5,67.3 c 0,-3.6 -3.2,-2.6 -3.2,-7.2 0,-1.9 1.5,-5.1 5.2,-5.1 3.3,0 3.1,3.2 7,3.2 2.6,0 4.5,-2.6 4.5,-5.5 0,-2.3 -1.4,-4.9 -5.6,-4.9 H 38.9 v 18.7 c 0,3.5 2.2,5.9 5.4,5.9 2.8,0.1 5.2,-2.4 5.2,-5.1 z M 33.7,42.6 V 67 c 0,7.6 5,12.2 10.9,12.2 5.9,0 10.6,-5.5 10.6,-10 0,-4.5 -1.1,-5.9 -1.1,-5.9 0,0 2.5,1.1 5.2,1.1 3.6,0 10.2,-2.9 10.2,-10.5 0,-7.6 -5.2,-11.3 -10.7,-11.3 H 33.7 Z"
     id="path8"
     style="fill:#ffffff" /><path
     class="st0"
     d="m 11.7,53.4 c 2.7,0 1.7,-2.2 5.4,-2.2 3.1,0 5.6,1.6 5.6,5.1 0,3.5 -2.1,3.1 -2.1,5.7 0,1.4 1.1,2.7 2.8,2.7 1.7,0 2.6,-1 2.6,-2.7 V 47.9 H 11.9 c -2.6,0 -2.9,2 -2.9,2.8 0,0.8 0.8,2.7 2.7,2.7 z M 31.3,42.6 H 12.9 c -5.7,0 -9,3.4 -9,7.9 0,4.5 3.6,8.1 7,8.1 3.4,0 5.5,-1.4 5.5,-1.4 0,0 -1.2,2.9 -1.2,4.9 0,2.7 2.1,7.6 7.8,7.6 5.7,0 8.3,-3.4 8.3,-8.1 z"
     id="path10"
     style="fill:#ffffff" /><path
     class="st0"
     d="m 256,61 -2.8,19.6 h 9.6 c 4.8,0 6.7,-3.3 6.7,-5.7 0,-2.2 -1.4,-4.1 -3.6,-4.8 1.9,-0.9 2.8,-2.5 2.8,-4.4 0,-2.3 -1.5,-4.7 -6.5,-4.7 z m 3.7,3.3 h 2.2 c 1.9,0 2.8,0.8 2.8,2 0,1.2 -0.8,2.3 -2.8,2.3 h -2.8 z m -1.1,7.6 h 3 c 2,0 3.6,0.8 3.6,2.6 0,1.5 -0.9,2.9 -3.5,2.9 h -4 z"
     id="path12"
     style="fill:#ffffff" /><path
     class="st0"
     d="m 285.2,67.8 c -1.6,-0.3 -2.8,-0.4 -4.4,-0.4 -7,0 -9.4,4.1 -9.4,7.9 0,3.3 1.9,5.6 4.6,5.6 1.3,0 2.5,-0.5 3.8,-1.5 l -0.2,1.2 h 3.9 z m -5.2,9.1 c -0.9,0.7 -1.9,1.2 -2.8,1.2 -1.2,0 -1.9,-0.9 -1.9,-2.5 0,-1.6 0.7,-5.4 5.5,-4.9 z"
     id="path14"
     style="fill:#ffffff" /><path
     class="st1"
     d="m 292.4,67.6 h -3.9 l -1.8,13.1 h 3.9 l 1.1,-7.8 c 0.4,-0.9 1.4,-1.9 2.4,-1.9 0.6,0 1.2,0.4 1.8,1.4 l 1.8,-3.6 c -0.9,-1 -1.6,-1.4 -2.3,-1.4 -0.9,0 -2,0.7 -3.2,2.2 l -0.1,-0.1 z"
     id="path16"
     style="fill:#ffffff" /><path
     class="st1"
     d="m 309.5,67.8 c -0.8,-0.3 -2.3,-0.5 -3.6,-0.5 -4.7,0 -8.4,3.1 -8.4,7.2 0,3.7 2.7,6.3 6.6,6.3 1.3,0 2.9,-0.2 4,-0.5 l 0.5,-3.5 c -1.8,0.7 -2.5,0.9 -3.7,0.9 -2.2,0 -3.4,-1.1 -3.4,-3 0,-2.3 2,-4 4.6,-4 0.5,0 0.8,0 1.2,0.1 0.4,0.1 0.8,0.2 1.6,0.5 z"
     id="path18"
     style="fill:#ffffff" /><path
     class="st0"
     d="m 323.4,74.7 c 0.9,-4.2 -1.3,-7.3 -5.4,-7.3 -3.9,0 -7.1,3.2 -7.1,7.2 0,3.9 2.5,6.4 6.5,6.4 1.3,0 2.9,-0.3 4.5,-0.9 l 0.7,-3.3 c -2.1,0.9 -3.6,1.3 -4.8,1.3 -1.9,0 -3.2,-1.2 -3,-3.4 z m -8.1,-2.3 c 0.6,-1.6 1.4,-2.4 2.7,-2.4 1.3,0 2.1,1 1.9,2.4 z"
     id="path20"
     style="fill:#ffffff" /><polygon
     class="st1"
     points="332.2,61 328.3,61 325.5,80.7 329.4,80.7 "
     id="polygon22"
     style="fill:#ffffff" /><path
     class="st0"
     d="m 347,73.5 c 0,-3.7 -2.7,-6.2 -6.5,-6.2 -4.1,0 -7.5,3.3 -7.5,7.2 0,3.5 2.9,6.3 6.6,6.3 4.2,0.1 7.4,-3.1 7.4,-7.3 z m -4,-0.1 c 0,1.8 -1.1,4.3 -3.4,4.3 -1.1,0 -2.6,-0.9 -2.6,-2.9 0,-1.3 0.8,-4.3 3.3,-4.3 1.7,0 2.7,1.2 2.7,2.9 z"
     id="path24"
     style="fill:#ffffff" /><path
     class="st1"
     d="m 354.8,67.6 h -3.9 l -1.8,13.1 h 3.9 l 1.2,-8.4 c 1.3,-1.4 2.4,-2 3.3,-2 1,0 1.3,1.4 1.1,2.6 l -1.1,7.8 h 3.9 l 1.1,-8.1 c 0.4,-2.7 -0.4,-5.2 -3.4,-5.2 -1.6,0 -2.9,0.5 -4.4,1.7 z"
     id="path26"
     style="fill:#ffffff" /><path
     class="st0"
     d="m 379,67.8 c -1.6,-0.3 -2.8,-0.4 -4.4,-0.4 -7,0 -9.4,4.1 -9.4,7.9 0,3.3 1.9,5.6 4.6,5.6 1.3,0 2.5,-0.5 3.8,-1.5 l -0.2,1.2 h 3.9 z m -5.1,9.1 c -0.9,0.7 -1.9,1.2 -2.8,1.2 -1.2,0 -1.9,-0.9 -1.9,-2.5 0,-1.6 0.7,-5.4 5.5,-4.9 z"
     id="path28"
     style="fill:#ffffff" /><path
     class="st0"
     d="m 82,61.5 -2.7,19.6 h 10.1 c 5.2,0 9.2,-4.2 9.2,-10.1 0,-4.3 -2.3,-9.6 -10.1,-9.6 H 82 Z m 3.7,3.3 h 2 c 4.3,0 6.6,2.8 6.6,6.2 0,3.4 -1.9,6.8 -6.5,6.8 h -3.9 z"
     id="path30"
     style="fill:#ffffff" /><path
     class="st0"
     d="m 106.1,68 h -3.9 l -1.8,13.1 h 3.9 z m -1.4,-5.6 c -1.1,0 -2,0.9 -2,2 0,1.1 0.9,2 2,2 1.1,0 2,-0.9 2,-2 0,-1.1 -0.9,-2 -2,-2 z"
     id="path32"
     style="fill:#ffffff" /><path
     class="st0"
     d="m 122,74 c 0,-3.7 -2.7,-6.2 -6.5,-6.2 -4.1,0 -7.5,3.3 -7.5,7.2 0,3.5 2.9,6.3 6.6,6.3 4.2,0.1 7.4,-3.2 7.4,-7.3 z m -4,-0.1 c 0,1.8 -1.1,4.3 -3.4,4.3 -1.1,0 -2.6,-0.9 -2.6,-2.9 0,-1.3 0.8,-4.3 3.3,-4.3 1.7,0 2.7,1.1 2.7,2.9 z"
     id="path34"
     style="fill:#ffffff" /><path
     class="st1"
     d="m 136.2,68.3 c -0.8,-0.3 -2.3,-0.5 -3.6,-0.5 -4.7,0 -8.4,3.1 -8.4,7.2 0,3.7 2.7,6.3 6.6,6.3 1.3,0 2.9,-0.2 4,-0.5 l 0.5,-3.5 c -1.8,0.7 -2.5,0.9 -3.7,0.9 -2.2,0 -3.4,-1.1 -3.4,-3 0,-2.3 2,-4 4.6,-4 0.5,0 0.8,0 1.2,0.1 0.4,0.1 0.8,0.2 1.6,0.5 z"
     id="path36"
     style="fill:#ffffff" /><path
     class="st0"
     d="m 150.1,75.1 c 0.9,-4.2 -1.3,-7.3 -5.4,-7.3 -3.9,0 -7.1,3.2 -7.1,7.2 0,3.9 2.5,6.4 6.5,6.4 1.3,0 2.9,-0.3 4.5,-0.9 l 0.7,-3.3 c -2.1,0.9 -3.6,1.3 -4.8,1.3 -1.9,0 -3.2,-1.2 -3,-3.4 z M 142,72.9 c 0.6,-1.6 1.4,-2.4 2.7,-2.4 1.3,0 2.1,1 1.9,2.4 z"
     id="path38"
     style="fill:#ffffff" /><path
     class="st1"
     d="m 161.6,69 c -1.5,-0.8 -2.7,-1.2 -4.1,-1.2 -2.9,0 -4.9,1.7 -4.9,4.2 0,2.6 4.4,4 4.4,5.4 0,0.4 -0.5,0.7 -1.3,0.7 -1.2,0 -2.5,-0.5 -3.6,-0.9 l -0.5,2.9 c 1.6,0.8 3,1.2 4.5,1.2 2.9,0 4.9,-1.7 4.9,-4.1 0,-3.2 -4.3,-4.3 -4.3,-5.7 0,-0.3 0.3,-0.6 0.9,-0.6 0.7,0 2.4,0.4 3.8,1.1 z"
     id="path40"
     style="fill:#ffffff" /><path
     class="st0"
     d="m 177,68.2 c -1.6,-0.3 -2.8,-0.4 -4.4,-0.4 -7,0 -9.4,4.1 -9.4,7.9 0,3.3 1.9,5.6 4.6,5.6 1.3,0 2.5,-0.5 3.8,-1.5 l -0.2,1.2 h 3.9 z m -5.1,9.1 c -0.9,0.7 -1.9,1.2 -2.8,1.2 -1.2,0 -1.9,-0.9 -1.9,-2.5 0,-1.6 0.7,-5.4 5.5,-4.9 z"
     id="path42"
     style="fill:#ffffff" /><path
     class="st1"
     d="m 184.5,68 h -3.9 l -1.8,13.1 h 3.9 l 1.2,-8.4 c 1.3,-1.4 2.4,-2 3.3,-2 1,0 1.3,1.4 1.1,2.6 l -1.1,7.8 h 3.9 l 1.1,-8.1 c 0.4,-2.7 -0.4,-5.2 -3.4,-5.2 -1.6,0 -2.9,0.5 -4.4,1.7 z"
     id="path44"
     style="fill:#ffffff" /><path
     class="st0"
     d="m 208.7,68.2 c -1.6,-0.3 -2.8,-0.4 -4.4,-0.4 -7,0 -9.4,4.1 -9.4,7.9 0,3.3 1.9,5.6 4.6,5.6 1.3,0 2.5,-0.5 3.8,-1.5 l -0.2,1.2 h 3.9 z m -5.1,9.1 c -0.9,0.7 -1.9,1.2 -2.8,1.2 -1.2,0 -1.9,-0.9 -1.9,-2.5 0,-1.6 0.7,-5.4 5.5,-4.9 z"
     id="path46"
     style="fill:#ffffff" /><path
     class="st0"
     d="m 233.3,61.5 h -3.9 l -0.9,6.5 c -0.5,-0.1 -1.2,-0.1 -1.9,-0.1 -5.5,0 -8.1,3.7 -8.1,7.3 0,3.9 2.9,6.3 7.5,6.3 1.4,0 2.8,-0.1 4.5,-0.4 z m -6.2,16.6 c -0.4,0.1 -0.7,0.1 -1.1,0.1 -2.2,0 -3.5,-1.2 -3.5,-3.1 0,-2.2 1.8,-4.3 5.5,-3.9 z"
     id="path48"
     style="fill:#ffffff" /><path
     class="st0"
     d="m 246.5,75.1 c 0.9,-4.2 -1.3,-7.3 -5.4,-7.3 -3.9,0 -7.1,3.2 -7.1,7.2 0,3.9 2.5,6.4 6.5,6.4 1.3,0 2.9,-0.3 4.5,-0.9 l 0.7,-3.3 c -2.1,0.9 -3.6,1.3 -4.8,1.3 -1.9,0 -3.2,-1.2 -3,-3.4 z m -8.1,-2.2 c 0.6,-1.6 1.4,-2.4 2.7,-2.4 1.3,0 2.1,1 1.9,2.4 z"
     id="path50"
     style="fill:#ffffff" /><path
     class="st1"
     d="m 150.4,26.3 c 0,0 -4.6,-6.4 -5.5,-7.7 -0.9,-1.3 -1.8,-2.2 -3.5,-2.2 -1.7,0 -3.3,0.8 -3.3,2.8 0,2 1.2,2.4 3.1,3.5 1.9,1.2 5.9,3.6 5.9,3.6 z"
     id="path52"
     style="fill:#ffffff" /><path
     class="st0"
     d="m 139.3,34.7 c 0.8,0 1.5,0 1.5,2.3 0,2.3 -1.9,12.8 -5,12.8 -1.8,0 -1.7,-1.9 -1.7,-2.4 0,-0.5 2.2,-12.7 5.2,-12.7 z m 3.1,-1 0.8,-3.3 h 13.6 c 0,0 -4,15.2 -4.4,16.5 -0.4,1.3 -0.9,3.1 0.2,3.5 1.1,0.3 2.4,-0.5 4.1,-4.1 1,0.7 1.9,1.4 1.9,1.4 0,0 -3.4,8.9 -11.9,8.9 -7.6,0 -7.5,-5.9 -7.5,-5.9 0,0 -3,5.9 -9.4,5.9 -6.4,0 -9.5,-5.4 -9.5,-11.3 0,-5.9 4.6,-15.5 15.4,-15.5 5,-0.1 6.7,3.9 6.7,3.9 z"
     id="path54"
     style="fill:#ffffff" /><path
     class="st1"
     d="m 100.9,56.6 c 6.5,0 13,-3.2 17,-12.9 L 115,42.5 c -3.6,6.9 -6.8,10.3 -10.8,10.3 -4.1,0 -5.7,-2.2 -5.7,-6.3 0,-5.1 3.9,-24.9 11.6,-24.9 6.3,0 6.5,10.2 6.5,10.2 h 3.2 l 3,-12.9 h -3.4 c 0,0 -0.5,2 -2.1,2 -2.9,0 -3,-2.7 -10.4,-2.7 -9.8,0 -23.8,6.8 -23.8,23.4 0,8.3 7.4,15 17.8,15 z"
     id="path56"
     style="fill:#ffffff" /><path
     class="st0"
     d="m 254.3,34.7 c 0.8,0 1.5,0 1.5,2.3 0,2.3 -1.9,12.8 -5,12.8 -1.8,0 -1.7,-1.9 -1.7,-2.4 0,-0.5 2.2,-12.7 5.2,-12.7 z m 3.1,-1 0.8,-3.3 h 13.6 c 0,0 -4,15.2 -4.4,16.5 -0.4,1.3 -0.9,3.1 0.2,3.5 1.1,0.3 2.4,-0.5 4.1,-4.1 1,0.7 1.9,1.4 1.9,1.4 0,0 -3.4,8.9 -11.9,8.9 -7.6,0 -7.5,-5.9 -7.5,-5.9 0,0 -3,5.9 -9.4,5.9 -6.4,0 -9.5,-5.4 -9.5,-11.3 0,-5.9 4.6,-15.5 15.4,-15.5 5,-0.1 6.7,3.9 6.7,3.9 z"
     id="path58"
     style="fill:#ffffff" /><path
     class="st1"
     d="m 159.4,55.7 c 0,0 2.9,-11 3.6,-13.6 0.7,-2.6 0.8,-3.6 0.8,-5.3 0,-2.7 -0.4,-3.4 -4.1,-3.4 l 0.3,-2.6 15.8,-0.4 -0.2,7.6 c 0,0 2.2,-8.3 8.4,-8.3 5.4,0 5.2,5.4 5.2,5.4 0,0 -0.1,5.5 -5.4,5.5 -4.2,0 -4.2,-3.8 -4.2,-3.8 0,0 -2.4,0.7 -6.4,18.9 -1.4,0 -13.8,0 -13.8,0 z"
     id="path60"
     style="fill:#ffffff" /><path
     class="st1"
     d="m 203.3,18.2 c 4.2,0 6.6,2.8 6.6,5.1 0,2.3 -1.8,5.8 -6.8,5.8 -5,0 -6.7,-4 -6.7,-5.6 0.1,-2.4 2,-5.3 6.9,-5.3 z"
     id="path62"
     style="fill:#ffffff" /><path
     class="st1"
     d="m 209,30.3 c 0,0 -3.8,14.3 -4.4,16.9 -0.6,2.6 -0.9,3.8 0.4,3.8 1.4,0 3.8,-4.1 3.8,-4.1 l 2.1,1.5 c 0,0 -3.6,8 -12.3,8 -8.6,0 -8.1,-6.8 -8.1,-6.8 0,-2 0.4,-3.4 0.9,-5.2 0.5,-1.8 2.3,-8.2 2.3,-9.2 0,-2.2 -2.9,-1.9 -4.1,-1.9 0.2,-1.2 0.4,-2.7 0.4,-2.7 z"
     id="path64"
     style="fill:#ffffff" /><path
     class="st1"
     d="m 221.3,20.9 h 13 l -2.2,9.8 h 6.2 l -0.8,3 h -6.2 c 0,0 -2.9,11 -3.5,13.6 -0.6,2.6 -0.9,3.8 0.4,3.8 1.4,0 3.8,-4.1 3.8,-4.1 l 2.1,1.5 c 0,0 -3.6,8 -12.3,8 -8.6,0 -8.1,-6.8 -8.1,-6.8 0,-2 0.4,-3.4 0.9,-5.2 0.5,-1.8 2.3,-8.8 2.7,-10.8 h -4.6 c 0.2,-1.2 0.5,-3.1 0.5,-3.1 h 4.9 z"
     id="path66"
     style="fill:#ffffff" /><path
     class="st1"
     d="m 289.3,50.2 c 0,2.2 -3.2,2.9 -4.4,2.9 -1.2,0 -2.4,-0.6 -2.4,-0.6 0,0 1.4,-0.8 1.4,-3.1 0,-3.9 -3.6,-4.2 -4.7,-4.2 -1.1,0 -4.7,0.8 -4.7,4.3 0,5.3 7.9,6.9 12.2,6.9 4.3,0 16.3,-1.2 16.3,-9.7 0,-8.5 -11.8,-6.7 -11.8,-11.7 0,-2.4 2.1,-2.8 3.3,-2.8 1.2,0 2,0.5 2,0.5 0,0 -1,0.9 -1,2.5 0,2.6 2.4,3.9 4.6,3.9 2.2,0 3.8,-1.8 3.8,-3.9 0,-2.1 -0.6,-5.8 -10.6,-5.8 -10,0 -14.8,3.3 -14.8,8.9 0,7.4 10.8,6.4 10.8,11.9 z"
     id="path68"
     style="fill:#ffffff" /></g>
	</svg>
