<?xml version="1.0" encoding="UTF-8" standalone="no"?>
<!-- Created with Inkscape (http://www.inkscape.org/) -->

<svg
   width="29.651325mm"
   height="17.516232mm"
   viewBox="0 0 29.651325 17.516232"
   version="1.1"
   id="svg10249"
   xmlns="http://www.w3.org/2000/svg"
   xmlns:svg="http://www.w3.org/2000/svg">
  <defs
     id="defs10246" />
  <g
     id="layer1"
     transform="translate(-90.302909,-139.50617)">
    <g
       id="g9943"
       transform="matrix(0.35277777,0,0,-0.35277777,31.750619,309.5063)">
      <path
         d="m 207.881,481.769 c -5.547,0 -10.045,-5.243 -10.045,-11.711 0,-6.468 4.498,-11.711 10.045,-11.711 5.547,0 10.045,5.243 10.045,11.711 0,6.468 -4.498,11.711 -10.045,11.711 v 0"
         style="fill:#ed192d;fill-opacity:1;fill-rule:nonzero;stroke:none;stroke-width:0.1"
         id="path610" />
      <path
         d="m 200.878,464.454 c -0.9,1.602 -1.425,3.53 -1.425,5.604 0,2.074 0.525,4.002 1.425,5.604 v -11.208 0"
         style="fill:#ffffff;fill-opacity:1;fill-rule:nonzero;stroke:none;stroke-width:0.1"
         id="path612" />
      <path
         d="m 203.014,478.28 c 0.561,0.474 1.172,0.869 1.823,1.17 v -18.785 c -0.651,0.301 -1.262,0.696 -1.823,1.171 v 16.444 0"
         style="fill:#ffffff;fill-opacity:1;fill-rule:nonzero;stroke:none;stroke-width:0.1"
         id="path614" />
      <path
         d="m 206.973,480.07 c 0.298,0.038 0.601,0.058 0.908,0.058 0.309,0 0.614,-0.021 0.915,-0.059 v -20.022 c -0.301,-0.039 -0.606,-0.059 -0.915,-0.059 -0.307,0 -0.61,0.02 -0.908,0.058 v 20.024 0"
         style="fill:#ffffff;fill-opacity:1;fill-rule:nonzero;stroke:none;stroke-width:0.1"
         id="path616" />
      <path
         d="m 210.932,479.447 c 0.65,-0.301 1.262,-0.697 1.822,-1.172 v -16.434 c -0.56,-0.476 -1.172,-0.871 -1.822,-1.173 v 18.779 0"
         style="fill:#ffffff;fill-opacity:1;fill-rule:nonzero;stroke:none;stroke-width:0.1"
         id="path618" />
      <path
         d="m 214.89,475.65 c 0.896,-1.6 1.419,-3.522 1.419,-5.592 0,-2.07 -0.523,-3.993 -1.419,-5.593 v 11.185 0"
         style="fill:#ffffff;fill-opacity:1;fill-rule:nonzero;stroke:none;stroke-width:0.1"
         id="path620" />
      <path
         d="m 212.754,479.284 v -0.561 c -0.564,0.449 -1.175,0.822 -1.822,1.108 v 0.487 c 0.643,-0.265 1.253,-0.614 1.822,-1.034 v 0"
         style="fill:#ffffff;fill-opacity:1;fill-rule:nonzero;stroke:none;stroke-width:0.1"
         id="path622" />
      <path
         d="m 207.881,480.929 c 0.309,0 0.614,-0.018 0.915,-0.053 v -0.453 c -0.301,0.037 -0.606,0.056 -0.915,0.056 -0.307,0 -0.609,-0.018 -0.908,-0.056 v 0.454 c 0.299,0.034 0.601,0.052 0.908,0.052 v 0"
         style="fill:#ffffff;fill-opacity:1;fill-rule:nonzero;stroke:none;stroke-width:0.1"
         id="path624" />
      <path
         d="m 204.837,480.321 v -0.487 c -0.647,-0.285 -1.258,-0.658 -1.823,-1.106 v 0.562 c 0.569,0.418 1.18,0.765 1.823,1.031 v 0"
         style="fill:#ffffff;fill-opacity:1;fill-rule:nonzero;stroke:none;stroke-width:0.1"
         id="path626" />
      <path
         d="m 198.668,470.058 c 0,2.696 0.833,5.163 2.21,7.063 v -0.79 c -1.109,-1.745 -1.767,-3.917 -1.767,-6.273 0,-2.355 0.658,-4.529 1.767,-6.274 v -0.79 c -1.377,1.9 -2.21,4.367 -2.21,7.064 v 0"
         style="fill:#ffffff;fill-opacity:1;fill-rule:nonzero;stroke:none;stroke-width:0.1"
         id="path628" />
      <path
         d="m 203.014,460.826 v 0.562 c 0.565,-0.448 1.176,-0.822 1.823,-1.106 v -0.487 c -0.643,0.266 -1.254,0.613 -1.823,1.031 v 0"
         style="fill:#ffffff;fill-opacity:1;fill-rule:nonzero;stroke:none;stroke-width:0.1"
         id="path630" />
      <path
         d="m 207.881,459.187 c -0.307,0 -0.609,0.018 -0.908,0.052 v 0.453 c 0.299,-0.037 0.601,-0.056 0.908,-0.056 0.309,0 0.614,0.02 0.915,0.056 v -0.452 c -0.301,-0.035 -0.606,-0.053 -0.915,-0.053 v 0"
         style="fill:#ffffff;fill-opacity:1;fill-rule:nonzero;stroke:none;stroke-width:0.1"
         id="path632" />
      <path
         d="m 210.932,459.797 v 0.488 c 0.647,0.285 1.258,0.658 1.822,1.108 v -0.561 c -0.569,-0.419 -1.179,-0.768 -1.822,-1.035 v 0"
         style="fill:#ffffff;fill-opacity:1;fill-rule:nonzero;stroke:none;stroke-width:0.1"
         id="path634" />
      <path
         d="m 214.89,463.794 c 1.105,1.744 1.761,3.913 1.761,6.264 0,2.351 -0.656,4.52 -1.761,6.263 v 0.792 c 1.374,-1.899 2.204,-4.363 2.204,-7.055 0,-2.693 -0.83,-5.156 -2.204,-7.055 v 0.791 0"
         style="fill:#ffffff;fill-opacity:1;fill-rule:nonzero;stroke:none;stroke-width:0.1"
         id="path636" />
      <path
         d="m 217.663,459.545 c 0.068,0.292 0.31,0.572 0.47,0.81 -0.206,0.101 -0.469,0.24 -0.648,0.395 0.395,0.596 0.536,0.894 0.601,1.611 l -0.054,3.714 h -0.052 c -0.324,-1.116 -0.758,-2.35 -1.377,-3.259 -0.176,-0.259 -0.211,-0.327 -0.31,-0.48 -0.122,-0.187 -0.385,-0.573 -0.375,-1.229 -0.223,-0.046 -0.492,0.012 -0.751,0.032 0.032,-0.282 0.067,-0.337 -0.006,-0.796 -1.074,-0.041 -1.279,-0.697 -2.436,-1.297 -0.53,-0.274 -0.755,-0.387 -1.454,-0.647 v -0.061 c 2.174,0.069 3.133,-0.286 4.344,0.528 0.142,-0.187 0.215,-0.446 0.309,-0.667 0.171,0.135 0.54,0.378 0.819,0.45 0.321,-0.316 0.795,-0.491 1.345,-0.442 0.077,0.443 -0.078,1.038 -0.425,1.338 v 0"
         style="fill:#ed192d;fill-opacity:1;fill-rule:nonzero;stroke:none;stroke-width:0.1"
         id="path638" />
      <path
         d="m 217.851,460.28 c -0.142,-0.058 -0.883,-0.306 -0.883,-0.306 l -0.009,-0.01 c -0.004,0.06 -0.018,0.118 -0.043,0.172 l -0.003,0.013 c 0.259,0.155 0.39,0.36 0.394,0.394 -0.002,0.003 0.026,0.03 0.027,0.03 0.002,-10e-4 0.002,-0.002 0.002,-0.004 0.022,-0.03 0.314,-0.247 0.515,-0.289 v 0"
         style="fill:#ffffff;fill-opacity:1;fill-rule:nonzero;stroke:none;stroke-width:0.1"
         id="path640" />
      <path
         d="m 217.335,463.65 c 0.573,1.481 0.472,1.53 0.635,2.145 -0.166,-2.07 -0.785,-3.777 -1.384,-5.343 0,0 -0.137,0.042 -0.208,0.029 -0.124,0.144 -0.151,0.347 -0.151,0.347 -0.309,1.01 0.658,1.659 1.108,2.822 v 0"
         style="fill:#ffffff;fill-opacity:1;fill-rule:nonzero;stroke:none;stroke-width:0.1"
         id="path642" />
      <path
         d="m 215.388,460.914 0.659,-0.549 0.003,-0.005 c -0.02,-0.014 -0.039,-0.029 -0.056,-0.047 -0.032,-0.032 -0.058,-0.067 -0.079,-0.104 l -0.004,-0.009 c -0.32,0.156 -0.529,0.153 -0.529,0.153 0.081,0.347 0.006,0.561 0.006,0.561 v 0"
         style="fill:#ffffff;fill-opacity:1;fill-rule:nonzero;stroke:none;stroke-width:0.1"
         id="path644" />
      <path
         d="m 211.592,458.432 0.843,0.262 c 1.333,0.478 1.812,1.474 2.815,1.417 0.215,-0.023 0.394,-0.065 0.572,-0.165 v 0 c -0.007,-0.066 0.013,-0.142 0.032,-0.206 h -0.014 c -0.837,-0.507 -2.672,-1.084 -4.248,-1.308 v 0"
         style="fill:#ffffff;fill-opacity:1;fill-rule:nonzero;stroke:none;stroke-width:0.1"
         id="path646" />
      <path
         d="m 216.009,458.476 c -0.039,0.104 -0.061,0.349 -0.21,0.515 0.201,0.171 0.244,0.264 0.312,0.432 l 0.005,-0.003 c 0.063,-0.037 0.134,-0.059 0.205,-0.065 l 0.008,0.002 -0.32,-0.881 v 0"
         style="fill:#ffffff;fill-opacity:1;fill-rule:nonzero;stroke:none;stroke-width:0.1"
         id="path648" />
      <path
         d="m 216.164,459.68 c -0.129,0.129 -0.128,0.337 0.001,0.465 0.129,0.128 0.337,0.128 0.465,-10e-4 0.128,-0.129 0.128,-0.337 -0.001,-0.465 -0.129,-0.129 -0.337,-0.128 -0.465,0.001 v 0"
         style="fill:#ffffff;fill-opacity:1;fill-rule:nonzero;stroke:none;stroke-width:0.1"
         id="path650" />
      <path
         d="m 216.8,458.935 c -0.149,0.172 -0.137,0.228 -0.193,0.461 0.073,0.022 0.183,0.099 0.236,0.171 l 1.027,-1.108 c -0.381,-0.035 -0.834,0.186 -1.07,0.476 v 0"
         style="fill:#ffffff;fill-opacity:1;fill-rule:nonzero;stroke:none;stroke-width:0.1"
         id="path652" />
      <path
         d="m 217.663,480.524 c 0.068,-0.291 0.31,-0.572 0.47,-0.81 -0.206,-0.101 -0.469,-0.239 -0.648,-0.395 0.395,-0.595 0.536,-0.894 0.601,-1.61 l -0.054,-3.714 h -0.052 c -0.324,1.116 -0.758,2.349 -1.377,3.259 -0.176,0.259 -0.211,0.327 -0.31,0.479 -0.122,0.188 -0.385,0.573 -0.375,1.23 -0.223,0.045 -0.492,-0.012 -0.751,-0.032 0.032,0.281 0.067,0.336 -0.006,0.796 -1.074,0.04 -1.279,0.696 -2.436,1.296 -0.53,0.274 -0.755,0.387 -1.454,0.647 v 0.062 c 2.174,-0.07 3.133,0.285 4.344,-0.529 0.142,0.188 0.215,0.446 0.309,0.667 0.171,-0.135 0.54,-0.378 0.819,-0.45 0.321,0.316 0.795,0.492 1.345,0.442 0.077,-0.442 -0.078,-1.038 -0.425,-1.338 v 0"
         style="fill:#ed192d;fill-opacity:1;fill-rule:nonzero;stroke:none;stroke-width:0.1"
         id="path654" />
      <path
         d="m 217.851,479.789 c -0.142,0.058 -0.883,0.306 -0.883,0.306 l -0.009,0.01 c -0.004,-0.06 -0.018,-0.118 -0.043,-0.172 l -0.003,-0.013 c 0.259,-0.155 0.39,-0.359 0.394,-0.394 -0.002,-0.003 0.026,-0.03 0.027,-0.03 0.002,0.001 0.002,0.002 0.002,0.004 0.022,0.03 0.314,0.248 0.515,0.289 v 0"
         style="fill:#ffffff;fill-opacity:1;fill-rule:nonzero;stroke:none;stroke-width:0.1"
         id="path656" />
      <path
         d="m 217.335,476.42 c 0.573,-1.482 0.472,-1.53 0.635,-2.146 -0.166,2.07 -0.785,3.777 -1.384,5.343 0,0 -0.137,-0.042 -0.208,-0.028 -0.124,-0.144 -0.151,-0.348 -0.151,-0.348 -0.309,-1.01 0.658,-1.658 1.108,-2.821 v 0"
         style="fill:#ffffff;fill-opacity:1;fill-rule:nonzero;stroke:none;stroke-width:0.1"
         id="path658" />
      <path
         d="m 215.388,479.155 0.659,0.549 0.003,0.005 c -0.02,0.015 -0.039,0.03 -0.056,0.047 -0.032,0.032 -0.058,0.067 -0.079,0.104 l -0.004,0.01 c -0.32,-0.156 -0.529,-0.154 -0.529,-0.154 0.081,-0.347 0.006,-0.561 0.006,-0.561 v 0"
         style="fill:#ffffff;fill-opacity:1;fill-rule:nonzero;stroke:none;stroke-width:0.1"
         id="path660" />
      <path
         d="m 211.592,481.638 0.843,-0.263 c 1.333,-0.478 1.812,-1.473 2.815,-1.416 0.215,0.023 0.394,0.064 0.572,0.164 v 0 c -0.007,0.066 0.013,0.142 0.032,0.206 h -0.014 c -0.837,0.507 -2.672,1.084 -4.248,1.309 v 0"
         style="fill:#ffffff;fill-opacity:1;fill-rule:nonzero;stroke:none;stroke-width:0.1"
         id="path662" />
      <path
         d="m 216.009,481.593 c -0.039,-0.104 -0.061,-0.348 -0.21,-0.515 0.201,-0.17 0.244,-0.264 0.312,-0.432 l 0.005,0.003 c 0.063,0.038 0.134,0.06 0.205,0.065 l 0.008,-0.002 -0.32,0.881 v 0"
         style="fill:#ffffff;fill-opacity:1;fill-rule:nonzero;stroke:none;stroke-width:0.1"
         id="path664" />
      <path
         d="m 216.164,480.389 c -0.129,-0.129 -0.128,-0.336 0.001,-0.464 0.129,-0.129 0.337,-0.128 0.465,0 0.128,0.129 0.128,0.338 -0.001,0.466 -0.129,0.128 -0.337,0.127 -0.465,-0.002 v 0"
         style="fill:#ffffff;fill-opacity:1;fill-rule:nonzero;stroke:none;stroke-width:0.1"
         id="path666" />
      <path
         d="m 216.8,481.135 c -0.149,-0.173 -0.137,-0.229 -0.193,-0.462 0.073,-0.021 0.183,-0.098 0.236,-0.171 l 1.027,1.108 c -0.381,0.036 -0.834,-0.186 -1.07,-0.475 v 0"
         style="fill:#ffffff;fill-opacity:1;fill-rule:nonzero;stroke:none;stroke-width:0.1"
         id="path668" />
      <path
         d="m 198.1,459.565 c -0.068,0.291 -0.31,0.572 -0.469,0.81 0.205,0.101 0.468,0.24 0.647,0.395 -0.394,0.596 -0.536,0.894 -0.6,1.611 l 0.053,3.714 h 0.052 c 0.325,-1.117 0.758,-2.35 1.377,-3.26 0.176,-0.259 0.211,-0.326 0.31,-0.478 0.123,-0.188 0.385,-0.573 0.376,-1.23 0.223,-0.046 0.492,0.012 0.75,0.031 -0.031,-0.281 -0.067,-0.335 0.006,-0.795 1.074,-0.041 1.28,-0.697 2.436,-1.297 0.531,-0.274 0.755,-0.387 1.454,-0.646 v -0.063 c -2.173,0.07 -3.133,-0.285 -4.344,0.529 -0.141,-0.188 -0.215,-0.446 -0.308,-0.666 -0.172,0.134 -0.54,0.377 -0.82,0.449 -0.321,-0.316 -0.794,-0.492 -1.344,-0.442 -0.078,0.443 0.077,1.038 0.424,1.338 v 0"
         style="fill:#ed192d;fill-opacity:1;fill-rule:nonzero;stroke:none;stroke-width:0.1"
         id="path670" />
      <path
         d="m 197.912,460.3 c 0.142,-0.058 0.884,-0.306 0.884,-0.306 l 0.009,-0.01 c 0.003,0.06 0.017,0.118 0.042,0.172 l 0.004,0.013 c -0.259,0.155 -0.391,0.361 -0.395,0.395 0.002,0.002 -0.025,0.029 -0.027,0.029 -0.001,-0.001 -0.002,-0.002 -0.002,-0.004 -0.021,-0.03 -0.313,-0.247 -0.515,-0.289 v 0"
         style="fill:#ffffff;fill-opacity:1;fill-rule:nonzero;stroke:none;stroke-width:0.1"
         id="path672" />
      <path
         d="m 198.428,463.67 c -0.573,1.481 -0.472,1.53 -0.634,2.146 0.165,-2.071 0.784,-3.778 1.383,-5.344 0,0 0.137,0.042 0.208,0.028 0.125,0.144 0.152,0.348 0.152,0.348 0.309,1.01 -0.658,1.658 -1.109,2.822 v 0"
         style="fill:#ffffff;fill-opacity:1;fill-rule:nonzero;stroke:none;stroke-width:0.1"
         id="path674" />
      <path
         d="m 200.376,460.934 -0.66,-0.549 -0.002,-0.005 c 0.019,-0.014 0.038,-0.03 0.055,-0.047 0.032,-0.032 0.058,-0.067 0.079,-0.104 l 0.004,-0.01 c 0.321,0.156 0.53,0.154 0.53,0.154 -0.081,0.347 -0.006,0.561 -0.006,0.561 v 0"
         style="fill:#ffffff;fill-opacity:1;fill-rule:nonzero;stroke:none;stroke-width:0.1"
         id="path676" />
      <path
         d="m 204.172,458.451 -0.844,0.263 c -1.333,0.479 -1.811,1.474 -2.815,1.417 -0.214,-0.022 -0.394,-0.065 -0.571,-0.164 v 0 c 0.007,-0.067 -0.014,-0.143 -0.033,-0.207 h 0.015 c 0.837,-0.507 2.671,-1.083 4.248,-1.309 v 0"
         style="fill:#ffffff;fill-opacity:1;fill-rule:nonzero;stroke:none;stroke-width:0.1"
         id="path678" />
      <path
         d="m 199.754,458.496 c 0.039,0.104 0.061,0.349 0.211,0.514 -0.202,0.172 -0.245,0.266 -0.312,0.433 l -0.005,-0.002 c -0.064,-0.038 -0.134,-0.06 -0.206,-0.066 l -0.008,0.002 0.32,-0.881 v 0"
         style="fill:#ffffff;fill-opacity:1;fill-rule:nonzero;stroke:none;stroke-width:0.1"
         id="path680" />
      <path
         d="m 199.6,459.7 c 0.128,0.129 0.127,0.337 -0.002,0.465 -0.128,0.128 -0.337,0.128 -0.464,-0.001 -0.128,-0.129 -0.128,-0.337 0.001,-0.465 0.128,-0.129 0.337,-0.128 0.465,10e-4 v 0"
         style="fill:#ffffff;fill-opacity:1;fill-rule:nonzero;stroke:none;stroke-width:0.1"
         id="path682" />
      <path
         d="m 198.964,458.954 c 0.148,0.173 0.137,0.229 0.192,0.463 -0.073,0.02 -0.183,0.097 -0.235,0.169 l -1.028,-1.106 c 0.382,-0.036 0.834,0.186 1.071,0.474 v 0"
         style="fill:#ffffff;fill-opacity:1;fill-rule:nonzero;stroke:none;stroke-width:0.1"
         id="path684" />
      <path
         d="m 198.1,480.545 c -0.068,-0.292 -0.31,-0.573 -0.469,-0.811 0.205,-0.101 0.468,-0.24 0.647,-0.395 -0.394,-0.595 -0.536,-0.894 -0.6,-1.611 l 0.053,-3.714 h 0.052 c 0.325,1.117 0.758,2.35 1.377,3.261 0.176,0.258 0.211,0.325 0.31,0.478 0.123,0.188 0.385,0.573 0.376,1.23 0.223,0.045 0.492,-0.013 0.75,-0.032 -0.031,0.281 -0.067,0.335 0.006,0.795 1.074,0.041 1.28,0.697 2.436,1.297 0.531,0.275 0.755,0.387 1.454,0.647 v 0.062 c -2.173,-0.069 -3.133,0.285 -4.344,-0.528 -0.141,0.187 -0.215,0.446 -0.308,0.666 -0.172,-0.135 -0.54,-0.378 -0.82,-0.45 -0.321,0.316 -0.794,0.491 -1.344,0.442 -0.078,-0.443 0.077,-1.038 0.424,-1.337 v 0"
         style="fill:#ed192d;fill-opacity:1;fill-rule:nonzero;stroke:none;stroke-width:0.1"
         id="path686" />
      <path
         d="m 197.912,479.809 c 0.142,0.058 0.884,0.306 0.884,0.306 l 0.009,0.01 c 0.003,-0.059 0.017,-0.118 0.042,-0.172 l 0.004,-0.013 c -0.259,-0.155 -0.391,-0.36 -0.395,-0.394 0.002,-0.003 -0.025,-0.03 -0.027,-0.03 -0.001,10e-4 -0.002,0.002 -0.002,0.005 -0.021,0.029 -0.313,0.246 -0.515,0.288 v 0"
         style="fill:#ffffff;fill-opacity:1;fill-rule:nonzero;stroke:none;stroke-width:0.1"
         id="path688" />
      <path
         d="m 198.428,476.439 c -0.573,-1.481 -0.472,-1.529 -0.634,-2.145 0.165,2.07 0.784,3.778 1.383,5.344 0,0 0.137,-0.042 0.208,-0.029 0.125,-0.144 0.152,-0.348 0.152,-0.348 0.309,-1.01 -0.658,-1.658 -1.109,-2.822 v 0"
         style="fill:#ffffff;fill-opacity:1;fill-rule:nonzero;stroke:none;stroke-width:0.1"
         id="path690" />
      <path
         d="m 200.376,479.175 -0.66,0.55 -0.002,0.004 c 0.019,0.014 0.038,0.03 0.055,0.047 0.032,0.032 0.058,0.067 0.079,0.104 l 0.004,0.01 c 0.321,-0.157 0.53,-0.154 0.53,-0.154 -0.081,-0.347 -0.006,-0.561 -0.006,-0.561 v 0"
         style="fill:#ffffff;fill-opacity:1;fill-rule:nonzero;stroke:none;stroke-width:0.1"
         id="path692" />
      <path
         d="m 204.172,481.659 -0.844,-0.264 c -1.333,-0.478 -1.811,-1.474 -2.815,-1.417 -0.214,0.023 -0.394,0.066 -0.571,0.165 v 0 c 0.007,0.066 -0.014,0.142 -0.033,0.206 h 0.015 c 0.837,0.507 2.671,1.084 4.248,1.31 v 0"
         style="fill:#ffffff;fill-opacity:1;fill-rule:nonzero;stroke:none;stroke-width:0.1"
         id="path694" />
      <path
         d="m 199.754,481.613 c 0.039,-0.104 0.061,-0.349 0.211,-0.515 -0.202,-0.171 -0.245,-0.264 -0.312,-0.432 l -0.005,0.003 c -0.064,0.037 -0.134,0.059 -0.206,0.065 l -0.008,-10e-4 0.32,0.88 v 0"
         style="fill:#ffffff;fill-opacity:1;fill-rule:nonzero;stroke:none;stroke-width:0.1"
         id="path696" />
      <path
         d="m 199.6,480.409 c 0.128,-0.129 0.127,-0.337 -0.002,-0.465 -0.128,-0.128 -0.337,-0.127 -0.464,10e-4 -0.128,0.129 -0.128,0.337 0.001,0.466 0.128,0.128 0.337,0.127 0.465,-0.002 v 0"
         style="fill:#ffffff;fill-opacity:1;fill-rule:nonzero;stroke:none;stroke-width:0.1"
         id="path698" />
      <path
         d="m 198.964,481.155 c 0.148,-0.173 0.137,-0.229 0.192,-0.462 -0.073,-0.022 -0.183,-0.098 -0.235,-0.17 l -1.028,1.107 c 0.382,0.035 0.834,-0.186 1.071,-0.475 v 0"
         style="fill:#ffffff;fill-opacity:1;fill-rule:nonzero;stroke:none;stroke-width:0.1"
         id="path700" />
      <path
         d="m 178.606,434.429 c 0.007,-0.353 -0.062,-0.661 -0.206,-0.923 -0.143,-0.262 -0.4,-0.399 -0.77,-0.413 -0.234,0.004 -0.425,0.071 -0.573,0.2 -0.147,0.13 -0.255,0.295 -0.325,0.496 -0.069,0.201 -0.103,0.412 -0.103,0.632 -0.004,0.353 0.069,0.658 0.221,0.915 0.153,0.258 0.412,0.393 0.78,0.406 0.363,-0.013 0.617,-0.148 0.764,-0.405 0.147,-0.256 0.218,-0.559 0.212,-0.908 z m 0.016,-2.079 h 1.079 v 5.711 h -1.135 v -2.079 h -0.016 c -0.132,0.203 -0.308,0.357 -0.525,0.46 -0.218,0.103 -0.451,0.154 -0.7,0.155 -0.405,-0.006 -0.743,-0.109 -1.015,-0.309 -0.271,-0.2 -0.475,-0.461 -0.611,-0.785 -0.137,-0.323 -0.205,-0.673 -0.205,-1.05 0,-0.387 0.068,-0.748 0.204,-1.083 0.136,-0.334 0.341,-0.605 0.616,-0.812 0.275,-0.207 0.62,-0.314 1.035,-0.32 0.268,-0.002 0.51,0.049 0.728,0.151 0.218,0.103 0.394,0.265 0.529,0.488 h 0.016 v -0.527 0"
         style="fill:#ffffff;fill-opacity:1;fill-rule:evenodd;stroke:none;stroke-width:0.1"
         id="path702" />
      <path
         d="m 181.491,434.86 c 0.003,0.112 0.034,0.236 0.092,0.372 0.058,0.135 0.155,0.252 0.291,0.353 0.136,0.1 0.323,0.152 0.561,0.157 0.273,-0.001 0.479,-0.076 0.62,-0.224 0.141,-0.149 0.235,-0.369 0.284,-0.658 z m 2.984,-0.718 c 0.027,0.431 -0.031,0.831 -0.172,1.201 -0.141,0.371 -0.365,0.671 -0.672,0.9 -0.307,0.229 -0.695,0.347 -1.164,0.354 -0.421,-0.004 -0.79,-0.101 -1.105,-0.29 -0.316,-0.19 -0.562,-0.449 -0.738,-0.777 -0.176,-0.327 -0.265,-0.699 -0.268,-1.117 0.007,-0.65 0.196,-1.173 0.567,-1.568 0.371,-0.394 0.885,-0.597 1.544,-0.607 0.47,-0.004 0.87,0.107 1.199,0.33 0.329,0.223 0.575,0.576 0.737,1.061 h -1 c -0.04,-0.134 -0.142,-0.256 -0.304,-0.364 -0.162,-0.109 -0.359,-0.166 -0.592,-0.172 -0.317,-0.002 -0.561,0.083 -0.733,0.254 -0.172,0.171 -0.266,0.436 -0.283,0.795 h 2.984 v 0"
         style="fill:#ffffff;fill-opacity:1;fill-rule:evenodd;stroke:none;stroke-width:0.1"
         id="path704" />
      <path
         d="m 187.394,432.35 h 1.136 v 5.711 h -1.136 v -5.711 0"
         style="fill:#ffffff;fill-opacity:1;fill-rule:nonzero;stroke:none;stroke-width:0.1"
         id="path706" />
      <path
         d="m 190.519,435.213 c 0.022,0.223 0.098,0.382 0.229,0.48 0.132,0.099 0.306,0.146 0.524,0.145 0.206,0.007 0.379,-0.025 0.518,-0.097 0.14,-0.072 0.213,-0.227 0.219,-0.464 -0.013,-0.219 -0.15,-0.354 -0.412,-0.407 -0.262,-0.052 -0.573,-0.097 -0.934,-0.137 -0.238,-0.028 -0.465,-0.082 -0.677,-0.16 -0.213,-0.079 -0.387,-0.204 -0.521,-0.375 -0.135,-0.173 -0.205,-0.413 -0.209,-0.721 0.01,-0.423 0.147,-0.735 0.41,-0.938 0.263,-0.202 0.596,-0.303 0.997,-0.301 0.257,-0.003 0.507,0.036 0.751,0.115 0.244,0.078 0.458,0.211 0.642,0.396 0.005,-0.068 0.014,-0.136 0.028,-0.203 0.014,-0.067 0.032,-0.132 0.052,-0.196 h 1.151 c -0.051,0.089 -0.089,0.215 -0.11,0.382 -0.023,0.166 -0.034,0.344 -0.034,0.537 v 2.152 c -0.007,0.327 -0.103,0.576 -0.287,0.746 -0.185,0.17 -0.415,0.285 -0.691,0.345 -0.276,0.06 -0.555,0.089 -0.837,0.085 -0.316,0.003 -0.616,-0.038 -0.902,-0.123 -0.287,-0.084 -0.525,-0.226 -0.716,-0.429 -0.19,-0.203 -0.299,-0.479 -0.326,-0.832 z m 1.49,-1.264 c 0.004,-0.09 -0.009,-0.209 -0.042,-0.357 -0.033,-0.149 -0.114,-0.283 -0.246,-0.403 -0.131,-0.121 -0.342,-0.185 -0.633,-0.192 -0.19,-0.005 -0.352,0.03 -0.487,0.105 -0.133,0.075 -0.204,0.216 -0.21,0.423 0.006,0.203 0.074,0.347 0.204,0.433 0.13,0.087 0.287,0.145 0.469,0.175 0.181,0.028 0.359,0.055 0.532,0.081 0.173,0.027 0.311,0.08 0.413,0.16 v -0.425 0"
         style="fill:#ffffff;fill-opacity:1;fill-rule:evenodd;stroke:none;stroke-width:0.1"
         id="path708" />
      <path
         d="m 197.614,437.086 h 0.976 c 0.302,0.009 0.559,-0.042 0.772,-0.155 0.212,-0.114 0.323,-0.347 0.333,-0.702 -0.01,-0.354 -0.121,-0.588 -0.333,-0.701 -0.213,-0.113 -0.47,-0.165 -0.772,-0.155 h -0.976 z m -1.255,-4.736 h 1.255 v 2.048 h 1.32 c 0.473,0.005 0.855,0.095 1.145,0.269 0.291,0.173 0.502,0.399 0.635,0.675 0.132,0.276 0.198,0.572 0.195,0.887 0.003,0.315 -0.063,0.611 -0.195,0.888 -0.133,0.276 -0.344,0.502 -0.635,0.675 -0.29,0.174 -0.672,0.263 -1.145,0.269 h -2.575 v -5.711 0"
         style="fill:#ffffff;fill-opacity:1;fill-rule:evenodd;stroke:none;stroke-width:0.1"
         id="path710" />
      <path
         d="m 201.572,432.35 h 1.135 v 1.863 c -0.006,0.374 0.077,0.687 0.248,0.937 0.171,0.251 0.461,0.382 0.872,0.392 0.07,0 0.142,-0.004 0.216,-0.011 0.074,-0.007 0.138,-0.017 0.192,-0.029 v 1.055 c -0.037,0.012 -0.077,0.022 -0.121,0.029 -0.044,0.007 -0.086,0.01 -0.127,0.011 -0.284,-0.005 -0.547,-0.086 -0.789,-0.245 -0.243,-0.159 -0.42,-0.37 -0.531,-0.635 h -0.016 v 0.767 h -1.079 v -4.134 0"
         style="fill:#ffffff;fill-opacity:1;fill-rule:nonzero;stroke:none;stroke-width:0.1"
         id="path712" />
      <path
         d="m 205.493,434.86 c 0.003,0.112 0.034,0.236 0.092,0.372 0.058,0.135 0.155,0.252 0.291,0.353 0.136,0.1 0.323,0.152 0.561,0.157 0.273,-0.001 0.48,-0.076 0.62,-0.224 0.141,-0.149 0.236,-0.369 0.284,-0.658 z m 2.984,-0.718 c 0.027,0.431 -0.031,0.831 -0.172,1.201 -0.141,0.371 -0.365,0.671 -0.672,0.9 -0.306,0.229 -0.694,0.347 -1.164,0.354 -0.421,-0.004 -0.79,-0.101 -1.105,-0.29 -0.316,-0.19 -0.562,-0.449 -0.738,-0.777 -0.176,-0.327 -0.265,-0.699 -0.268,-1.117 0.007,-0.65 0.195,-1.173 0.567,-1.568 0.371,-0.394 0.886,-0.597 1.544,-0.607 0.47,-0.004 0.87,0.107 1.199,0.33 0.329,0.223 0.575,0.576 0.737,1.061 h -1 c -0.04,-0.134 -0.142,-0.256 -0.304,-0.364 -0.162,-0.109 -0.36,-0.166 -0.592,-0.172 -0.317,-0.002 -0.561,0.083 -0.733,0.254 -0.172,0.171 -0.266,0.436 -0.283,0.795 h 2.984 v 0"
         style="fill:#ffffff;fill-opacity:1;fill-rule:evenodd;stroke:none;stroke-width:0.1"
         id="path714" />
      <path
         d="m 208.946,433.693 c 0.021,-0.362 0.125,-0.651 0.311,-0.864 0.187,-0.213 0.424,-0.366 0.712,-0.457 0.288,-0.092 0.595,-0.137 0.92,-0.134 0.321,-0.003 0.623,0.041 0.909,0.132 0.285,0.089 0.519,0.239 0.699,0.45 0.18,0.211 0.274,0.497 0.28,0.857 -0.014,0.375 -0.149,0.645 -0.407,0.811 -0.258,0.166 -0.56,0.283 -0.905,0.349 -0.337,0.067 -0.633,0.138 -0.887,0.212 -0.255,0.076 -0.388,0.21 -0.401,0.405 0.01,0.163 0.083,0.269 0.22,0.318 0.136,0.049 0.274,0.071 0.412,0.066 0.209,0.004 0.386,-0.034 0.529,-0.115 0.144,-0.081 0.227,-0.23 0.247,-0.446 h 1.08 c -0.034,0.336 -0.137,0.601 -0.311,0.794 -0.174,0.193 -0.393,0.33 -0.658,0.41 -0.264,0.08 -0.549,0.119 -0.855,0.116 -0.302,0.003 -0.589,-0.033 -0.861,-0.11 -0.273,-0.076 -0.496,-0.211 -0.669,-0.404 -0.174,-0.194 -0.264,-0.465 -0.269,-0.813 0.004,-0.24 0.068,-0.434 0.194,-0.579 0.125,-0.145 0.287,-0.257 0.485,-0.337 0.199,-0.08 0.409,-0.143 0.632,-0.189 0.41,-0.082 0.727,-0.167 0.95,-0.257 0.223,-0.089 0.336,-0.217 0.338,-0.383 -0.01,-0.197 -0.093,-0.335 -0.249,-0.414 -0.155,-0.079 -0.32,-0.117 -0.495,-0.114 -0.232,-0.002 -0.432,0.052 -0.601,0.162 -0.169,0.11 -0.26,0.288 -0.271,0.534 h -1.079 v 0"
         style="fill:#ffffff;fill-opacity:1;fill-rule:nonzero;stroke:none;stroke-width:0.1"
         id="path716" />
      <path
         d="m 214.601,438.061 h -1.134 v -0.935 h 1.134 z m -1.134,-5.711 h 1.134 v 4.134 h -1.134 v -4.134 0"
         style="fill:#ffffff;fill-opacity:1;fill-rule:evenodd;stroke:none;stroke-width:0.1"
         id="path718" />
      <path
         d="m 218.44,434.429 c 0.007,-0.353 -0.062,-0.661 -0.206,-0.923 -0.143,-0.262 -0.4,-0.399 -0.77,-0.413 -0.234,0.004 -0.425,0.071 -0.573,0.2 -0.147,0.13 -0.256,0.295 -0.325,0.496 -0.069,0.201 -0.103,0.412 -0.103,0.632 -0.004,0.353 0.069,0.658 0.221,0.915 0.153,0.258 0.412,0.393 0.78,0.406 0.363,-0.013 0.617,-0.148 0.764,-0.405 0.147,-0.256 0.218,-0.559 0.212,-0.908 z m 0.016,-2.079 h 1.079 v 5.711 H 218.4 v -2.079 h -0.015 c -0.133,0.203 -0.309,0.357 -0.526,0.46 -0.218,0.103 -0.451,0.154 -0.699,0.155 -0.406,-0.006 -0.744,-0.109 -1.016,-0.309 -0.271,-0.2 -0.475,-0.461 -0.611,-0.785 -0.136,-0.323 -0.205,-0.673 -0.205,-1.05 0,-0.387 0.068,-0.748 0.204,-1.083 0.136,-0.334 0.341,-0.605 0.616,-0.812 0.275,-0.207 0.62,-0.314 1.035,-0.32 0.267,-0.002 0.51,0.049 0.728,0.151 0.218,0.103 0.394,0.265 0.529,0.488 h 0.016 v -0.527 0"
         style="fill:#ffffff;fill-opacity:1;fill-rule:evenodd;stroke:none;stroke-width:0.1"
         id="path720" />
      <path
         d="m 222.069,436.998 h 0.792 l -0.768,1.134 h -1.256 z m -0.744,-2.138 c 0.003,0.112 0.034,0.236 0.092,0.372 0.058,0.135 0.155,0.252 0.291,0.353 0.136,0.1 0.323,0.152 0.561,0.157 0.273,-0.001 0.479,-0.076 0.62,-0.224 0.141,-0.149 0.235,-0.369 0.284,-0.658 z m 2.984,-0.718 c 0.026,0.431 -0.031,0.831 -0.172,1.201 -0.142,0.371 -0.365,0.671 -0.672,0.9 -0.307,0.229 -0.695,0.347 -1.164,0.354 -0.421,-0.004 -0.79,-0.101 -1.105,-0.29 -0.316,-0.19 -0.561,-0.449 -0.738,-0.777 -0.176,-0.327 -0.265,-0.699 -0.268,-1.117 0.007,-0.65 0.195,-1.173 0.567,-1.568 0.371,-0.394 0.886,-0.597 1.544,-0.607 0.47,-0.004 0.87,0.107 1.199,0.33 0.329,0.223 0.575,0.576 0.737,1.061 h -1 c -0.04,-0.134 -0.142,-0.256 -0.304,-0.364 -0.162,-0.109 -0.36,-0.166 -0.592,-0.172 -0.317,-0.002 -0.561,0.083 -0.733,0.254 -0.172,0.171 -0.266,0.436 -0.283,0.795 h 2.984 v 0"
         style="fill:#ffffff;fill-opacity:1;fill-rule:evenodd;stroke:none;stroke-width:0.1"
         id="path722" />
      <path
         d="m 224.977,432.35 h 1.136 v 2.168 c -0.002,0.417 0.067,0.719 0.209,0.906 0.141,0.188 0.365,0.281 0.671,0.278 0.262,0 0.449,-0.085 0.562,-0.253 0.114,-0.169 0.169,-0.424 0.166,-0.763 v -2.336 h 1.135 v 2.544 c 0.013,0.519 -0.088,0.93 -0.303,1.235 -0.214,0.305 -0.617,0.46 -1.208,0.468 -0.245,0 -0.48,-0.056 -0.704,-0.17 -0.225,-0.113 -0.412,-0.286 -0.561,-0.517 h -0.024 v 0.574 h -1.079 v -4.134 0"
         style="fill:#ffffff;fill-opacity:1;fill-rule:nonzero;stroke:none;stroke-width:0.1"
         id="path724" />
      <path
         d="m 233.641,435.03 c -0.028,0.351 -0.135,0.643 -0.319,0.875 -0.184,0.232 -0.418,0.405 -0.703,0.52 -0.285,0.115 -0.592,0.172 -0.922,0.172 -0.676,-0.013 -1.196,-0.225 -1.56,-0.637 -0.363,-0.412 -0.547,-0.946 -0.551,-1.603 0.009,-0.631 0.201,-1.139 0.575,-1.525 0.375,-0.385 0.879,-0.583 1.512,-0.594 0.55,0.002 1,0.147 1.35,0.437 0.35,0.288 0.564,0.708 0.642,1.258 h -1.096 c -0.036,-0.256 -0.13,-0.459 -0.281,-0.609 -0.151,-0.151 -0.359,-0.227 -0.623,-0.231 -0.236,0.005 -0.423,0.074 -0.561,0.206 -0.138,0.133 -0.237,0.298 -0.297,0.497 -0.059,0.198 -0.088,0.398 -0.086,0.602 -0.002,0.207 0.028,0.414 0.089,0.619 0.061,0.203 0.162,0.375 0.305,0.511 0.142,0.137 0.333,0.208 0.574,0.214 0.237,-0.001 0.427,-0.062 0.57,-0.182 0.143,-0.12 0.233,-0.297 0.27,-0.53 h 1.112 v 0"
         style="fill:#ffffff;fill-opacity:1;fill-rule:nonzero;stroke:none;stroke-width:0.1"
         id="path726" />
      <path
         d="m 235.469,438.061 h -1.136 v -0.935 h 1.136 z m -1.136,-5.711 h 1.136 v 4.134 h -1.136 v -4.134 0"
         style="fill:#ffffff;fill-opacity:1;fill-rule:evenodd;stroke:none;stroke-width:0.1"
         id="path728" />
      <path
         d="m 237.458,435.213 c 0.022,0.223 0.098,0.382 0.23,0.48 0.13,0.099 0.305,0.146 0.523,0.145 0.206,0.007 0.379,-0.025 0.518,-0.097 0.14,-0.072 0.213,-0.227 0.219,-0.464 -0.013,-0.219 -0.15,-0.354 -0.412,-0.407 -0.262,-0.052 -0.573,-0.097 -0.934,-0.137 -0.238,-0.028 -0.465,-0.082 -0.677,-0.16 -0.213,-0.079 -0.387,-0.204 -0.521,-0.375 -0.135,-0.173 -0.205,-0.413 -0.209,-0.721 0.01,-0.423 0.147,-0.735 0.41,-0.938 0.263,-0.202 0.596,-0.303 0.997,-0.301 0.257,-0.003 0.507,0.036 0.751,0.115 0.244,0.078 0.458,0.211 0.642,0.396 0.005,-0.068 0.014,-0.136 0.028,-0.203 0.014,-0.067 0.032,-0.132 0.052,-0.196 h 1.151 c -0.051,0.089 -0.089,0.215 -0.111,0.382 -0.022,0.166 -0.033,0.344 -0.033,0.537 v 2.152 c -0.007,0.327 -0.103,0.576 -0.287,0.746 -0.185,0.17 -0.415,0.285 -0.691,0.345 -0.276,0.06 -0.555,0.089 -0.837,0.085 -0.315,0.003 -0.616,-0.038 -0.902,-0.123 -0.287,-0.084 -0.525,-0.226 -0.716,-0.429 -0.19,-0.203 -0.299,-0.479 -0.326,-0.832 z m 1.49,-1.264 c 0.004,-0.09 -0.009,-0.209 -0.042,-0.357 -0.033,-0.149 -0.114,-0.283 -0.246,-0.403 -0.131,-0.121 -0.342,-0.185 -0.633,-0.192 -0.19,-0.005 -0.352,0.03 -0.487,0.105 -0.134,0.075 -0.204,0.216 -0.21,0.423 0.006,0.203 0.074,0.347 0.204,0.433 0.13,0.087 0.287,0.145 0.469,0.175 0.181,0.028 0.359,0.055 0.532,0.081 0.173,0.027 0.311,0.08 0.413,0.16 v -0.425 0"
         style="fill:#ffffff;fill-opacity:1;fill-rule:evenodd;stroke:none;stroke-width:0.1"
         id="path730" />
      <path
         d="m 184.739,445.005 h 0.896 c 0.615,-0.006 1.045,-0.177 1.292,-0.511 0.247,-0.335 0.366,-0.794 0.356,-1.377 -0.003,-0.419 -0.073,-0.754 -0.207,-1.006 -0.134,-0.251 -0.309,-0.432 -0.524,-0.543 -0.215,-0.111 -0.446,-0.166 -0.693,-0.163 h -1.12 z m -1.255,-4.655 h 2.463 c 0.581,0.005 1.063,0.132 1.447,0.38 0.384,0.249 0.671,0.589 0.86,1.023 0.19,0.432 0.285,0.928 0.285,1.484 -0.005,0.632 -0.119,1.157 -0.343,1.575 -0.225,0.418 -0.531,0.731 -0.919,0.938 -0.389,0.207 -0.832,0.311 -1.33,0.311 h -2.463 v -5.711 0"
         style="fill:#ffffff;fill-opacity:1;fill-rule:evenodd;stroke:none;stroke-width:0.1"
         id="path732" />
      <path
         d="m 190.229,442.86 c 0.003,0.112 0.033,0.236 0.092,0.372 0.057,0.135 0.154,0.252 0.291,0.353 0.136,0.099 0.322,0.152 0.561,0.157 0.273,-0.001 0.479,-0.075 0.62,-0.224 0.14,-0.149 0.235,-0.368 0.283,-0.658 z m 2.984,-0.718 c 0.026,0.43 -0.032,0.831 -0.173,1.201 -0.141,0.371 -0.364,0.671 -0.671,0.9 -0.307,0.229 -0.695,0.347 -1.164,0.354 -0.422,-0.004 -0.79,-0.101 -1.106,-0.291 -0.315,-0.189 -0.561,-0.448 -0.737,-0.776 -0.176,-0.327 -0.266,-0.699 -0.268,-1.116 0.006,-0.652 0.195,-1.174 0.566,-1.569 0.371,-0.394 0.886,-0.597 1.545,-0.607 0.47,-0.004 0.869,0.106 1.199,0.329 0.329,0.223 0.574,0.577 0.736,1.062 h -1 c -0.04,-0.134 -0.141,-0.256 -0.303,-0.364 -0.163,-0.109 -0.36,-0.165 -0.593,-0.172 -0.317,-0.002 -0.561,0.083 -0.733,0.254 -0.171,0.171 -0.266,0.436 -0.282,0.795 h 2.984 v 0"
         style="fill:#ffffff;fill-opacity:1;fill-rule:evenodd;stroke:none;stroke-width:0.1"
         id="path734" />
      <path
         d="m 195.969,441.093 c -0.364,0.013 -0.622,0.147 -0.773,0.404 -0.151,0.256 -0.225,0.559 -0.22,0.908 -0.002,0.229 0.029,0.443 0.09,0.645 0.061,0.203 0.164,0.367 0.309,0.495 0.144,0.127 0.339,0.193 0.586,0.197 0.241,-0.004 0.435,-0.072 0.58,-0.201 0.146,-0.129 0.252,-0.295 0.317,-0.497 0.065,-0.203 0.096,-0.416 0.095,-0.639 0.006,-0.349 -0.066,-0.652 -0.213,-0.908 -0.147,-0.257 -0.405,-0.391 -0.771,-0.404 z m -2.088,-2.199 h 1.135 v 1.967 h 0.016 c 0.14,-0.204 0.319,-0.358 0.536,-0.464 0.218,-0.105 0.453,-0.159 0.705,-0.159 0.403,0.006 0.738,0.108 1.007,0.308 0.269,0.199 0.471,0.461 0.606,0.783 0.134,0.322 0.202,0.67 0.202,1.044 0.001,0.398 -0.066,0.765 -0.199,1.099 -0.134,0.336 -0.339,0.606 -0.617,0.81 -0.278,0.204 -0.632,0.309 -1.063,0.315 -0.259,0 -0.494,-0.051 -0.707,-0.155 -0.212,-0.104 -0.387,-0.266 -0.526,-0.484 h -0.016 v 0.526 h -1.079 v -5.59 0"
         style="fill:#ffffff;fill-opacity:1;fill-rule:evenodd;stroke:none;stroke-width:0.1"
         id="path736" />
      <path
         d="m 199.854,443.213 c 0.022,0.223 0.098,0.383 0.229,0.48 0.131,0.099 0.305,0.146 0.523,0.144 0.206,0.008 0.379,-0.024 0.519,-0.096 0.139,-0.072 0.212,-0.226 0.218,-0.464 -0.013,-0.219 -0.15,-0.355 -0.412,-0.406 -0.261,-0.053 -0.572,-0.098 -0.933,-0.138 -0.239,-0.028 -0.465,-0.082 -0.677,-0.16 -0.213,-0.078 -0.387,-0.204 -0.522,-0.376 -0.134,-0.171 -0.204,-0.412 -0.208,-0.72 0.009,-0.423 0.146,-0.735 0.41,-0.938 0.263,-0.202 0.595,-0.303 0.997,-0.301 0.256,-0.003 0.506,0.036 0.75,0.115 0.244,0.079 0.459,0.211 0.643,0.397 0.004,-0.069 0.013,-0.137 0.028,-0.204 0.014,-0.066 0.031,-0.132 0.052,-0.196 h 1.151 c -0.052,0.088 -0.089,0.215 -0.111,0.381 -0.023,0.166 -0.034,0.346 -0.033,0.538 v 2.152 c -0.008,0.328 -0.103,0.576 -0.288,0.746 -0.184,0.17 -0.414,0.286 -0.691,0.345 -0.276,0.06 -0.555,0.089 -0.837,0.085 -0.315,0.002 -0.615,-0.038 -0.902,-0.122 -0.287,-0.085 -0.525,-0.228 -0.715,-0.43 -0.191,-0.202 -0.299,-0.479 -0.326,-0.832 z m 1.489,-1.264 c 0.005,-0.09 -0.009,-0.209 -0.041,-0.357 -0.033,-0.149 -0.115,-0.282 -0.246,-0.403 -0.131,-0.121 -0.343,-0.185 -0.634,-0.192 -0.19,-0.005 -0.352,0.03 -0.486,0.105 -0.134,0.074 -0.204,0.215 -0.21,0.423 0.006,0.203 0.074,0.348 0.204,0.433 0.13,0.086 0.286,0.144 0.468,0.175 0.182,0.028 0.359,0.055 0.532,0.081 0.174,0.027 0.311,0.08 0.413,0.159 v -0.424 0"
         style="fill:#ffffff;fill-opacity:1;fill-rule:evenodd;stroke:none;stroke-width:0.1"
         id="path738" />
      <path
         d="m 203.354,440.35 h 1.135 v 1.864 c -0.005,0.373 0.077,0.685 0.248,0.937 0.171,0.25 0.461,0.381 0.872,0.391 0.07,0 0.142,-0.004 0.216,-0.011 0.074,-0.007 0.138,-0.017 0.192,-0.029 v 1.055 c -0.037,0.012 -0.077,0.022 -0.121,0.029 -0.044,0.007 -0.086,0.01 -0.127,0.011 -0.283,-0.004 -0.547,-0.086 -0.789,-0.245 -0.242,-0.159 -0.419,-0.37 -0.531,-0.635 h -0.016 v 0.767 h -1.079 v -4.134 0"
         style="fill:#ffffff;fill-opacity:1;fill-rule:nonzero;stroke:none;stroke-width:0.1"
         id="path740" />
      <path
         d="m 207.907,445.725 h -1.135 v -1.241 h -0.688 v -0.758 h 0.688 v -2.441 c 0.011,-0.402 0.141,-0.668 0.391,-0.801 0.25,-0.132 0.554,-0.192 0.912,-0.182 0.114,0 0.228,0.002 0.344,0.008 0.116,0.006 0.222,0.016 0.321,0.032 v 0.887 c -0.061,-0.012 -0.119,-0.02 -0.177,-0.025 -0.057,-0.005 -0.116,-0.008 -0.176,-0.007 -0.188,-0.004 -0.315,0.028 -0.384,0.096 -0.068,0.068 -0.1,0.196 -0.096,0.384 v 2.049 h 0.833 v 0.758 h -0.833 v 1.241 0"
         style="fill:#ffffff;fill-opacity:1;fill-rule:nonzero;stroke:none;stroke-width:0.1"
         id="path742" />
      <path
         d="m 210.371,443.213 c 0.022,0.223 0.098,0.383 0.229,0.48 0.131,0.099 0.306,0.146 0.524,0.144 0.205,0.008 0.378,-0.024 0.518,-0.096 0.139,-0.072 0.212,-0.226 0.218,-0.464 -0.013,-0.219 -0.149,-0.355 -0.411,-0.406 -0.262,-0.053 -0.573,-0.098 -0.934,-0.138 -0.239,-0.028 -0.464,-0.082 -0.677,-0.16 -0.213,-0.078 -0.387,-0.204 -0.521,-0.376 -0.135,-0.171 -0.204,-0.412 -0.209,-0.72 0.01,-0.423 0.147,-0.735 0.41,-0.938 0.263,-0.202 0.596,-0.303 0.997,-0.301 0.256,-0.003 0.507,0.036 0.751,0.115 0.244,0.079 0.458,0.211 0.642,0.397 0.004,-0.069 0.014,-0.137 0.028,-0.204 0.014,-0.066 0.032,-0.132 0.052,-0.196 h 1.151 c -0.051,0.088 -0.088,0.215 -0.111,0.381 -0.022,0.166 -0.034,0.346 -0.033,0.538 v 2.152 c -0.007,0.328 -0.103,0.576 -0.287,0.746 -0.185,0.17 -0.415,0.286 -0.692,0.345 -0.276,0.06 -0.554,0.089 -0.836,0.085 -0.315,0.002 -0.616,-0.038 -0.903,-0.122 -0.286,-0.085 -0.525,-0.228 -0.715,-0.43 -0.19,-0.202 -0.299,-0.479 -0.326,-0.832 z m 1.489,-1.264 c 0.005,-0.09 -0.009,-0.209 -0.041,-0.357 -0.033,-0.149 -0.115,-0.282 -0.246,-0.403 -0.131,-0.121 -0.342,-0.185 -0.633,-0.192 -0.19,-0.005 -0.352,0.03 -0.487,0.105 -0.134,0.074 -0.204,0.215 -0.21,0.423 0.006,0.203 0.074,0.348 0.205,0.433 0.129,0.086 0.285,0.144 0.468,0.175 0.181,0.028 0.358,0.055 0.532,0.081 0.173,0.027 0.311,0.08 0.412,0.159 v -0.424 0"
         style="fill:#ffffff;fill-opacity:1;fill-rule:evenodd;stroke:none;stroke-width:0.1"
         id="path744" />
      <path
         d="m 213.904,440.35 h 1.134 v 2.4 c 0.006,0.266 0.056,0.468 0.15,0.606 0.094,0.137 0.201,0.23 0.32,0.278 0.119,0.048 0.219,0.071 0.299,0.068 0.235,-0.004 0.401,-0.058 0.499,-0.161 0.097,-0.103 0.154,-0.234 0.171,-0.39 0.017,-0.157 0.023,-0.317 0.018,-0.481 v -2.32 h 1.136 v 2.303 c -0.009,0.272 0.038,0.512 0.139,0.72 0.102,0.208 0.309,0.318 0.621,0.329 0.313,-0.008 0.51,-0.106 0.591,-0.297 0.082,-0.191 0.117,-0.428 0.106,-0.711 v -2.344 h 1.134 v 2.768 c -0.007,0.53 -0.149,0.911 -0.425,1.141 -0.276,0.23 -0.638,0.344 -1.086,0.338 -0.289,-0.006 -0.539,-0.075 -0.75,-0.209 -0.211,-0.133 -0.377,-0.293 -0.498,-0.479 -0.116,0.246 -0.28,0.422 -0.493,0.531 -0.212,0.106 -0.451,0.159 -0.715,0.157 -0.268,-0.002 -0.51,-0.061 -0.722,-0.177 -0.213,-0.117 -0.394,-0.281 -0.543,-0.495 h -0.016 v 0.559 h -1.07 v -4.134 0"
         style="fill:#ffffff;fill-opacity:1;fill-rule:nonzero;stroke:none;stroke-width:0.1"
         id="path746" />
      <path
         d="m 222.061,442.86 c 0.003,0.112 0.033,0.236 0.091,0.372 0.058,0.135 0.155,0.252 0.291,0.353 0.136,0.099 0.324,0.152 0.562,0.157 0.272,-0.001 0.479,-0.075 0.62,-0.224 0.14,-0.149 0.235,-0.368 0.283,-0.658 z m 2.984,-0.718 c 0.026,0.43 -0.031,0.831 -0.173,1.201 -0.141,0.371 -0.365,0.671 -0.672,0.9 -0.306,0.229 -0.694,0.347 -1.164,0.354 -0.421,-0.004 -0.789,-0.101 -1.105,-0.291 -0.316,-0.189 -0.561,-0.448 -0.737,-0.776 -0.176,-0.327 -0.266,-0.699 -0.268,-1.116 0.006,-0.652 0.195,-1.174 0.566,-1.569 0.372,-0.394 0.886,-0.597 1.544,-0.607 0.471,-0.004 0.87,0.106 1.2,0.329 0.329,0.223 0.574,0.577 0.736,1.062 h -1 c -0.04,-0.134 -0.141,-0.256 -0.303,-0.364 -0.163,-0.109 -0.36,-0.165 -0.593,-0.172 -0.316,-0.002 -0.561,0.083 -0.732,0.254 -0.172,0.171 -0.267,0.436 -0.283,0.795 h 2.984 v 0"
         style="fill:#ffffff;fill-opacity:1;fill-rule:evenodd;stroke:none;stroke-width:0.1"
         id="path748" />
      <path
         d="m 225.713,440.35 h 1.135 v 2.168 c -0.002,0.417 0.068,0.719 0.209,0.906 0.141,0.188 0.365,0.281 0.671,0.278 0.262,0 0.449,-0.085 0.563,-0.253 0.113,-0.169 0.169,-0.424 0.166,-0.763 v -2.336 h 1.135 v 2.544 c 0.013,0.519 -0.089,0.93 -0.303,1.235 -0.214,0.305 -0.617,0.46 -1.208,0.468 -0.245,0 -0.48,-0.057 -0.705,-0.17 -0.224,-0.113 -0.411,-0.286 -0.56,-0.518 h -0.024 v 0.575 h -1.079 v -4.134 0"
         style="fill:#ffffff;fill-opacity:1;fill-rule:nonzero;stroke:none;stroke-width:0.1"
         id="path750" />
      <path
         d="m 231.888,445.725 h -1.134 v -1.241 h -0.688 v -0.758 h 0.688 v -2.441 c 0.01,-0.402 0.14,-0.668 0.39,-0.801 0.25,-0.132 0.554,-0.192 0.912,-0.182 0.114,0 0.229,0.002 0.345,0.008 0.115,0.006 0.222,0.016 0.319,0.032 v 0.887 c -0.059,-0.012 -0.118,-0.02 -0.175,-0.025 -0.058,-0.005 -0.117,-0.008 -0.177,-0.007 -0.188,-0.004 -0.316,0.028 -0.383,0.096 -0.068,0.068 -0.1,0.196 -0.097,0.384 v 2.049 h 0.832 v 0.758 h -0.832 v 1.241 0"
         style="fill:#ffffff;fill-opacity:1;fill-rule:nonzero;stroke:none;stroke-width:0.1"
         id="path752" />
      <path
         d="m 171.126,451.253 h -2.424 v -0.463 h 1.945 c 0.007,-0.617 -0.161,-1.117 -0.505,-1.502 -0.344,-0.385 -0.835,-0.583 -1.471,-0.595 -0.503,0.008 -0.913,0.132 -1.231,0.374 -0.317,0.241 -0.551,0.552 -0.7,0.932 -0.149,0.38 -0.224,0.782 -0.222,1.206 -0.002,0.424 0.073,0.826 0.222,1.206 0.149,0.38 0.383,0.691 0.7,0.932 0.318,0.242 0.728,0.367 1.231,0.375 0.363,-0.006 0.678,-0.081 0.944,-0.226 0.266,-0.145 0.476,-0.326 0.628,-0.543 0.154,-0.218 0.243,-0.44 0.268,-0.664 h 0.543 c -0.115,0.625 -0.388,1.097 -0.819,1.416 -0.432,0.319 -0.953,0.479 -1.564,0.48 -0.601,-0.008 -1.1,-0.15 -1.5,-0.425 -0.399,-0.275 -0.698,-0.637 -0.897,-1.086 -0.2,-0.448 -0.299,-0.938 -0.299,-1.465 0,-0.528 0.099,-1.016 0.299,-1.465 0.199,-0.448 0.498,-0.81 0.897,-1.086 0.4,-0.275 0.899,-0.416 1.5,-0.424 0.419,-0.003 0.803,0.088 1.152,0.273 0.351,0.186 0.625,0.48 0.824,0.886 h 0.016 l 0.072,-1.039 h 0.391 v 2.903 0"
         style="fill:#ffffff;fill-opacity:1;fill-rule:nonzero;stroke:none;stroke-width:0.1"
         id="path754" />
      <path
         d="m 172.382,450.701 c 0.026,0.255 0.094,0.493 0.205,0.716 0.11,0.222 0.261,0.403 0.454,0.542 0.192,0.139 0.426,0.211 0.701,0.215 0.272,-0.004 0.505,-0.075 0.698,-0.213 0.192,-0.138 0.341,-0.318 0.445,-0.541 0.104,-0.222 0.161,-0.462 0.169,-0.719 z m 3.175,-0.424 c 0.015,0.394 -0.037,0.767 -0.157,1.117 -0.12,0.351 -0.316,0.637 -0.588,0.859 -0.272,0.222 -0.629,0.336 -1.07,0.344 -0.437,-0.007 -0.792,-0.115 -1.066,-0.324 -0.275,-0.21 -0.478,-0.48 -0.606,-0.81 -0.129,-0.331 -0.193,-0.68 -0.192,-1.05 -10e-4,-0.396 0.063,-0.76 0.192,-1.089 0.128,-0.328 0.331,-0.592 0.606,-0.79 0.274,-0.198 0.629,-0.299 1.066,-0.304 0.517,0.002 0.919,0.132 1.209,0.388 0.289,0.256 0.486,0.62 0.59,1.092 h -0.503 c -0.078,-0.318 -0.222,-0.572 -0.432,-0.763 -0.21,-0.191 -0.498,-0.289 -0.864,-0.295 -0.322,0.008 -0.582,0.093 -0.782,0.258 -0.199,0.166 -0.345,0.372 -0.438,0.619 -0.092,0.247 -0.139,0.497 -0.14,0.748 h 3.175 v 0"
         style="fill:#ffffff;fill-opacity:1;fill-rule:evenodd;stroke:none;stroke-width:0.1"
         id="path756" />
      <path
         d="m 176.226,448.35 h 0.503 v 2.407 c 0.011,0.413 0.129,0.75 0.354,1.012 0.225,0.261 0.539,0.396 0.942,0.405 0.401,-0.008 0.678,-0.127 0.831,-0.358 0.153,-0.23 0.225,-0.527 0.218,-0.89 v -2.576 h 0.503 v 2.655 c 0.009,0.498 -0.098,0.886 -0.321,1.165 -0.223,0.28 -0.62,0.422 -1.191,0.427 -0.299,-0.004 -0.569,-0.081 -0.81,-0.23 -0.241,-0.149 -0.411,-0.35 -0.51,-0.601 h -0.016 v 0.711 h -0.503 v -4.127 0"
         style="fill:#ffffff;fill-opacity:1;fill-rule:nonzero;stroke:none;stroke-width:0.1"
         id="path758" />
      <path
         d="m 180.823,450.701 c 0.027,0.255 0.096,0.493 0.206,0.716 0.11,0.222 0.261,0.403 0.454,0.542 0.193,0.139 0.426,0.211 0.701,0.215 0.273,-0.004 0.506,-0.075 0.698,-0.213 0.192,-0.138 0.341,-0.318 0.445,-0.541 0.104,-0.222 0.161,-0.462 0.17,-0.719 z M 184,450.277 c 0.014,0.394 -0.038,0.767 -0.158,1.117 -0.12,0.351 -0.316,0.637 -0.588,0.859 -0.272,0.222 -0.628,0.336 -1.07,0.344 -0.436,-0.007 -0.792,-0.115 -1.066,-0.324 -0.275,-0.21 -0.477,-0.48 -0.606,-0.81 -0.128,-0.331 -0.193,-0.68 -0.191,-1.05 -0.002,-0.396 0.063,-0.76 0.191,-1.089 0.129,-0.328 0.331,-0.592 0.606,-0.79 0.274,-0.198 0.63,-0.299 1.066,-0.304 0.517,0.002 0.92,0.132 1.209,0.388 0.289,0.256 0.486,0.62 0.591,1.092 h -0.503 c -0.078,-0.318 -0.222,-0.572 -0.432,-0.763 -0.21,-0.191 -0.498,-0.289 -0.865,-0.295 -0.321,0.008 -0.582,0.093 -0.781,0.258 -0.2,0.166 -0.346,0.372 -0.438,0.619 -0.093,0.247 -0.14,0.497 -0.142,0.748 H 184 v 0"
         style="fill:#ffffff;fill-opacity:1;fill-rule:evenodd;stroke:none;stroke-width:0.1"
         id="path760" />
      <path
         d="m 184.676,448.35 h 0.503 v 2.199 c 0.007,0.44 0.149,0.799 0.426,1.079 0.277,0.281 0.647,0.415 1.11,0.402 v 0.503 c -0.374,0.012 -0.695,-0.071 -0.963,-0.251 -0.267,-0.179 -0.467,-0.437 -0.597,-0.772 h -0.016 v 0.967 h -0.463 v -4.127 0"
         style="fill:#ffffff;fill-opacity:1;fill-rule:nonzero;stroke:none;stroke-width:0.1"
         id="path762" />
      <path
         d="m 187.656,451.214 c 0.014,0.333 0.123,0.578 0.325,0.732 0.201,0.154 0.462,0.23 0.78,0.228 0.304,0.007 0.558,-0.049 0.762,-0.17 0.204,-0.119 0.311,-0.345 0.319,-0.679 -0.001,-0.219 -0.058,-0.364 -0.168,-0.433 -0.112,-0.069 -0.272,-0.111 -0.481,-0.127 -0.37,-0.035 -0.723,-0.083 -1.058,-0.143 -0.335,-0.06 -0.61,-0.179 -0.825,-0.353 -0.215,-0.176 -0.325,-0.453 -0.333,-0.832 0.011,-0.414 0.146,-0.719 0.407,-0.916 0.261,-0.196 0.586,-0.293 0.977,-0.291 0.387,10e-4 0.693,0.074 0.917,0.219 0.225,0.143 0.42,0.351 0.587,0.62 h 0.017 c -0.008,-0.219 0.026,-0.393 0.103,-0.522 0.077,-0.128 0.239,-0.194 0.487,-0.197 0.066,-0.001 0.124,0.002 0.174,0.007 0.049,0.004 0.1,0.013 0.155,0.024 v 0.424 c -0.021,-0.009 -0.046,-0.016 -0.075,-0.022 -0.028,-0.006 -0.057,-0.01 -0.086,-0.01 -0.099,10e-4 -0.173,0.027 -0.222,0.08 -0.05,0.053 -0.074,0.127 -0.074,0.224 v 2.192 c -0.005,0.365 -0.082,0.643 -0.231,0.836 -0.15,0.191 -0.34,0.323 -0.57,0.393 -0.231,0.07 -0.47,0.103 -0.718,0.099 -0.48,0.003 -0.871,-0.107 -1.172,-0.328 -0.302,-0.223 -0.468,-0.574 -0.499,-1.055 z m 2.186,-1.265 c -0.009,-0.407 -0.152,-0.725 -0.43,-0.951 -0.277,-0.227 -0.614,-0.342 -1.011,-0.346 -0.245,0.003 -0.457,0.077 -0.638,0.22 -0.179,0.143 -0.274,0.342 -0.283,0.597 0.008,0.263 0.111,0.454 0.308,0.573 0.198,0.118 0.442,0.199 0.735,0.245 0.292,0.045 0.585,0.09 0.878,0.134 0.073,0.011 0.153,0.03 0.239,0.056 0.086,0.027 0.148,0.069 0.185,0.128 h 0.017 v -0.656 0"
         style="fill:#ffffff;fill-opacity:1;fill-rule:evenodd;stroke:none;stroke-width:0.1"
         id="path764" />
      <path
         d="m 191.357,448.35 h 0.503 v 5.711 h -0.503 v -5.711 0"
         style="fill:#ffffff;fill-opacity:1;fill-rule:nonzero;stroke:none;stroke-width:0.1"
         id="path766" />
      <path
         d="m 192.831,453.253 h 0.504 v 0.808 h -0.504 z m 0,-4.903 h 0.504 v 4.127 h -0.504 v -4.127 0"
         style="fill:#ffffff;fill-opacity:1;fill-rule:evenodd;stroke:none;stroke-width:0.1"
         id="path768" />
      <path
         d="m 195.097,453.717 h -0.503 v -1.24 h -0.72 v -0.423 h 0.72 v -2.825 c -0.008,-0.347 0.056,-0.589 0.193,-0.727 0.137,-0.139 0.37,-0.206 0.702,-0.2 0.076,0 0.15,0.003 0.224,0.008 0.074,0.005 0.149,0.007 0.224,0.008 v 0.431 c -0.144,-0.017 -0.288,-0.024 -0.432,-0.024 -0.174,0.012 -0.287,0.065 -0.339,0.158 -0.051,0.093 -0.074,0.222 -0.069,0.386 v 2.785 h 0.84 v 0.423 h -0.84 v 1.24 0"
         style="fill:#ffffff;fill-opacity:1;fill-rule:nonzero;stroke:none;stroke-width:0.1"
         id="path770" />
      <path
         d="m 197.113,451.214 c 0.014,0.333 0.122,0.578 0.324,0.732 0.202,0.154 0.462,0.23 0.78,0.228 0.304,0.007 0.558,-0.049 0.762,-0.17 0.204,-0.119 0.31,-0.345 0.319,-0.679 -0.001,-0.219 -0.058,-0.364 -0.168,-0.433 -0.112,-0.069 -0.272,-0.111 -0.481,-0.127 -0.37,-0.035 -0.722,-0.083 -1.058,-0.143 -0.335,-0.06 -0.61,-0.179 -0.825,-0.353 -0.214,-0.176 -0.325,-0.453 -0.333,-0.832 0.011,-0.414 0.146,-0.719 0.407,-0.916 0.261,-0.196 0.587,-0.293 0.977,-0.291 0.387,10e-4 0.693,0.074 0.917,0.219 0.224,0.143 0.42,0.351 0.588,0.62 h 0.016 c -0.008,-0.219 0.027,-0.393 0.103,-0.522 0.077,-0.128 0.239,-0.194 0.487,-0.197 0.067,-0.001 0.124,0.002 0.173,0.007 0.05,0.004 0.101,0.013 0.156,0.024 v 0.424 c -0.021,-0.009 -0.046,-0.016 -0.075,-0.022 -0.028,-0.006 -0.057,-0.01 -0.086,-0.01 -0.099,10e-4 -0.174,0.027 -0.223,0.08 -0.048,0.053 -0.072,0.127 -0.072,0.224 v 2.192 c -0.006,0.365 -0.083,0.643 -0.233,0.836 -0.149,0.191 -0.339,0.323 -0.569,0.393 -0.231,0.07 -0.47,0.103 -0.718,0.099 -0.48,0.003 -0.871,-0.107 -1.172,-0.328 -0.302,-0.223 -0.468,-0.574 -0.499,-1.055 z m 2.185,-1.265 c -0.009,-0.407 -0.152,-0.725 -0.43,-0.951 -0.277,-0.227 -0.614,-0.342 -1.011,-0.346 -0.245,0.003 -0.457,0.077 -0.638,0.22 -0.179,0.143 -0.274,0.342 -0.283,0.597 0.009,0.263 0.111,0.454 0.308,0.573 0.197,0.118 0.442,0.199 0.735,0.245 0.292,0.045 0.585,0.09 0.878,0.134 0.073,0.011 0.153,0.03 0.239,0.056 0.086,0.027 0.148,0.069 0.185,0.128 h 0.017 v -0.656 0"
         style="fill:#ffffff;fill-opacity:1;fill-rule:evenodd;stroke:none;stroke-width:0.1"
         id="path772" />
      <path
         d="m 201.604,453.717 h -0.503 v -1.24 h -0.72 v -0.423 h 0.72 v -2.825 c -0.008,-0.347 0.056,-0.589 0.193,-0.727 0.136,-0.139 0.37,-0.206 0.702,-0.2 0.076,0 0.15,0.003 0.224,0.008 0.074,0.005 0.148,0.007 0.224,0.008 v 0.431 c -0.144,-0.017 -0.288,-0.024 -0.432,-0.024 -0.174,0.012 -0.288,0.065 -0.339,0.158 -0.052,0.093 -0.075,0.222 -0.069,0.386 v 2.785 h 0.84 v 0.423 h -0.84 v 1.24 0"
         style="fill:#ffffff;fill-opacity:1;fill-rule:nonzero;stroke:none;stroke-width:0.1"
         id="path774" />
      <path
         d="m 209.026,454.061 h -0.503 v -2.367 h -0.016 c -0.116,0.296 -0.305,0.52 -0.567,0.673 -0.261,0.153 -0.55,0.23 -0.866,0.23 -0.418,-0.006 -0.765,-0.107 -1.039,-0.306 -0.275,-0.199 -0.48,-0.464 -0.614,-0.792 -0.136,-0.329 -0.202,-0.691 -0.202,-1.086 0,-0.394 0.066,-0.756 0.202,-1.085 0.134,-0.328 0.339,-0.593 0.614,-0.792 0.274,-0.199 0.621,-0.301 1.039,-0.306 0.311,0.004 0.604,0.088 0.88,0.25 0.277,0.163 0.474,0.38 0.593,0.653 h 0.015 v -0.783 h 0.464 z m -3.304,-3.648 c -0.002,0.292 0.044,0.57 0.137,0.837 0.092,0.267 0.238,0.486 0.438,0.657 0.199,0.173 0.458,0.261 0.777,0.267 0.356,-0.006 0.64,-0.094 0.852,-0.267 0.213,-0.171 0.366,-0.39 0.459,-0.657 0.094,-0.267 0.14,-0.545 0.138,-0.837 0.002,-0.291 -0.044,-0.57 -0.138,-0.837 -0.093,-0.266 -0.246,-0.485 -0.459,-0.657 -0.212,-0.172 -0.496,-0.26 -0.852,-0.267 -0.319,0.007 -0.578,0.095 -0.777,0.267 -0.2,0.172 -0.346,0.391 -0.438,0.657 -0.093,0.267 -0.139,0.546 -0.137,0.837 v 0"
         style="fill:#ffffff;fill-opacity:1;fill-rule:evenodd;stroke:none;stroke-width:0.1"
         id="path776" />
      <path
         d="m 210.28,450.701 c 0.026,0.255 0.095,0.493 0.205,0.716 0.109,0.222 0.261,0.403 0.454,0.542 0.193,0.139 0.426,0.211 0.701,0.215 0.273,-0.004 0.505,-0.075 0.698,-0.213 0.192,-0.138 0.34,-0.318 0.445,-0.541 0.104,-0.222 0.161,-0.462 0.169,-0.719 z m 3.176,-0.424 c 0.014,0.394 -0.038,0.767 -0.158,1.117 -0.12,0.351 -0.316,0.637 -0.588,0.859 -0.272,0.222 -0.629,0.336 -1.07,0.344 -0.436,-0.007 -0.792,-0.115 -1.067,-0.324 -0.274,-0.21 -0.476,-0.48 -0.605,-0.81 -0.129,-0.331 -0.193,-0.68 -0.191,-1.05 -0.002,-0.396 0.062,-0.76 0.191,-1.089 0.129,-0.328 0.331,-0.592 0.605,-0.79 0.275,-0.198 0.631,-0.299 1.067,-0.304 0.516,0.002 0.92,0.132 1.209,0.388 0.289,0.256 0.486,0.62 0.591,1.092 h -0.504 c -0.077,-0.318 -0.221,-0.572 -0.431,-0.763 -0.211,-0.191 -0.499,-0.289 -0.865,-0.295 -0.321,0.008 -0.582,0.093 -0.781,0.258 -0.2,0.166 -0.346,0.372 -0.438,0.619 -0.093,0.247 -0.14,0.497 -0.141,0.748 h 3.176 v 0"
         style="fill:#ffffff;fill-opacity:1;fill-rule:evenodd;stroke:none;stroke-width:0.1"
         id="path778" />
      <path
         d="m 221.177,452.334 c -0.053,0.4 -0.193,0.737 -0.418,1.012 -0.227,0.274 -0.504,0.482 -0.834,0.622 -0.33,0.141 -0.677,0.212 -1.043,0.213 -0.6,-0.008 -1.1,-0.15 -1.499,-0.425 -0.399,-0.275 -0.699,-0.637 -0.898,-1.086 -0.199,-0.448 -0.299,-0.937 -0.299,-1.465 0,-0.528 0.1,-1.016 0.299,-1.465 0.199,-0.448 0.499,-0.81 0.898,-1.086 0.399,-0.275 0.899,-0.416 1.499,-0.424 0.674,0.008 1.218,0.215 1.632,0.622 0.413,0.407 0.662,0.965 0.744,1.673 h -0.544 c -0.056,-0.521 -0.242,-0.953 -0.559,-1.297 -0.317,-0.344 -0.741,-0.522 -1.273,-0.535 -0.503,0.008 -0.913,0.132 -1.23,0.373 -0.318,0.242 -0.551,0.553 -0.701,0.933 -0.149,0.38 -0.223,0.782 -0.222,1.206 -0.001,0.424 0.073,0.826 0.222,1.206 0.15,0.381 0.383,0.691 0.701,0.933 0.317,0.241 0.727,0.366 1.23,0.374 0.425,-0.003 0.797,-0.124 1.116,-0.362 0.319,-0.239 0.531,-0.58 0.637,-1.022 h 0.542 v 0"
         style="fill:#ffffff;fill-opacity:1;fill-rule:nonzero;stroke:none;stroke-width:0.1"
         id="path780" />
      <path
         d="m 222.458,451.214 c 0.014,0.333 0.122,0.578 0.324,0.732 0.202,0.154 0.462,0.23 0.78,0.228 0.304,0.007 0.559,-0.049 0.763,-0.17 0.204,-0.119 0.31,-0.345 0.318,-0.679 -0.001,-0.219 -0.057,-0.364 -0.168,-0.433 -0.111,-0.069 -0.272,-0.111 -0.481,-0.127 -0.369,-0.035 -0.722,-0.083 -1.058,-0.143 -0.335,-0.06 -0.61,-0.179 -0.825,-0.353 -0.214,-0.176 -0.325,-0.453 -0.332,-0.832 0.01,-0.414 0.146,-0.719 0.406,-0.916 0.262,-0.196 0.587,-0.293 0.977,-0.291 0.388,10e-4 0.693,0.074 0.918,0.219 0.224,0.143 0.419,0.351 0.587,0.62 h 0.016 c -0.007,-0.219 0.027,-0.393 0.103,-0.522 0.077,-0.128 0.24,-0.194 0.488,-0.197 0.066,-0.001 0.124,0.002 0.173,0.007 0.049,0.004 0.101,0.013 0.155,0.024 v 0.424 c -0.021,-0.009 -0.046,-0.016 -0.074,-0.022 -0.029,-0.006 -0.058,-0.01 -0.086,-0.01 -0.1,10e-4 -0.174,0.027 -0.223,0.08 -0.049,0.053 -0.073,0.127 -0.073,0.224 v 2.192 c -0.006,0.365 -0.083,0.643 -0.232,0.836 -0.15,0.191 -0.34,0.323 -0.57,0.393 -0.23,0.07 -0.469,0.103 -0.718,0.099 -0.479,0.003 -0.87,-0.107 -1.172,-0.328 -0.301,-0.223 -0.468,-0.574 -0.499,-1.055 z m 2.185,-1.265 c -0.008,-0.407 -0.152,-0.725 -0.429,-0.951 -0.278,-0.227 -0.615,-0.342 -1.012,-0.346 -0.245,0.003 -0.457,0.077 -0.637,0.22 -0.18,0.143 -0.274,0.342 -0.283,0.597 0.008,0.263 0.11,0.454 0.308,0.573 0.197,0.118 0.441,0.199 0.734,0.245 0.292,0.045 0.585,0.09 0.879,0.134 0.073,0.011 0.153,0.03 0.239,0.056 0.086,0.027 0.148,0.069 0.185,0.128 h 0.016 v -0.656 0"
         style="fill:#ffffff;fill-opacity:1;fill-rule:evenodd;stroke:none;stroke-width:0.1"
         id="path782" />
      <path
         d="m 226.949,453.717 h -0.502 v -1.24 h -0.721 v -0.423 h 0.721 v -2.825 c -0.009,-0.347 0.055,-0.589 0.192,-0.727 0.137,-0.139 0.371,-0.206 0.702,-0.2 0.076,0 0.151,0.003 0.224,0.008 0.074,0.005 0.149,0.007 0.224,0.008 v 0.431 c -0.144,-0.017 -0.288,-0.024 -0.432,-0.024 -0.174,0.012 -0.287,0.065 -0.339,0.158 -0.051,0.093 -0.074,0.222 -0.069,0.386 v 2.785 h 0.84 v 0.423 h -0.84 v 1.24 0"
         style="fill:#ffffff;fill-opacity:1;fill-rule:nonzero;stroke:none;stroke-width:0.1"
         id="path784" />
      <path
         d="m 228.965,451.214 c 0.014,0.333 0.122,0.578 0.324,0.732 0.202,0.154 0.462,0.23 0.78,0.228 0.304,0.007 0.559,-0.049 0.763,-0.17 0.203,-0.119 0.309,-0.345 0.318,-0.679 -0.001,-0.219 -0.057,-0.364 -0.168,-0.433 -0.111,-0.069 -0.272,-0.111 -0.481,-0.127 -0.369,-0.035 -0.722,-0.083 -1.058,-0.143 -0.335,-0.06 -0.61,-0.179 -0.825,-0.353 -0.214,-0.176 -0.325,-0.453 -0.332,-0.832 0.01,-0.414 0.145,-0.719 0.406,-0.916 0.261,-0.196 0.587,-0.293 0.977,-0.291 0.387,10e-4 0.693,0.074 0.918,0.219 0.224,0.143 0.419,0.351 0.587,0.62 h 0.016 c -0.008,-0.219 0.027,-0.393 0.103,-0.522 0.077,-0.128 0.239,-0.194 0.488,-0.197 0.066,-0.001 0.124,0.002 0.173,0.007 0.049,0.004 0.1,0.013 0.155,0.024 v 0.424 c -0.021,-0.009 -0.046,-0.016 -0.075,-0.022 -0.028,-0.006 -0.057,-0.01 -0.086,-0.01 -0.099,10e-4 -0.174,0.027 -0.222,0.08 -0.049,0.053 -0.073,0.127 -0.073,0.224 v 2.192 c -0.006,0.365 -0.083,0.643 -0.232,0.836 -0.15,0.191 -0.34,0.323 -0.57,0.393 -0.231,0.07 -0.47,0.103 -0.718,0.099 -0.48,0.003 -0.871,-0.107 -1.172,-0.328 -0.301,-0.223 -0.468,-0.574 -0.499,-1.055 z m 2.185,-1.265 c -0.009,-0.407 -0.152,-0.725 -0.43,-0.951 -0.277,-0.227 -0.614,-0.342 -1.011,-0.346 -0.245,0.003 -0.457,0.077 -0.637,0.22 -0.18,0.143 -0.274,0.342 -0.283,0.597 0.008,0.263 0.11,0.454 0.307,0.573 0.198,0.118 0.442,0.199 0.735,0.245 0.292,0.045 0.585,0.09 0.879,0.134 0.072,0.011 0.152,0.03 0.238,0.056 0.087,0.027 0.148,0.069 0.186,0.128 h 0.016 v -0.656 0"
         style="fill:#ffffff;fill-opacity:1;fill-rule:evenodd;stroke:none;stroke-width:0.1"
         id="path786" />
      <path
         d="m 232.665,448.35 h 0.503 v 5.711 h -0.503 v -5.711 0"
         style="fill:#ffffff;fill-opacity:1;fill-rule:nonzero;stroke:none;stroke-width:0.1"
         id="path788" />
      <path
         d="m 237.475,452.477 h -0.503 v -2.168 c 0,-0.285 -0.043,-0.553 -0.13,-0.803 -0.087,-0.25 -0.222,-0.454 -0.405,-0.611 -0.183,-0.157 -0.418,-0.237 -0.706,-0.243 -0.394,0.001 -0.676,0.098 -0.843,0.289 -0.168,0.192 -0.255,0.475 -0.261,0.848 v 2.688 h -0.503 v -2.681 c -0.005,-0.485 0.106,-0.866 0.333,-1.143 0.227,-0.276 0.599,-0.418 1.114,-0.423 0.313,10e-4 0.594,0.077 0.844,0.224 0.251,0.149 0.444,0.362 0.581,0.639 h 0.015 v -0.743 h 0.464 v 4.127 0"
         style="fill:#ffffff;fill-opacity:1;fill-rule:nonzero;stroke:none;stroke-width:0.1"
         id="path790" />
      <path
         d="m 238.419,448.35 h 0.503 v 2.407 c 0.011,0.413 0.129,0.75 0.354,1.012 0.225,0.261 0.539,0.396 0.942,0.405 0.401,-0.008 0.678,-0.127 0.831,-0.358 0.152,-0.23 0.225,-0.527 0.217,-0.89 v -2.576 h 0.504 v 2.655 c 0.009,0.498 -0.098,0.886 -0.321,1.165 -0.223,0.28 -0.62,0.422 -1.191,0.427 -0.299,-0.004 -0.569,-0.081 -0.81,-0.23 -0.241,-0.149 -0.412,-0.35 -0.51,-0.601 h -0.016 v 0.711 h -0.503 v -4.127 0"
         style="fill:#ffffff;fill-opacity:1;fill-rule:nonzero;stroke:none;stroke-width:0.1"
         id="path792" />
      <path
         d="m 243.905,448.365 -0.176,-0.472 c -0.075,-0.195 -0.16,-0.351 -0.255,-0.469 -0.094,-0.116 -0.249,-0.176 -0.464,-0.179 -0.111,10e-4 -0.226,0.014 -0.345,0.04 v -0.424 c 0.039,-0.015 0.088,-0.024 0.147,-0.028 0.06,-0.005 0.139,-0.008 0.238,-0.011 0.303,-0.006 0.527,0.056 0.672,0.186 0.145,0.131 0.283,0.367 0.415,0.709 l 1.791,4.76 h -0.503 l -1.272,-3.52 -1.359,3.52 h -0.536 l 1.647,-4.112 v 0"
         style="fill:#ffffff;fill-opacity:1;fill-rule:nonzero;stroke:none;stroke-width:0.1"
         id="path794" />
      <path
         d="m 246.882,451.214 c 0.014,0.333 0.122,0.578 0.324,0.732 0.202,0.154 0.462,0.23 0.78,0.228 0.304,0.007 0.558,-0.049 0.762,-0.17 0.204,-0.119 0.31,-0.345 0.319,-0.679 -0.001,-0.219 -0.057,-0.364 -0.169,-0.433 -0.111,-0.069 -0.271,-0.111 -0.48,-0.127 -0.37,-0.035 -0.722,-0.083 -1.058,-0.143 -0.335,-0.06 -0.61,-0.179 -0.825,-0.353 -0.214,-0.176 -0.325,-0.453 -0.333,-0.832 0.011,-0.414 0.146,-0.719 0.407,-0.916 0.261,-0.196 0.587,-0.293 0.977,-0.291 0.387,10e-4 0.693,0.074 0.917,0.219 0.224,0.143 0.42,0.351 0.588,0.62 h 0.015 c -0.007,-0.219 0.028,-0.393 0.104,-0.522 0.077,-0.128 0.239,-0.194 0.488,-0.197 0.066,-0.001 0.124,0.002 0.172,0.007 0.05,0.004 0.101,0.013 0.156,0.024 v 0.424 c -0.021,-0.009 -0.046,-0.016 -0.075,-0.022 -0.028,-0.006 -0.057,-0.01 -0.086,-0.01 -0.1,10e-4 -0.174,0.027 -0.223,0.08 -0.048,0.053 -0.073,0.127 -0.072,0.224 v 2.192 c -0.006,0.365 -0.083,0.643 -0.233,0.836 -0.149,0.191 -0.339,0.323 -0.569,0.393 -0.231,0.07 -0.47,0.103 -0.718,0.099 -0.48,0.003 -0.871,-0.107 -1.172,-0.328 -0.301,-0.223 -0.468,-0.574 -0.499,-1.055 z m 2.185,-1.265 c -0.009,-0.407 -0.152,-0.725 -0.43,-0.951 -0.277,-0.227 -0.614,-0.342 -1.011,-0.346 -0.245,0.003 -0.457,0.077 -0.637,0.22 -0.18,0.143 -0.274,0.342 -0.283,0.597 0.008,0.263 0.11,0.454 0.307,0.573 0.197,0.118 0.442,0.199 0.735,0.245 0.292,0.045 0.585,0.09 0.878,0.134 0.073,0.011 0.154,0.03 0.239,0.056 0.087,0.027 0.148,0.069 0.186,0.128 h 0.016 v -0.656 0"
         style="fill:#ffffff;fill-opacity:1;fill-rule:evenodd;stroke:none;stroke-width:0.1"
         id="path796" />
    </g>
  </g>
</svg>
