<?xml version="1.0" encoding="UTF-8" standalone="no"?>
<svg
   version="1.0"
   width="318.20001pt"
   height="71.100143pt"
   viewBox="0 0 318.20001 71.100143"
   preserveAspectRatio="xMidYMid meet"
   id="svg76"
   sodipodi:docname="logo-teatre-josep-maria-de-segarra.svg"
   inkscape:version="1.1.1 (3bf5ae0d25, 2021-09-20)"
   xmlns:inkscape="http://www.inkscape.org/namespaces/inkscape"
   xmlns:sodipodi="http://sodipodi.sourceforge.net/DTD/sodipodi-0.dtd"
   xmlns="http://www.w3.org/2000/svg"
   xmlns:svg="http://www.w3.org/2000/svg">
  <defs
     id="defs80" />
  <sodipodi:namedview
     id="namedview78"
     pagecolor="#ffffff"
     bordercolor="#666666"
     borderopacity="1.0"
     inkscape:pageshadow="2"
     inkscape:pageopacity="0.0"
     inkscape:pagecheckerboard="0"
     inkscape:document-units="pt"
     showgrid="false"
     fit-margin-top="0"
     fit-margin-left="0"
     fit-margin-right="0"
     fit-margin-bottom="0"
     inkscape:zoom="1"
     inkscape:cx="397.5"
     inkscape:cy="45.5"
     inkscape:window-width="2048"
     inkscape:window-height="1075"
     inkscape:window-x="0"
     inkscape:window-y="40"
     inkscape:window-maximized="1"
     inkscape:current-layer="svg76" />
  <g
     id="g260">
    <path
       d="m 54,1.50014 c 0,1.1 1.2,1.5 4.5,1.5 H 63 v 13.5 c 0,11.3 0.2,13.5 1.5,13.5 1.3,0 1.5,-2.2 1.5,-13.5 v -13.5 h 4.5 c 3.3,0 4.5,-0.4 4.5,-1.5 0,-1.2 -1.8,-1.5 -10.5,-1.5 -8.7,0 -10.5,0.3 -10.5,1.5 z"
       id="path4"
       style="fill:#ffffff;stroke:none;stroke-width:0.1" />
    <path
       d="m 80.7,0.70014 c -0.4,0.3 -0.7,6.9 -0.7,14.5 v 13.8 h 9.5 c 7.8,0 9.5,-0.3 9.5,-1.5 0,-1.2 -1.5,-1.5 -7.5,-1.5 H 84 v -5 -5 h 4 c 3.3,0 4,-0.3 4,-2 0,-1.7 -0.7,-2 -4,-2 h -4 v -4.5 -4.5 h 7 c 5.6,0 7,-0.3 7,-1.5 0,-1.2 -1.6,-1.5 -8.3,-1.5 -4.6,0 -8.7,0.3 -9,0.7 z"
       id="path6"
       style="fill:#ffffff;stroke:none;stroke-width:0.1" />
    <path
       d="m 113,0.40014 c 0,0.3 -2.2,6.8 -4.9,14.5 -4.5,12.7 -4.8,14.1 -3.1,14.1 1.2,0 2.2,-1.2 3,-3.5 1.1,-3.5 1.2,-3.5 7,-3.5 5.8,0 5.9,0 7,3.5 0.8,2.5 1.8,3.5 3.2,3.5 1.5,0 1.8,-0.4 1.3,-1.8 -0.4,-0.9 -2.4,-6.7 -4.5,-12.7 -5.1,-14.7 -4.9,-14.5 -7.1,-14.5 -1,0 -1.9,0.2 -1.9,0.4 z m 4.3,10.9 c 2.4,7.4 2.3,7.7 -2.3,7.7 -2.4,0 -4,-0.5 -4,-1.2 0,-1.9 3.3,-11.8 4,-11.8 0.3,0 1.4,2.4 2.3,5.3 z"
       id="path8"
       style="fill:#ffffff;stroke:none;stroke-width:0.1" />
    <path
       d="m 128,1.50014 c 0,1.1 1.1,1.5 4,1.5 h 3.9 l 0.3,13.2 c 0.3,11.7 0.5,13.3 2.1,13.6 1.5,0.3 1.7,-0.8 1.7,-13.2 v -13.6 h 4.6 c 3.2,0 4.4,-0.4 4.2,-1.3 -0.3,-0.8 -3.6,-1.3 -10.6,-1.5 -8.6,-0.2 -10.2,0 -10.2,1.3 z"
       id="path10"
       style="fill:#ffffff;stroke:none;stroke-width:0.1" />
    <path
       d="m 154,14.50014 c 0,13.8 0.1,14.5 2,14.5 1.8,0 2,-0.7 2,-6 0,-6 0,-6 3,-6 2.6,0 3.3,0.7 6,6 2.2,4.3 3.6,6 5,6 1.1,0 2,-0.2 2,-0.3 0,-0.2 -1.3,-2.8 -2.9,-5.7 l -2.9,-5.3 3.4,-3.2 c 4.3,-4.1 4.5,-7.6 0.5,-11.6 -2.7,-2.7 -3.5,-2.9 -10.5,-2.9 H 154 Z m 14.8,-9.9 c 2.8,2 3,6.9 0.3,8.4 -1.1,0.5 -4,1 -6.5,1 H 158 v -5.5 -5.5 h 4.3 c 2.3,0 5.3,0.7 6.5,1.6 z"
       id="path12"
       style="fill:#ffffff;stroke:none;stroke-width:0.1" />
    <path
       d="m 181,14.50014 v 14.5 h 9 c 7.3,0 9,-0.3 9,-1.5 0,-1.2 -1.5,-1.5 -7.5,-1.5 H 184 v -4.9 -5 l 4.2,-0.3 c 3.1,-0.2 4.4,-0.8 4.6,-2.1 0.3,-1.4 -0.4,-1.7 -4.2,-1.7 H 184 v -4.5 -4.5 h 7.5 c 6,0 7.5,-0.3 7.5,-1.5 0,-1.2 -1.7,-1.5 -9,-1.5 h -9 z"
       id="path14"
       style="fill:#ffffff;stroke:none;stroke-width:0.1" />
    <path
       d="m 217,12.50014 v 12.5 h 9 9 v 23 23 h 14.5 14.5 v -23 -23 h 6.9 6.9 l 0.7,3.7 c 0.4,2.1 2.3,7.2 4.2,11.3 4.9,10.2 5.2,17.7 0.8,24.1 -1.6,2.4 -3.4,4.9 -3.8,5.6 -0.6,1 2.4,1.3 14.6,1.3 h 15.5 l 2.3,-5.3 c 1.6,-3.8 2.3,-7.1 2.3,-12.2 0,-6.1 -0.5,-8 -3.9,-15 -3.4,-7 -3.9,-8.9 -3.9,-15.5 -0.1,-6.5 0.3,-8.2 2.9,-12.8 1.6,-3 4.2,-6.5 5.8,-7.8 l 2.9,-2.4 H 267.6 217 Z"
       id="path16"
       style="fill:#ffffff;stroke:none;stroke-width:0.1" />
    <path
       d="m 5.8,42.60014 c -3.3,1.7 -4.8,4.3 -4.8,8.1 0,4.6 2.4,6.9 9,8.7 3.7,1.1 6,2.2 5.7,2.9 -0.6,1.9 -5.2,2 -8.6,0.3 -2.9,-1.5 -3,-1.5 -5,1.3 -1.2,1.6 -2.1,3.2 -2.1,3.6 0,1.4 7.2,3.5 12,3.5 5.5,0 10.4,-2 11.4,-4.5 0.3,-0.9 0.6,-3.4 0.6,-5.5 0,-4.6 -1.9,-6.3 -9.7,-8.6 -2.9,-0.9 -5.3,-2 -5.3,-2.5 0,-1.9 3.2,-2.1 7,-0.6 4,1.5 4,1.5 6.1,-1.4 2.5,-3.5 2,-4.5 -2.9,-5.9 -5.1,-1.4 -10.2,-1.2 -13.4,0.6 z"
       id="path32"
       style="fill:#ffffff;stroke:none;stroke-width:0.1" />
    <path
       d="m 31.6,53.50014 c -6.7,18.5 -6.6,17.5 -1.7,17.5 3.5,0 4.3,-0.4 5.1,-2.5 0.8,-2.1 1.6,-2.5 5.4,-2.5 3.8,0 4.5,0.3 5,2.5 0.6,2.2 1.2,2.5 5.1,2.5 2.5,0 4.5,-0.1 4.5,-0.3 0,-0.1 -2.4,-6.7 -5.3,-14.7 l -5.4,-14.5 -4,-0.3 -4,-0.3 z m 10.3,4.2 c 0.1,0.7 -0.8,1.3 -1.9,1.3 -2.4,0 -2.3,0.2 -0.8,-4.1 1.2,-3.4 1.2,-3.4 1.9,-0.9 0.4,1.4 0.7,3.1 0.8,3.7 z"
       id="path34"
       style="fill:#ffffff;stroke:none;stroke-width:0.1" />
    <path
       d="m 61.9,43.30014 c -4.3,2.9 -6.1,6.7 -6.1,12.7 0,10.2 5.6,15.7 15.1,14.8 7.4,-0.7 10.3,-3.7 10.9,-11.3 l 0.5,-5.6 -6.4,0.3 -6.4,0.3 -0.3,3.2 c -0.3,3 -0.1,3.3 2.3,3.3 3.5,0 2.8,2.4 -0.9,2.8 -3.4,0.4 -5.3,-1.1 -6.1,-4.9 -0.9,-4.1 0.3,-8.7 2.7,-10 1.6,-0.9 2.6,-0.7 4.8,1 2.4,1.7 3.3,1.9 5.9,1 3.3,-1.2 3.7,-2 2.1,-5 -2.7,-5 -12.4,-6.4 -18.1,-2.6 z"
       id="path36"
       style="fill:#ffffff;stroke:none;stroke-width:0.1" />
    <path
       d="m 93.5,42.70014 c -2.8,7.3 -9.5,26.3 -9.5,27.2 0,0.6 1.7,1.1 4,1.1 3.4,0 4.2,-0.4 5,-2.5 0.8,-2.2 1.6,-2.5 5.5,-2.5 3.9,0 4.5,0.3 4.5,2 0,2.5 1.7,3.2 6.3,2.8 l 3.5,-0.3 -5.3,-14.5 -5.2,-14.5 -4,-0.3 c -3.1,-0.2 -4.2,0.1 -4.8,1.5 z m 5.9,12.5 c 0.9,3.5 0.8,3.8 -1.5,3.8 -1.5,0 -1.9,-0.4 -1.5,-1.6 0.3,-0.9 0.6,-2.2 0.6,-3 0,-2.2 1.7,-1.6 2.4,0.8 z"
       id="path38"
       style="fill:#ffffff;stroke:none;stroke-width:0.1" />
    <path
       d="m 116,55.90014 v 15.1 h 4 4 v -5 c 0,-3.8 0.4,-5 1.5,-5 0.8,0 2.6,2.2 4,5 2.5,4.9 2.6,5 7,5 h 4.5 l -2.7,-5.5 -2.7,-5.5 2.3,-2.4 c 1.8,-1.9 2.2,-3.3 1.9,-7.1 -0.4,-7 -3.2,-8.8 -14.8,-9.3 l -9,-0.4 z m 14.8,-7 c 0.8,0.5 1.2,1.7 1,2.7 -0.2,1.4 -1.3,2 -4.1,2.2 -3.5,0.3 -3.7,0.2 -3.7,-2.7 0,-2.7 0.3,-3.1 2.8,-3.1 1.5,0 3.3,0.4 4,0.9 z"
       id="path40"
       style="fill:#ffffff;stroke:none;stroke-width:0.1" />
    <path
       d="m 144.4,42.30014 c -0.2,0.7 -0.3,7.4 -0.2,14.8 l 0.3,13.4 4.3,0.3 4.2,0.3 v -5 c 0,-6.7 1.9,-6.7 5,-0.1 2.3,5 2.4,5 7.2,5 h 4.8 l -2.8,-5.6 -2.9,-5.7 2.4,-2.3 c 1.6,-1.6 2.3,-3.5 2.3,-6.1 0,-7.6 -4.6,-10.3 -17.3,-10.3 -4.6,0 -6.9,0.4 -7.3,1.3 z m 15.6,7.2 c 2,2.4 0.4,4.5 -3.5,4.5 -3.2,0 -3.5,-0.2 -3.5,-3 0,-2.6 0.3,-3 2.9,-3 1.6,0 3.4,0.7 4.1,1.5 z"
       id="path42"
       style="fill:#ffffff;stroke:none;stroke-width:0.1" />
    <path
       d="m 181.6,41.80014 c -0.5,0.8 -10.6,28.4 -10.6,28.9 0,0.2 2,0.3 4.5,0.3 3.9,0 4.5,-0.3 5.1,-2.5 0.5,-2.2 1.2,-2.5 4.8,-2.5 3.6,0 4.5,0.4 5.4,2.5 1,2.1 1.9,2.5 5.2,2.5 2.2,0 4,-0.3 4,-0.8 0,-0.4 -2.3,-7.1 -5.1,-15 l -5.2,-14.2 h -3.8 c -2.1,0 -4,0.4 -4.3,0.8 z m 5.4,14.1 c 0.8,2.8 0.6,3.1 -1.2,3.1 -1.6,0 -1.9,-0.5 -1.4,-2.3 0.3,-1.2 0.6,-2.8 0.6,-3.6 0,-2.1 0.9,-0.8 2,2.8 z"
       id="path44"
       style="fill:#ffffff;stroke:none;stroke-width:0.1" />
  </g>
</svg>
